[Module]
VortexTrackerII=1
Version=3.7
Title=
Author=
NoteTable=2
ChipFreq=1750000
Speed=7
Noise=HEX
PlayOrder=L0,1,2,3,4,5,6,7,8,9,10,11,12,13,15,16,17,18,19,20,21,22,23,24,25,26,27,28,29,30,31,32


[Ornament1]
-2,-1,L0

[Ornament2]
L0,4,9

[Ornament3]
L0

[Ornament4]
L0

[Ornament5]
L0

[Ornament6]
L0

[Ornament7]
L0

[Ornament8]
L0

[Ornament9]
L0

[Ornament10]
L0

[Ornament11]
L0

[Ornament12]
L0

[Ornament13]
L0

[Ornament14]
L0

[Ornament15]
L0

[Sample1]
TN. -004_ +03_ D_
T.. +000_ +00_ D_
T.. +000_ +00_ C_
T.. +000_ +00_ C_
T.. +000_ +00_ B_
T.. +000_ +00_ A_
T.. -001_ +00_ 9_
T.. -002_ +00_ 9_ L
T.. -001_ +00_ 9_
T.. +000_ +00_ 9_
T.. +001_ +00_ 9_
T.. +002_ +00_ 9_
T.. +001_ +00_ 9_
T.. +000_ +00_ 9-

[Sample2]
T.. +000_ +00_ E_
T.. +000_ +00_ E_
T.. +000_ +00_ E_
T.. +000_ +00_ E_
T.. +000_ +00_ D_
T.. +000_ +00_ D_
T.. +000_ +00_ D_
T.. +000_ +00_ D_
T.. +000_ +00_ C_
T.. +000_ +00_ C_
T.. +000_ +00_ C_
T.. +000_ +00_ B_ L
T.. -002_ +00_ B_
T.. -004_ +00_ B_
T.. -002_ +00_ B_
T.. +000_ +00_ B_
T.. +002_ +00_ B_
T.. +004_ +00_ B_
T.. +002_ +00_ B-
T.. +000_ +00_ B_
T.. -002_ +00_ B_
T.. -004_ +00_ B_
T.. -002_ +00_ B_
T.. +000_ +00_ B_
T.. +002_ +00_ B_
T.. +004_ +00_ B_
T.. +002_ +00_ A-

[Sample3]
T.. +000_ +00_ F_
T.. +000_ +00_ E_
T.. +000_ +00_ E_
T.. +000_ +00_ E_
T.. +000_ +00_ D_
T.. +000_ +00_ D_
T.. +000_ +00_ D_
T.. +000_ +00_ C_
T.. +000_ +00_ C_
T.. +000_ +00_ C_
T.. +000_ +00_ C_
T.. +000_ +00_ C_
T.. +001_ +00_ C_
T.. +001_ +00_ C_
T.. +001_ +00_ C_
T.. +000_ +00_ C_
T.. +000_ +00_ C_ L
T.. -001_ +00_ C_
T.. -003_ +00_ C_
T.. -004_ +00_ C_
T.. -003_ +00_ C_
T.. -001_ +00_ C_
T.. +000_ +00_ C-
T.. +001_ +00_ C_
T.. +003_ +00_ C_
T.. +004_ +00_ C_
T.. +003_ +00_ C_
T.. +001_ +00_ C_
T.. +000_ +00_ C-

[Sample4]
T.E +000_ +00_ A_
T.E +000_ +00_ A_
T.E +000_ +00_ B_
T.E +000_ +00_ B_
T.E +000_ +00_ C_
T.E +000_ +00_ C_
T.E +000_ +00_ C_
T.E +000_ +00_ C_
T.E +000_ +00_ C_
T.E +000_ +00_ C_
T.E +000_ +00_ B_
T.E +000_ +00_ B_
T.E -003_ +00_ B_
T.E -006_ +00_ B_
T.E -003_ +00_ A_
T.E +000_ +00_ A_
T.E +003_ +00_ A_
T.E +006_ +00_ A_
T.E +003_ +00_ A_
T.E +000_ +00_ A_
T.E -003_ +00_ A_ L
T.E -006_ +00_ A_
T.E -003_ +00_ A_
T.E +000_ +00_ A_
T.E +003_ +00_ A_
T.E +006_ +00_ A_
T.E +003_ +00_ A_
T.E +000_ +00_ A_

[Sample5]
T.. +000_ +00_ E_ L

[Sample6]
T.. +000_ +00_ F_
T.. +000_ +00_ F_
T.. +000_ +00_ E_
T.. +000_ +00_ D_
T.. +000_ +00_ D_
T.. +000_ +00_ C_
T.. +000_ +00_ C_
T.. +000_ +00_ B_
T.. +000_ +00_ A_
T.. +000_ +00_ 9_ L

[Sample7]
TN. +000_ +00_ E_
TN. +000_ +00_ E_
TN. +000_ +00_ E_
TN. +000_ +00_ E_
T.. +000_ +00_ D_
T.. +000_ +00_ D_
T.. +000_ +00_ D_
T.. +000_ +00_ D_
T.. +000_ +00_ C_
T.. +000_ +00_ C_
T.. +000_ +00_ C_
T.. +000_ +00_ B_ L
T.. -002_ +00_ B_
T.. -004_ +00_ B_
T.. -002_ +00_ B_
T.. +000_ +00_ B_
T.. +002_ +00_ B_
T.. +004_ +00_ B_
T.. +002_ +00_ B-
T.. +000_ +00_ B_
T.. -002_ +00_ B_
T.. -004_ +00_ B_
T.. -002_ +00_ B_
T.. +000_ +00_ B_
T.. +002_ +00_ B_
T.. +004_ +00_ B_
T.. +002_ +00_ A-

[Sample8]
.NE +000_ +00_ A_ L
.NE +000_ +00_ A-

[Sample9]
TNE -1D7_ +00_ E_
.NE +000_ +00_ B_
.NE +000_ +00_ 9_
..E +000_ +00_ 7_
..E +000_ +00_ 6_
..E +000_ +00_ 5_
..E +000_ +00_ 5_
..E +000_ +00_ 4_
..E +000_ +00_ 3_
..E +000_ +00_ 3_
..E +000_ +00_ 3_
..E +000_ +00_ 2_
..E +000_ +00_ 2_
..E +000_ +00_ 1_
T.E +000_ +00_ 0_ L

[Sample10]
TNE -1D7_ +00_ E_
.NE +000_ +00_ B_
.NE +000_ +00_ 9_
..E +000_ +00_ 7_
..E +000_ +00_ 6_
T.E +000_ +00_ 5_
..E +000_ +00_ 5_
.NE -049_ +00_ E_
.NE +000_ +00_ B_
..E +000_ +00_ 9_
..E +000_ +00_ 7_
..E +000_ +00_ 6_
..E +000_ +00_ 5_
... +000_ +00_ 5_
... +000_ +00_ 4_
... +000_ +00_ 3_
... +000_ +00_ 2_
... +000_ +00_ 1_ L

[Sample11]
... +000_ +00_ 0_ L

[Sample12]
... +000_ +00_ 0_ L

[Sample13]
... +000_ +00_ 0_ L

[Sample14]
... +000_ +00_ 0_ L

[Sample15]
... +000_ +00_ 0_ L

[Sample16]
... +000_ +00_ 0_ L

[Sample17]
... +000_ +00_ 0_ L

[Sample18]
... +000_ +00_ 0_ L

[Sample19]
... +000_ +00_ 0_ L

[Sample20]
... +000_ +00_ 0_ L

[Sample21]
... +000_ +00_ 0_ L

[Sample22]
... +000_ +00_ 0_ L

[Sample23]
... +000_ +00_ 0_ L

[Sample24]
... +000_ +00_ 0_ L

[Sample25]
... +000_ +00_ 0_ L

[Sample26]
... +000_ +00_ 0_ L

[Sample27]
... +000_ +00_ 0_ L

[Sample28]
... +000_ +00_ 0_ L

[Sample29]
... +000_ +00_ 0_ L

[Sample30]
... +000_ +00_ 0_ L

[Sample31]
... +000_ +00_ 0_ L

[Pattern0]
....|..|C-2 2.FF ....|C-5 1.FF ....|G-2 2.FF ....
....|..|--- .... ....|--- .... ....|--- .... ....
....|..|--- .... ....|--- .... ....|--- .... ....
....|..|--- .... ....|--- .... ....|--- .... ....
....|..|C-4 8.FC ....|--- .... ....|--- .... ....
....|..|--- .... ....|--- .... ....|--- .... ....
....|..|--- .... ....|G-5 .... ....|--- .... ....
....|..|C-4 9.FC ....|--- .... ....|--- .... ....
....|..|C-4 9.FC ....|--- .... ....|R-- .... ....
....|..|--- .... ....|--- .... ....|--- .... ....
....|..|C-4 9.FB ....|F#5 .... ....|--- .... ....
....|..|--- .... ....|--- .... ....|--- .... ....
....|..|C-4 8.FC ....|--- .... ....|--- .... ....
....|..|--- .... ....|--- .... ....|--- .... ....
....|..|--- .... ....|--- .... ....|--- .... ....
....|..|--- .... ....|--- .... ....|--- .... ....
....|..|B-1 2.FF ....|B-4 .... ....|F#2 .... ....
....|..|--- .... ....|--- .... ....|--- .... ....
....|..|--- .... ....|--- .... ....|--- .... ....
....|..|--- .... ....|--- .... ....|--- .... ....
....|..|C-4 8.FC ....|R-- .... ....|--- .... ....
....|..|--- .... ....|--- .... ....|--- .... ....
....|..|--- .... ....|E-5 .... ....|--- .... ....
....|..|C-4 9.FC ....|--- .... ....|--- .... ....
....|..|C-4 9.FC ....|--- .... ....|--- .... ....
....|..|--- .... ....|--- .... ....|--- .... ....
....|..|C-4 9.FB ....|D#5 .... ....|--- .... ....
....|..|--- .... ....|--- .... ....|--- .... ....
....|..|C-4 8.FC ....|--- .... ....|--- .... ....
....|..|--- .... ....|--- .... ....|--- .... ....
....|..|--- .... ....|--- .... ....|--- .... ....
....|..|--- .... ....|--- .... ....|--- .... ....
....|..|C-2 2.FF ....|C-5 .... ....|G-2 .... ....
....|..|--- .... ....|--- .... ....|--- .... ....
....|..|--- .... ....|--- .... ....|--- .... ....
....|..|--- .... ....|--- .... ....|--- .... ....
....|..|C-4 8.FC ....|R-- .... ....|--- .... ....
....|..|--- .... ....|--- .... ....|--- .... ....
....|..|--- .... ....|G-5 .... ....|--- .... ....
....|..|C-4 9.FC ....|--- .... ....|--- .... ....
....|..|C-4 9.FC ....|--- .... ....|--- .... ....
....|..|--- .... ....|--- .... ....|--- .... ....
....|..|C-4 9.FB ....|F#5 .... ....|--- .... ....
....|..|--- .... ....|--- .... ....|--- .... ....
....|..|C-4 8.FC ....|--- .... ....|--- .... ....
....|..|--- .... ....|--- .... ....|--- .... ....
....|..|--- .... ....|--- .... ....|--- .... ....
....|..|--- .... ....|--- .... ....|--- .... ....
....|..|B-1 2.FF ....|B-4 .... ....|F#2 .... ....
....|..|--- .... ....|--- .... ....|--- .... ....
....|..|--- .... ....|--- .... ....|--- .... ....
....|..|--- .... ....|--- .... ....|--- .... ....
....|..|C-4 8.FC ....|--- .... ....|--- .... ....
....|..|--- .... ....|--- .... ....|--- .... ....
....|..|--- .... ....|--- .... ....|--- .... ....
....|..|C-4 9.FC ....|--- .... ....|--- .... ....
....|..|C-4 9.FC ....|--- .... ....|--- .... ....
....|..|--- .... ....|--- .... ....|--- .... ....
....|..|C-4 9.FB ....|--- .... ....|--- .... ....
....|..|--- .... ....|--- .... ....|--- .... ....
....|..|C-4 8.FC ....|--- .... ....|--- .... ....
....|..|--- .... ....|--- .... ....|--- .... ....
....|..|--- .... ....|--- .... ....|--- .... ....
....|..|--- .... ....|--- .... ....|--- .... ....

[Pattern1]
....|..|C-2 2.FF ....|C-5 1.FF ....|G-2 2.FF ....
....|..|--- .... ....|--- .... ....|--- .... ....
....|..|--- .... ....|--- .... ....|--- .... ....
....|..|--- .... ....|--- .... ....|--- .... ....
....|..|C-4 8.FC ....|R-- .... ....|--- .... ....
....|..|--- .... ....|--- .... ....|--- .... ....
....|..|--- .... ....|G-5 .... ....|--- .... ....
....|..|C-4 9.FC ....|--- .... ....|--- .... ....
....|..|C-4 9.FC ....|--- .... ....|--- .... ....
....|..|--- .... ....|--- .... ....|--- .... ....
....|..|C-4 9.FB ....|F#5 .... ....|--- .... ....
....|..|--- .... ....|--- .... ....|--- .... ....
....|..|C-4 8.FC ....|--- .... ....|--- .... ....
....|..|--- .... ....|--- .... ....|--- .... ....
....|..|--- .... ....|--- .... ....|--- .... ....
....|..|--- .... ....|--- .... ....|--- .... ....
....|..|B-1 2.FF ....|B-4 .... ....|F#2 .... ....
....|..|--- .... ....|--- .... ....|--- .... ....
....|..|--- .... ....|--- .... ....|--- .... ....
....|..|--- .... ....|--- .... ....|--- .... ....
....|..|C-4 8.FC ....|R-- .... ....|--- .... ....
....|..|--- .... ....|--- .... ....|--- .... ....
....|..|--- .... ....|E-5 .... ....|--- .... ....
....|..|C-4 9.FC ....|--- .... ....|--- .... ....
....|..|C-4 9.FC ....|--- .... ....|--- .... ....
....|..|--- .... ....|--- .... ....|--- .... ....
....|..|C-4 9.FB ....|D#5 .... ....|--- .... ....
....|..|--- .... ....|--- .... ....|--- .... ....
....|..|C-4 8.FC ....|--- .... ....|--- .... ....
....|..|--- .... ....|--- .... ....|--- .... ....
....|..|--- .... ....|--- .... ....|--- .... ....
....|..|--- .... ....|--- .... ....|--- .... ....
....|..|C-2 2.FF ....|C-5 .... ....|G-2 .... ....
....|..|--- .... ....|--- .... ....|--- .... ....
....|..|--- .... ....|--- .... ....|--- .... ....
....|..|--- .... ....|--- .... ....|--- .... ....
....|..|C-4 8.FC ....|R-- .... ....|--- .... ....
....|..|--- .... ....|--- .... ....|--- .... ....
....|..|--- .... ....|G-5 .... ....|--- .... ....
....|..|C-4 9.FC ....|--- .... ....|--- .... ....
....|..|C-4 9.FC ....|--- .... ....|--- .... ....
....|..|--- .... ....|--- .... ....|--- .... ....
....|..|C-4 9.FB ....|F#5 .... ....|--- .... ....
....|..|--- .... ....|--- .... ....|--- .... ....
....|..|C-4 8.FC ....|--- .... ....|--- .... ....
....|..|--- .... ....|--- .... ....|--- .... ....
....|..|--- .... ....|--- .... ....|--- .... ....
....|..|--- .... ....|--- .... ....|--- .... ....
....|..|B-1 2.FF ....|B-4 .... ....|F#2 .... ....
....|..|--- .... ....|--- .... ....|--- .... ....
....|..|--- .... ....|--- .... ....|--- .... ....
....|..|--- .... ....|--- .... ....|--- .... ....
....|..|C-4 8.FC ....|--- .... ....|--- .... ....
....|..|--- .... ....|--- .... ....|--- .... ....
....|..|--- .... ....|--- .... ....|--- .... ....
....|..|C-4 9.FC ....|--- .... ....|--- .... ....
....|..|C-4 9.FC ....|--- .... ....|--- .... ....
....|..|--- .... ....|--- .... ....|--- .... ....
....|..|C-4 9.FB ....|--- .... ....|--- .... ....
....|..|--- .... ....|--- .... ....|--- .... ....
....|..|C-4 8.FC ....|--- .... ....|--- .... ....
....|..|--- .... ....|--- .... ....|--- .... ....
....|..|--- .... ....|--- .... ....|--- .... ....
....|..|--- .... ....|--- .... ....|--- .... ....

[Pattern2]
....|..|B-4 3.1F ....|E-3 4.FC ....|E-2 2.FF ....
....|..|--- .... ....|--- .... ....|--- .... ....
....|..|--- .... ....|--- .... ....|E-3 .... ....
....|..|--- .... ....|--- .... ....|--- .... ....
....|..|R-- .... ....|B-2 .... ....|--- .... ....
....|..|--- .... ....|--- .... ....|--- .... ....
....|..|B-4 .... ....|G-3 .... ....|--- .... ....
....|..|--- .... ....|--- .... ....|--- .... ....
....|..|B-4 .... ....|--- .... ....|R-- .... ....
....|..|--- .... ....|--- .... ....|--- .... ....
....|..|A-4 .... ....|E-3 .... ....|--- .... ....
....|..|--- .... ....|--- .... ....|--- .... ....
....|..|G-4 .... ....|--- .... ....|--- .... ....
....|..|--- .... ....|--- .... ....|--- .... ....
....|..|A#4 .... ....|--- .... ....|--- .... ....
....|..|--- .... ....|--- .... ....|--- .... ....
....|..|--- .... ....|D#3 .... ....|C-2 .... ....
....|..|--- .... ....|--- .... ....|--- .... ....
....|..|--- .... ....|--- .... ....|C-3 .... ....
....|..|--- .... ....|--- .... ....|--- .... ....
....|..|R-- .... ....|C-3 .... ....|--- .... ....
....|..|--- .... ....|--- .... ....|--- .... ....
....|..|A#4 .... ....|G-3 .... ....|--- .... ....
....|..|--- .... ....|--- .... ....|--- .... ....
....|..|A#4 .... ....|--- .... ....|R-- .... ....
....|..|--- .... ....|--- .... ....|--- .... ....
....|..|A-4 .... ....|D#3 .... ....|--- .... ....
....|..|--- .... ....|--- .... ....|--- .... ....
....|..|A#4 .... ....|--- .... ....|--- .... ....
....|..|--- .... ....|--- .... ....|--- .... ....
....|..|--- .... ....|--- .... ....|--- .... ....
....|..|--- .... ....|--- .... ....|--- .... ....
....|..|B-4 .... ....|E-3 .... ....|E-2 .... ....
....|..|--- .... ....|--- .... ....|--- .... ....
....|..|--- .... ....|--- .... ....|--- .... ....
....|..|--- .... ....|--- .... ....|--- .... ....
....|..|--- .... ....|B-2 .... ....|E-3 .... ....
....|..|--- .... ....|--- .... ....|--- .... ....
....|..|G-4 .... ....|E-3 .... ....|--- .... ....
....|..|--- .... ....|--- .... ....|--- .... ....
....|..|--- .... ....|--- .... ....|--- .... ....
....|..|--- .... ....|--- .... ....|--- .... ....
....|..|--- .... ....|F#3 .... ....|E-2 .... ....
....|..|--- .... ....|--- .... ....|--- .... ....
....|..|--- .... ....|G-3 .... ....|--- .... ....
....|..|--- .... ....|--- .... ....|--- .... ....
....|..|--- .... ....|F#3 .... ....|--- .... ....
....|..|--- .... ....|--- .... ....|--- .... ....
....|..|--- .... ....|D#3 .... ....|C-2 .... ....
....|..|--- .... ....|--- .... ....|--- .... ....
....|..|--- .... ....|--- .... ....|--- .... ....
....|..|--- .... ....|--- .... ....|--- .... ....
....|..|--- .... ....|R-- .... ....|C-3 .... ....
....|..|--- .... ....|--- .... ....|--- .... ....
....|..|--- .... ....|D#3 .... ....|--- .... ....
....|..|--- .... ....|--- .... ....|--- .... ....
....|..|R-- .... ....|R-- .... ....|--- .... ....
....|..|--- .... ....|--- .... ....|--- .... ....
....|..|--- .... ....|D#3 .... ....|C-2 .... ....
....|..|--- .... ....|--- .... ....|--- .... ....
....|..|--- .... ....|C-3 .... ....|--- .... ....
....|..|--- .... ....|--- .... ....|--- .... ....
....|..|--- .... ....|--- .... ....|--- .... ....
....|..|--- .... ....|--- .... ....|--- .... ....

[Pattern3]
....|..|B-4 3.1F ....|E-3 4.FC ....|E-2 2.FF ....
....|..|--- .... ....|--- .... ....|--- .... ....
....|..|--- .... ....|--- .... ....|E-3 .... ....
....|..|--- .... ....|--- .... ....|--- .... ....
....|..|R-- .... ....|B-2 .... ....|--- .... ....
....|..|--- .... ....|--- .... ....|--- .... ....
....|..|B-4 .... ....|G-3 .... ....|--- .... ....
....|..|--- .... ....|--- .... ....|--- .... ....
....|..|B-4 .... ....|--- .... ....|R-- .... ....
....|..|--- .... ....|--- .... ....|--- .... ....
....|..|A-4 .... ....|E-3 .... ....|--- .... ....
....|..|--- .... ....|--- .... ....|--- .... ....
....|..|G-4 .... ....|--- .... ....|--- .... ....
....|..|--- .... ....|--- .... ....|--- .... ....
....|..|A#4 .... ....|--- .... ....|--- .... ....
....|..|--- .... ....|--- .... ....|--- .... ....
....|..|--- .... ....|D#3 .... ....|C-2 .... ....
....|..|--- .... ....|--- .... ....|--- .... ....
....|..|--- .... ....|--- .... ....|C-3 .... ....
....|..|--- .... ....|--- .... ....|--- .... ....
....|..|R-- .... ....|C-3 .... ....|--- .... ....
....|..|--- .... ....|--- .... ....|--- .... ....
....|..|A#4 .... ....|G-3 .... ....|--- .... ....
....|..|--- .... ....|--- .... ....|--- .... ....
....|..|A#4 .... ....|--- .... ....|R-- .... ....
....|..|--- .... ....|--- .... ....|--- .... ....
....|..|A-4 .... ....|D#3 .... ....|--- .... ....
....|..|--- .... ....|--- .... ....|--- .... ....
....|..|A#4 .... ....|E-3 .... ....|--- .... ....
....|..|--- .... ....|--- .... ....|--- .... ....
....|..|--- .... ....|--- .... ....|--- .... ....
....|..|--- .... ....|--- .... ....|--- .... ....
....|..|F#4 .... ....|E-3 .... ....|E-2 .... ....
....|..|--- .... ....|--- .... ....|--- .... ....
....|..|--- .... ....|--- .... ....|--- .... ....
....|..|--- .... ....|--- .... ....|--- .... ....
....|..|--- .... ....|B-2 .... ....|E-3 .... ....
....|..|--- .... ....|--- .... ....|--- .... ....
....|..|G-4 .... ....|E-3 .... ....|--- .... ....
....|..|--- .... ....|--- .... ....|--- .... ....
....|..|--- .... ....|--- .... ....|--- .... ....
....|..|--- .... ....|--- .... ....|--- .... ....
....|..|--- .... ....|F#3 .... ....|E-2 .... ....
....|..|--- .... ....|--- .... ....|--- .... ....
....|..|--- .... ....|G-3 .... ....|--- .... ....
....|..|--- .... ....|--- .... ....|--- .... ....
....|..|--- .... ....|F#3 .... ....|--- .... ....
....|..|--- .... ....|--- .... ....|--- .... ....
....|..|--- .... ....|D#3 .... ....|C-2 .... ....
....|..|--- .... ....|--- .... ....|--- .... ....
....|..|--- .... ....|--- .... ....|--- .... ....
....|..|--- .... ....|--- .... ....|--- .... ....
....|..|--- .... ....|R-- .... ....|--- .... ....
....|..|--- .... ....|--- .... ....|--- .... ....
....|..|--- .... ....|D#3 .... ....|C-3 .... ....
....|..|--- .... ....|--- .... ....|--- .... ....
....|..|R-- .... ....|R-- .... ....|--- .... ....
....|..|--- .... ....|--- .... ....|--- .... ....
....|..|--- .... ....|D#3 .... ....|C-2 .... ....
....|..|--- .... ....|--- .... ....|--- .... ....
....|..|--- .... ....|C-3 .... ....|--- .... ....
....|..|--- .... ....|--- .... ....|--- .... ....
....|..|--- .... ....|--- .... ....|--- .... ....
....|..|--- .... ....|--- .... ....|--- .... ....

[Pattern4]
....|..|A-4 3.1F ....|A-3 4.FC ....|E-2 2.FF ....
....|..|--- .... ....|--- .... ....|--- .... ....
....|..|--- .... ....|--- .... ....|E-3 .... ....
....|..|--- .... ....|--- .... ....|--- .... ....
....|..|--- .... ....|E-3 .... ....|--- .... ....
....|..|--- .... ....|--- .... ....|--- .... ....
....|..|A-4 .... ....|C-4 .... ....|--- .... ....
....|..|--- .... ....|--- .... ....|--- .... ....
....|..|A-4 .... ....|--- .... ....|R-- .... ....
....|..|--- .... ....|--- .... ....|--- .... ....
....|..|B-4 .... ....|E-3 .... ....|--- .... ....
....|..|--- .... ....|--- .... ....|--- .... ....
....|..|A-4 .... ....|--- .... ....|--- .... ....
....|..|--- .... ....|--- .... ....|--- .... ....
....|..|C-5 .... ....|--- .... ....|--- .... ....
....|..|--- .... ....|--- .... ....|--- .... ....
....|..|--- .... ....|G#3 .... ....|C-2 .... ....
....|..|--- .... ....|--- .... ....|--- .... ....
....|..|--- .... ....|--- .... ....|C-3 .... ....
....|..|--- .... ....|--- .... ....|--- .... ....
....|..|R-- .... ....|F-3 .... ....|--- .... ....
....|..|--- .... ....|--- .... ....|--- .... ....
....|..|C-5 .... ....|D-4 .... ....|--- .... ....
....|..|--- .... ....|--- .... ....|--- .... ....
....|..|C-5 .... ....|--- .... ....|R-- .... ....
....|..|--- .... ....|--- .... ....|--- .... ....
....|..|D-5 .... ....|C-4 .... ....|--- .... ....
....|..|--- .... ....|--- .... ....|--- .... ....
....|..|C-5 .... ....|--- .... ....|--- .... ....
....|..|--- .... ....|--- .... ....|--- .... ....
....|..|--- .... ....|--- .... ....|--- .... ....
....|..|--- .... ....|--- .... ....|--- .... ....
....|..|C-5 .... ....|A-3 .... ....|E-2 .... ....
....|..|--- .... ....|--- .... ....|--- .... ....
....|..|--- .... ....|--- .... ....|--- .... ....
....|..|--- .... ....|--- .... ....|--- .... ....
....|..|--- .... ....|E-3 .... ....|E-3 .... ....
....|..|--- .... ....|--- .... ....|--- .... ....
....|..|A-4 .... ....|A-3 .... ....|--- .... ....
....|..|--- .... ....|--- .... ....|--- .... ....
....|..|--- .... ....|--- .... ....|--- .... ....
....|..|--- .... ....|--- .... ....|--- .... ....
....|..|--- .... ....|B-3 .... ....|E-2 .... ....
....|..|--- .... ....|--- .... ....|--- .... ....
....|..|--- .... ....|C-4 .... ....|--- .... ....
....|..|--- .... ....|--- .... ....|--- .... ....
....|..|--- .... ....|B-3 .... ....|--- .... ....
....|..|--- .... ....|--- .... ....|--- .... ....
....|..|--- .... ....|G#3 .... ....|C-2 .... ....
....|..|--- .... ....|--- .... ....|--- .... ....
....|..|--- .... ....|--- .... ....|--- .... ....
....|..|--- .... ....|--- .... ....|--- .... ....
....|..|--- .... ....|C-3 .... ....|--- .... ....
....|..|--- .... ....|--- .... ....|--- .... ....
....|..|--- .... ....|G#3 .... ....|C-3 .... ....
....|..|--- .... ....|--- .... ....|--- .... ....
....|..|R-- .... ....|--- .... ....|--- .... ....
....|..|--- .... ....|--- .... ....|--- .... ....
....|..|--- .... ....|C-3 .... ....|C-2 .... ....
....|..|--- .... ....|--- .... ....|--- .... ....
....|..|--- .... ....|F-3 .... ....|--- .... ....
....|..|--- .... ....|--- .... ....|--- .... ....
....|..|--- .... ....|--- .... ....|--- .... ....
....|..|--- .... ....|--- .... ....|--- .... ....

[Pattern5]
..3E|..|A-4 3.1F ....|A-3 4.FC ....|A-1 2.FF ....
....|..|--- .... ....|--- .... ....|--- .... ....
..1F|..|--- .... ....|--- .... ....|A-2 .... ....
....|..|--- .... ....|--- .... ....|--- .... ....
....|..|R-- .... ....|E-3 .... ....|--- .... ....
....|..|--- .... ....|--- .... ....|--- .... ....
....|..|A-4 .... ....|C-4 .... ....|--- .... ....
....|..|--- .... ....|--- .... ....|--- .... ....
....|..|A-4 .... ....|--- .... ....|R-- .... ....
....|..|--- .... ....|--- .... ....|--- .... ....
....|..|B-4 .... ....|A-3 .... ....|--- .... ....
....|..|--- .... ....|--- .... ....|--- .... ....
....|..|A-4 .... ....|--- .... ....|--- .... ....
....|..|--- .... ....|--- .... ....|--- .... ....
....|..|C-5 .... ....|--- .... ....|--- .... ....
....|..|--- .... ....|--- .... ....|--- .... ....
..4E|..|--- .... ....|G#3 .... ....|F-1 .A.. ....
....|..|--- .... ....|--- .... ....|--- .... ....
..27|..|--- .... ....|--- .... ....|F-2 .A.. ....
....|..|--- .... ....|--- .... ....|--- .... ....
....|..|R-- .... ....|F-3 .... ....|--- .... ....
....|..|--- .... ....|--- .... ....|--- .... ....
....|..|C-5 .... ....|D-4 .... ....|--- .... ....
....|..|--- .... ....|--- .... ....|--- .... ....
....|..|C-5 .... ....|--- .... ....|R-- .... ....
....|..|--- .... ....|--- .... ....|--- .... ....
....|..|D-5 .... ....|C-4 .... ....|--- .... ....
....|..|--- .... ....|--- .... ....|--- .... ....
....|..|C-5 .... ....|--- .... ....|--- .... ....
....|..|--- .... ....|--- .... ....|--- .... ....
....|..|C-5 .... ....|--- .... ....|--- .... ....
....|..|--- .... ....|--- .... ....|--- .... ....
..3E|..|--- .... ....|B-3 .... ....|E-2 .A.. ....
....|..|--- .... ....|--- .... ....|--- .... ....
....|..|B-4 .... ....|--- .... ....|--- .... ....
....|..|--- .... ....|--- .... ....|--- .... ....
..1F|..|--- .... ....|E-3 .... ....|R-- .A.. ....
....|..|--- .... ....|--- .... ....|--- .... ....
....|..|--- .... ....|B-3 .... ....|E-2 .... ....
....|..|--- .... ....|--- .... ....|--- .... ....
....|..|--- .... ....|--- .... ....|--- .... ....
....|..|--- .... ....|--- .... ....|--- .... ....
..3E|..|--- .... ....|C-4 .... ....|--- .... ....
....|..|--- .... ....|--- .... ....|--- .... ....
....|..|--- .... ....|D-4 .... ....|G#2 .... ....
....|..|--- .... ....|--- .... ....|--- .... ....
....|..|--- .... ....|C-4 .... ....|--- .... ....
....|..|--- .... ....|--- .... ....|--- .... ....
....|..|R-- .... ....|B-3 .... ....|E-2 .... ....
....|..|--- .... ....|--- .... ....|--- .... ....
....|..|--- .... ....|--- .... ....|--- .... ....
....|..|--- .... ....|--- .... ....|--- .... ....
..4E|..|--- .... ....|E-3 .... ....|R-- .... ....
....|..|--- .... ....|--- .... ....|--- .... ....
....|..|--- .... ....|E-3 .... ....|E-2 .... ....
....|..|--- .... ....|--- .... ....|--- .... ....
..27|..|--- .... ....|R-- .... ....|--- .... ....
....|..|--- .... ....|--- .... ....|--- .... ....
....|..|--- .... ....|E-3 .... ....|E-2 .... ....
....|..|--- .... ....|--- .... ....|--- .... ....
....|..|--- .... ....|G#3 .... ....|B-1 .... ....
....|..|--- .... ....|--- .... ....|--- .... ....
..4E|..|--- .... ....|--- .... ....|--- .... ....
....|..|--- .... ....|--- .... ....|--- .... ....

[Pattern6]
....|..|E-5 3.1F ....|A-3 4.FC ....|A-1 2.FF ....
....|..|--- .... ....|--- .... ....|--- .... ....
....|..|--- .... ....|--- .... ....|--- .... ....
....|..|--- .... ....|--- .... ....|--- .... ....
....|..|R-- .... ....|E-3 .... ....|R-- .... ....
....|..|--- .... ....|--- .... ....|--- .... ....
....|..|--- .... ....|B-3 .... ....|A-2 .... ....
....|..|--- .... ....|--- .... ....|--- .... ....
....|..|E-5 .... ....|--- .... ....|--- .... ....
....|..|--- .... ....|--- .... ....|--- .... ....
....|..|D-5 .... ....|A-3 .... ....|--- .... ....
....|..|--- .... ....|--- .... ....|--- .... ....
....|..|C-5 .... ....|--- .... ....|E-2 .... ....
....|..|--- .... ....|--- .... ....|--- .... ....
....|..|D#5 .... ....|--- .... ....|--- .... ....
....|..|--- .... ....|--- .... ....|--- .... ....
....|..|--- .... ....|F-4 .... ....|F-1 .... ....
....|..|--- .... ....|--- .... ....|--- .... ....
....|..|--- .... ....|--- .... ....|--- .... ....
....|..|--- .... ....|--- .... ....|--- .... ....
....|..|R-- .... ....|C-4 .... ....|R-- .... ....
....|..|--- .... ....|--- .... ....|--- .... ....
....|..|D#5 .... ....|G-4 .... ....|F-2 .... ....
....|..|--- .... ....|--- .... ....|--- .... ....
....|..|D#5 .... ....|--- .... ....|--- .... ....
....|..|--- .... ....|--- .... ....|--- .... ....
....|..|D-5 .... ....|F-4 .... ....|--- .... ....
....|..|--- .... ....|--- .... ....|--- .... ....
....|..|D#5 .... ....|--- .... ....|C-2 .... ....
....|..|--- .... ....|--- .... ....|--- .... ....
....|..|--- .... ....|--- .... ....|--- .... ....
....|..|--- .... ....|--- .... ....|--- .... ....
....|..|E-5 .... ....|A-4 .... ....|A-1 .... ....
....|..|--- .... ....|--- .... ....|--- .... ....
....|..|--- .... ....|--- .... ....|--- .... ....
....|..|--- .... ....|--- .... ....|--- .... ....
....|..|--- .... ....|E-4 .... ....|R-- .... ....
....|..|--- .... ....|--- .... ....|--- .... ....
....|..|C-5 .... ....|A-4 .... ....|A-2 .... ....
....|..|--- .... ....|--- .... ....|--- .... ....
....|..|--- .... ....|--- .... ....|--- .... ....
....|..|--- .... ....|--- .... ....|--- .... ....
....|..|--- .... ....|B-4 .... ....|E-2 .... ....
....|..|--- .... ....|--- .... ....|--- .... ....
....|..|--- .... ....|C-5 .... ....|A-2 .... ....
....|..|--- .... ....|--- .... ....|--- .... ....
....|..|--- .... ....|B-4 .... ....|--- .... ....
....|..|--- .... ....|--- .... ....|--- .... ....
....|..|--- .... ....|--- .... ....|F-1 .... ....
....|..|--- .... ....|--- .... ....|--- .... ....
....|..|--- .... ....|G#4 .... ....|--- .... ....
....|..|--- .... ....|--- .... ....|--- .... ....
....|..|--- .... ....|C-3 .... ....|R-- .... ....
....|..|--- .... ....|--- .... ....|--- .... ....
....|..|--- .... ....|G#4 .... ....|F-2 .... ....
....|..|--- .... ....|--- .... ....|--- .... ....
....|..|R-- .... ....|R-- .... ....|--- .... ....
....|..|--- .... ....|--- .... ....|--- .... ....
....|..|--- .... ....|G#4 .... ....|C-2 .... ....
....|..|--- .... ....|--- .... ....|--- .... ....
....|..|E-5 .... ....|F-4 .... ....|F-2 .... ....
....|..|--- .... ....|--- .... ....|--- .... ....
....|..|--- .... ....|--- .... ....|--- .... ....
....|..|--- .... ....|--- .... ....|--- .... ....

[Pattern7]
....|..|E-5 3.1F ....|A-3 4.FC ....|A-1 2.FF ....
....|..|--- .... ....|--- .... ....|--- .... ....
....|..|--- .... ....|--- .... ....|--- .... ....
....|..|--- .... ....|--- .... ....|--- .... ....
....|..|R-- .... ....|E-3 .... ....|R-- .... ....
....|..|--- .... ....|--- .... ....|--- .... ....
....|..|E-5 .... ....|B-3 .... ....|A-2 .... ....
....|..|--- .... ....|--- .... ....|--- .... ....
....|..|E-5 .... ....|--- .... ....|--- .... ....
....|..|--- .... ....|--- .... ....|--- .... ....
....|..|D-5 .... ....|A-3 .... ....|--- .... ....
....|..|--- .... ....|--- .... ....|--- .... ....
....|..|C-5 .... ....|--- .... ....|E-2 .... ....
....|..|--- .... ....|--- .... ....|--- .... ....
....|..|D#5 .... ....|--- .... ....|--- .... ....
....|..|--- .... ....|--- .... ....|--- .... ....
....|..|--- .... ....|F-3 .... ....|F-1 .... ....
....|..|--- .... ....|--- .... ....|--- .... ....
....|..|--- .... ....|--- .... ....|--- .... ....
....|..|--- .... ....|--- .... ....|--- .... ....
....|..|R-- .... ....|D-3 .... ....|R-- .... ....
....|..|--- .... ....|--- .... ....|--- .... ....
....|..|D#5 .... ....|G-3 .... ....|F-2 .... ....
....|..|--- .... ....|--- .... ....|--- .... ....
....|..|D#5 .... ....|--- .... ....|--- .... ....
....|..|--- .... ....|--- .... ....|--- .... ....
....|..|D-5 .... ....|F-3 .... ....|--- .... ....
....|..|--- .... ....|--- .... ....|--- .... ....
....|..|D#5 .... ....|--- .... ....|C-2 .... ....
....|..|--- .... ....|--- .... ....|--- .... ....
....|..|--- .... ....|--- .... ....|--- .... ....
....|..|--- .... ....|--- .... ....|--- .... ....
....|..|E-5 .... ....|A-3 .... ....|A-1 .... ....
....|..|--- .... ....|--- .... ....|--- .... ....
....|..|--- .... ....|--- .... ....|--- .... ....
....|..|--- .... ....|--- .... ....|--- .... ....
....|..|--- .... ....|E-3 .... ....|R-- .... ....
....|..|--- .... ....|--- .... ....|--- .... ....
....|..|C-5 .... ....|A-3 .... ....|A-2 .... ....
....|..|--- .... ....|--- .... ....|--- .... ....
....|..|--- .... ....|--- .... ....|R-- .... ....
....|..|--- .... ....|--- .... ....|--- .... ....
....|..|--- .... ....|B-3 .... ....|E-2 .... ....
....|..|--- .... ....|--- .... ....|--- .... ....
....|..|--- .... ....|C-4 .... ....|A-2 .... ....
....|..|--- .... ....|--- .... ....|--- .... ....
....|..|--- .... ....|B-3 .... ....|--- .... ....
....|..|--- .... ....|--- .... ....|--- .... ....
....|..|--- .... ....|G#3 .... ....|F-1 .... ....
....|..|--- .... ....|--- .... ....|--- .... ....
....|..|--- .... ....|--- .... ....|--- .... ....
....|..|--- .... ....|--- .... ....|--- .... ....
....|..|--- .... ....|C-3 .... ....|R-- .... ....
....|..|--- .... ....|--- .... ....|--- .... ....
....|..|--- .... ....|G#3 .... ....|F-2 .... ....
....|..|--- .... ....|--- .... ....|--- .... ....
....|..|R-- .... ....|R-- .... ....|--- .... ....
....|..|--- .... ....|--- .... ....|--- .... ....
....|..|--- .... ....|G#3 .... ....|C-2 .... ....
....|..|--- .... ....|--- .... ....|--- .... ....
....|..|E-5 .... ....|F-3 .... ....|F-2 .... ....
....|..|--- .... ....|--- .... ....|--- .... ....
....|..|--- .... ....|--- .... ....|--- .... ....
....|..|--- .... ....|--- .... ....|--- .... ....

[Pattern8]
....|..|D-5 3.1F ....|D-4 4.FC ....|D-2 2.FF ....
....|..|--- .... ....|--- .... ....|--- .... ....
....|..|--- .... ....|A-3 .... ....|--- .... ....
....|..|--- .... ....|--- .... ....|--- .... ....
....|..|--- .... ....|D-4 .... ....|R-- .... ....
....|..|--- .... ....|--- .... ....|--- .... ....
....|..|--- .... ....|E-4 .... ....|D-3 .... ....
....|..|--- .... ....|--- .... ....|--- .... ....
....|..|D-5 .... ....|--- .... ....|--- .... ....
....|..|--- .... ....|--- .... ....|--- .... ....
....|..|E-5 .... ....|D-4 .... ....|--- .... ....
....|..|--- .... ....|--- .... ....|--- .... ....
....|..|D-5 .... ....|--- .... ....|A-2 .... ....
....|..|--- .... ....|--- .... ....|--- .... ....
....|..|F-5 .... ....|--- .... ....|--- .... ....
....|..|--- .... ....|--- .... ....|--- .... ....
....|..|--- .... ....|A#3 .... ....|A#1 .... ....
....|..|--- .... ....|--- .... ....|--- .... ....
....|..|--- .... ....|F-3 .... ....|--- .... ....
....|..|--- .... ....|--- .... ....|--- .... ....
....|..|F-5 .... ....|A#3 .... ....|R-- .... ....
....|..|--- .... ....|--- .... ....|--- .... ....
....|..|F-5 .... ....|C-4 .... ....|A#2 .... ....
....|..|--- .... ....|--- .... ....|--- .... ....
....|..|F-5 .... ....|--- .... ....|--- .... ....
....|..|--- .... ....|--- .... ....|--- .... ....
....|..|G-5 .... ....|A#3 .... ....|--- .... ....
....|..|--- .... ....|--- .... ....|--- .... ....
....|..|F-5 .... ....|--- .... ....|F-2 .... ....
....|..|--- .... ....|--- .... ....|--- .... ....
....|..|E-5 .... ....|--- .... ....|--- .... ....
....|..|--- .... ....|--- .... ....|--- .... ....
....|..|--- .... ....|A-3 .... ....|A-1 .... ....
....|..|--- .... ....|--- .... ....|--- .... ....
....|..|C-5 .... ....|--- .... ....|--- .... ....
....|..|--- .... ....|--- .... ....|--- .... ....
....|..|--- .... ....|E-3 .... ....|R-- .... ....
....|..|--- .... ....|--- .... ....|--- .... ....
....|..|--- .... ....|A-3 .... ....|A-2 .... ....
....|..|--- .... ....|--- .... ....|--- .... ....
....|..|--- .... ....|E-3 .... ....|--- .... ....
....|..|--- .... ....|--- .... ....|--- .... ....
....|..|--- .... ....|A-3 .... ....|E-2 .... ....
....|..|--- .... ....|--- .... ....|--- .... ....
....|..|--- .... ....|B-3 .... ....|A-2 .... ....
....|..|--- .... ....|--- .... ....|--- .... ....
....|..|--- .... ....|C-4 .... ....|--- .... ....
....|..|--- .... ....|--- .... ....|--- .... ....
....|..|--- .... ....|E-4 .... ....|A-1 .... ....
....|..|--- .... ....|--- .... ....|--- .... ....
....|..|--- .... ....|--- .... ....|--- .... ....
....|..|--- .... ....|--- .... ....|--- .... ....
....|..|--- .... ....|A-3 .... ....|R-- .... ....
....|..|--- .... ....|--- .... ....|--- .... ....
....|..|--- .... ....|E-4 .... ....|A-2 .... ....
....|..|--- .... ....|--- .... ....|--- .... ....
....|..|R-- .... ....|R-- .... ....|--- .... ....
....|..|--- .... ....|--- .... ....|--- .... ....
....|..|--- .... ....|E-4 .... ....|E-2 .... ....
....|..|--- .... ....|--- .... ....|--- .... ....
....|..|--- .... ....|A-3 .... ....|A-2 .... ....
....|..|--- .... ....|--- .... ....|--- .... ....
....|..|--- .... ....|--- .... ....|--- .... ....
....|..|--- .... ....|--- .... ....|--- .... ....

[Pattern9]
....|..|D-5 3.1F ....|D-4 4.FC ....|D-2 2.FF ....
....|..|--- .... ....|--- .... ....|--- .... ....
....|..|--- .... ....|A-3 .... ....|--- .... ....
....|..|--- .... ....|--- .... ....|--- .... ....
....|..|D-5 .... ....|D-4 .... ....|R-- .... ....
....|..|--- .... ....|--- .... ....|--- .... ....
....|..|D-5 .... ....|E-4 .... ....|D-3 .... ....
....|..|--- .... ....|--- .... ....|--- .... ....
....|..|D-5 .... ....|--- .... ....|--- .... ....
....|..|--- .... ....|--- .... ....|--- .... ....
....|..|E-5 .... ....|D-4 .... ....|--- .... ....
....|..|--- .... ....|--- .... ....|--- .... ....
....|..|D-5 .... ....|--- .... ....|A-2 .... ....
....|..|--- .... ....|--- .... ....|--- .... ....
....|..|F-5 .... ....|--- .... ....|--- .... ....
....|..|--- .... ....|--- .... ....|--- .... ....
....|..|--- .... ....|A#3 .... ....|A#1 .... ....
....|..|--- .... ....|--- .... ....|--- .... ....
....|..|--- .... ....|F-3 .... ....|--- .... ....
....|..|--- .... ....|--- .... ....|--- .... ....
....|..|F-5 .... ....|A#3 .... ....|R-- .... ....
....|..|--- .... ....|--- .... ....|--- .... ....
....|..|F-5 .... ....|C-4 .... ....|A#2 .... ....
....|..|--- .... ....|--- .... ....|--- .... ....
....|..|F-5 .... ....|--- .... ....|--- .... ....
....|..|--- .... ....|--- .... ....|--- .... ....
....|..|G-5 .... ....|A#3 .... ....|--- .... ....
....|..|--- .... ....|--- .... ....|--- .... ....
....|..|F-5 .... ....|--- .... ....|F-2 .... ....
....|..|--- .... ....|--- .... ....|--- .... ....
....|..|E-5 .... ....|--- .... ....|--- .... ....
....|..|--- .... ....|--- .... ....|--- .... ....
....|..|--- .... ....|B-3 .... ....|E-2 .... ....
....|..|--- .... ....|--- .... ....|--- .... ....
....|..|B-5 .... ....|--- .... ....|--- .... ....
....|..|--- .... ....|--- .... ....|--- .... ....
....|..|--- .... ....|F-3 .... ....|B-2 .... ....
....|..|--- .... ....|--- .... ....|--- .... ....
....|..|B-5 .... ....|B-3 .... ....|E-3 .... ....
....|..|--- .... ....|--- .... ....|--- .... ....
....|..|--- .... ....|--- .... ....|--- .... ....
....|..|--- .... ....|--- .... ....|--- .... ....
....|..|B-5 .... ....|C-4 .... ....|E-2 .... ....
....|..|--- .... ....|--- .... ....|--- .... ....
....|..|--- .... ....|D-4 .... ....|B-2 .... ....
....|..|--- .... ....|--- .... ....|--- .... ....
....|..|--- .... ....|C-4 .... ....|--- .... ....
....|..|--- .... ....|--- .... ....|--- .... ....
....|..|--- .... ....|B-3 .... ....|E-2 .... ....
....|..|--- .... ....|--- .... ....|--- .... ....
....|..|--- .... ....|--- .... ....|--- .... ....
....|..|--- .... ....|--- .... ....|--- .... ....
....|..|--- .... ....|E-3 .... ....|B-2 .... ....
....|..|--- .... ....|--- .... ....|--- .... ....
....|..|--- .... ....|B-3 .... ....|E-3 .... ....
....|..|--- .... ....|--- .... ....|--- .... ....
....|..|--- .... ....|R-- .... ....|--- .... ....
....|..|--- .... ....|--- .... ....|--- .... ....
....|..|--- .... ....|B-3 .... ....|B-2 .... ....
....|..|--- .... ....|--- .... ....|--- .... ....
....|..|C-5 3.FF ....|G#3 .... ....|G#3 .... ....
....|..|C-5 .... ....|--- .... ....|--- .... ....
....|..|B-4 .... ....|--- .... ....|--- .... ....
....|..|--- .... ....|--- .... ....|--- .... ....

[Pattern10]
....|..|C-5 3.FF ....|R-- 6.2F ....|D-1 2.FF ....
....|..|--- .... ....|R-- .... ....|--- .... ....
....|..|A-4 .... ....|--- .... ....|D-2 .... ....
....|..|--- .... ....|--- .... ....|--- .... ....
....|..|--- .... ....|F-4 .... ....|D-1 .... ....
....|..|C-5 .... ....|--- .... ....|--- .... ....
....|..|C-5 .... ....|--- .... ....|D-2 .... ....
....|..|B-4 .... ....|--- .... ....|--- .... ....
....|..|C-5 .... ....|--- .... ....|D-1 .... ....
....|..|--- .... ....|R-- .... ....|--- .... ....
....|..|A-4 .... ....|--- .... ....|D-2 .... ....
....|..|--- .... ....|--- .... ....|--- .... ....
....|..|--- .... ....|F-4 .... ....|D-1 .... ....
....|..|C-5 .... ....|--- .... ....|--- .... ....
....|..|--- .... ....|--- .... ....|D-2 .... ....
....|..|--- .... ....|--- .... ....|--- .... ....
....|..|B-4 .... ....|--- .... ....|E-1 .... ....
....|..|B-4 .... ....|R-- .... ....|--- .... ....
....|..|B-4 .... ....|--- .... ....|E-2 .... ....
....|..|B-4 .... ....|--- .... ....|--- .... ....
....|..|--- .... ....|E-4 .... ....|E-1 .... ....
....|..|B-4 .... ....|--- .... ....|--- .... ....
....|..|B-4 .... ....|--- .... ....|E-2 .... ....
....|..|D-5 .... ....|--- .... ....|--- .... ....
....|..|--- .... ....|--- .... ....|E-1 .... ....
....|..|D-5 .... ....|R-- .... ....|--- .... ....
....|..|D-5 .... ....|--- .... ....|E-2 .... ....
....|..|--- .... ....|--- .... ....|--- .... ....
....|..|D-5 .... ....|E-4 .... ....|E-1 .... ....
....|..|--- .... ....|--- .... ....|--- .... ....
....|..|D-5 .... ....|--- .... ....|E-2 .... ....
....|..|D-5 .... ....|--- .... ....|--- .... ....
....|..|C-5 .... ....|--- .... ....|A-1 .... ....
....|..|--- .... ....|R-- .... ....|--- .... ....
....|..|A-4 .... ....|--- .... ....|A-2 .... ....
....|..|--- .... ....|--- .... ....|--- .... ....
....|..|R-- .... ....|E-4 .... ....|A-1 .... ....
....|..|C-5 .... ....|--- .... ....|--- .... ....
....|..|C-5 .... ....|--- .... ....|A-2 .... ....
....|..|--- .... ....|--- .... ....|--- .... ....
....|..|C-5 .... ....|--- .... ....|G-1 .... ....
....|..|--- .... ....|R-- .... ....|--- .... ....
....|..|A-4 .... ....|--- .... ....|G-2 .... ....
....|..|--- .... ....|--- .... ....|--- .... ....
....|..|R-- .... ....|D-4 .... ....|G-1 .... ....
....|..|--- .... ....|--- .... ....|--- .... ....
....|..|--- .... ....|--- .... ....|G-2 .... ....
....|..|--- .... ....|--- .... ....|--- .... ....
....|..|C-5 .... ....|--- .... ....|F-1 .... ....
....|..|C-5 .... ....|R-- .... ....|--- .... ....
....|..|C-5 .... ....|--- .... ....|F-2 .... ....
....|..|C-5 .... ....|--- .... ....|--- .... ....
....|..|--- .... ....|D-4 .... ....|F-1 .... ....
....|..|C-5 .... ....|--- .... ....|--- .... ....
....|..|C-5 .... ....|--- .... ....|F-2 .... ....
....|..|C-5 .... ....|--- .... ....|--- .... ....
....|..|C-5 .... ....|--- .... ....|F-1 .... ....
....|..|--- .... ....|R-- .... ....|--- .... ....
....|..|C-5 .... ....|--- .... ....|F-2 .... ....
....|..|C-5 .... ....|--- .... ....|--- .... ....
....|..|C-5 .... ....|D-4 .... ....|F-1 .... ....
....|..|--- .... ....|--- .... ....|--- .... ....
....|..|C-5 .... ....|--- .... ....|F-2 .... ....
....|..|A-4 .... ....|--- .... ....|--- .... ....

[Pattern11]
....|..|C-5 .... ....|--- 2.2F ....|D-1 2.FF ....
....|..|--- .... ....|R-- .... ....|--- .... ....
....|..|A-4 .... ....|--- .... ....|D-2 .... ....
....|..|--- .... ....|--- .... ....|--- .... ....
....|..|R-- .... ....|F-4 ...F ....|D-1 .... ....
....|..|--- .... ....|--- .... ....|--- .... ....
....|..|C-5 .... ....|--- .... ....|D-2 .... ....
....|..|--- .... ....|--- .... ....|--- .... ....
....|..|C-5 .... ....|--- .... ....|D-1 .... ....
....|..|--- .... ....|R-- .... ....|--- .... ....
....|..|A-4 .... ....|--- .... ....|D-2 .... ....
....|..|--- .... ....|--- .... ....|--- .... ....
....|..|R-- .... ....|F-4 .... ....|D-1 .... ....
....|..|--- .... ....|--- .... ....|--- .... ....
....|..|F-4 .... ....|--- .... ....|D-2 .... ....
....|..|--- .... ....|--- .... ....|--- .... ....
....|..|E-4 .... ....|--- .... ....|E-1 .... ....
....|..|--- .... ....|R-- .... ....|--- .... ....
....|..|E-4 .... ....|--- .... ....|E-2 .... ....
....|..|--- .... ....|--- .... ....|--- .... ....
....|..|E-4 .... ....|E-4 .... ....|E-1 .... ....
....|..|--- .... ....|--- .... ....|--- .... ....
....|..|D-5 .... ....|--- .... ....|E-2 .... ....
....|..|--- .... ....|--- .... ....|--- .... ....
....|..|--- .... ....|--- .... ....|E-1 .... ....
....|..|--- .... ....|R-- .... ....|--- .... ....
....|..|C-5 .... ....|--- .... ....|E-2 .... ....
....|..|--- .... ....|--- .... ....|--- .... ....
....|..|B-4 .... ....|E-4 .... ....|E-1 .... ....
....|..|--- .... ....|--- .... ....|--- .... ....
....|..|A-4 .... ....|--- .... ....|E-2 .... ....
....|..|--- .... ....|--- .... ....|--- .... ....
....|..|--- .... ....|--- .... ....|F-1 .... ....
....|..|--- .... ....|R-- .... ....|--- .... ....
....|..|--- .... ....|--- .... ....|F-2 .... ....
....|..|--- .... ....|--- .... ....|--- .... ....
....|..|--- .... ....|E-4 .... ....|F-1 .... ....
....|..|--- .... ....|--- .... ....|--- .... ....
....|..|--- .... ....|--- .... ....|F-2 .... ....
....|..|--- .... ....|--- .... ....|--- .... ....
....|..|R-- .... ....|--- .... ....|F-1 .... ....
....|..|--- .... ....|R-- .... ....|--- .... ....
....|..|E-4 .... ....|--- .... ....|F-2 .... ....
....|..|--- .... ....|--- .... ....|--- .... ....
....|..|D-4 .... ....|D-4 .... ....|F-1 .... ....
....|..|--- .... ....|--- .... ....|--- .... ....
....|..|E-4 .... ....|--- .... ....|F-2 .... ....
....|..|--- .... ....|--- .... ....|--- .... ....
....|..|--- .... ....|--- .... ....|E-1 .... ....
....|..|--- .... ....|R-- .... ....|--- .... ....
....|..|--- .... ....|--- .... ....|E-2 .... ....
....|..|--- .... ....|--- .... ....|--- .... ....
....|..|--- .... ....|D-4 .... ....|E-1 .... ....
....|..|--- .... ....|--- .... ....|--- .... ....
....|..|--- .... ....|--- .... ....|E-2 .... ....
....|..|--- .... ....|--- .... ....|--- .... ....
....|..|--- .... ....|--- .... ....|E-1 .... ....
....|..|--- .... ....|R-- .... ....|--- .... ....
....|..|--- .... ....|--- .... ....|E-2 .... ....
....|..|--- .... ....|--- .... ....|--- .... ....
....|..|R-- .... ....|D-4 .... ....|E-1 .... ....
....|..|C-5 .... ....|--- .... ....|--- .... ....
....|..|C-5 .... ....|--- .... ....|E-2 .... ....
....|..|B-4 .... ....|--- .... ....|--- .... ....

[Pattern12]
....|..|C-5 .... ....|--- .... ....|D-1 2.FF ....
....|..|--- .... ....|R-- .... ....|--- .... ....
....|..|A-4 .... ....|--- .... ....|D-2 .... ....
....|..|--- .... ....|--- .... ....|--- .... ....
....|..|R-- .... ....|F-4 .... ....|D-1 .... ....
....|..|C-5 .... ....|--- .... ....|--- .... ....
....|..|C-5 .... ....|--- .... ....|D-2 .... ....
....|..|B-4 .... ....|--- .... ....|--- .... ....
....|..|C-5 .... ....|--- .... ....|D-1 .... ....
....|..|--- .... ....|R-- .... ....|--- .... ....
....|..|A-4 .... ....|--- .... ....|D-2 .... ....
....|..|--- .... ....|--- .... ....|--- .... ....
....|..|R-- .... ....|F-4 .... ....|D-1 .... ....
....|..|C-5 .... ....|--- .... ....|--- .... ....
....|..|--- .... ....|--- .... ....|D-2 .... ....
....|..|C-5 .... ....|--- .... ....|--- .... ....
....|..|B-4 .... ....|--- .... ....|E-1 .... ....
....|..|B-4 .... ....|R-- .... ....|--- .... ....
....|..|B-4 .... ....|--- .... ....|E-2 .... ....
....|..|B-4 .... ....|--- .... ....|--- .... ....
....|..|R-- .... ....|E-4 .... ....|E-1 .... ....
....|..|B-4 .... ....|--- .... ....|--- .... ....
....|..|--- .... ....|--- .... ....|E-2 .... ....
....|..|B-4 .... ....|--- .... ....|--- .... ....
....|..|--- .... ....|--- .... ....|E-1 .... ....
....|..|B-4 .... ....|R-- .... ....|--- .... ....
....|..|B-4 .... ....|--- .... ....|E-2 .... ....
....|..|--- .... ....|--- .... ....|--- .... ....
....|..|B-4 .... ....|E-4 .... ....|E-1 .... ....
....|..|--- .... ....|--- .... ....|--- .... ....
....|..|B-4 .... ....|--- .... ....|E-2 .... ....
....|..|B-4 .... ....|--- .... ....|--- .... ....
....|..|C-5 .... ....|--- .... ....|A-1 .... ....
....|..|--- .... ....|R-- .... ....|--- .... ....
....|..|A-4 .... ....|--- .... ....|A-2 .... ....
....|..|--- .... ....|--- .... ....|--- .... ....
....|..|R-- .... ....|E-4 .... ....|A-1 .... ....
....|..|--- .... ....|--- .... ....|--- .... ....
....|..|C-5 .... ....|--- .... ....|A-2 .... ....
....|..|C-5 .... ....|--- .... ....|--- .... ....
....|..|C-5 .... ....|--- .... ....|G-1 .... ....
....|..|--- .... ....|R-- .... ....|--- .... ....
....|..|C-5 .... ....|--- .... ....|G-2 .... ....
....|..|--- .... ....|--- .... ....|--- .... ....
....|..|R-- .... ....|D-4 .... ....|G-1 .... ....
....|..|C-5 .... ....|--- .... ....|--- .... ....
....|..|--- .... ....|--- .... ....|G-2 .... ....
....|..|C-5 .... ....|--- .... ....|--- .... ....
....|..|E-5 .... ....|--- .... ....|F-1 .... ....
....|..|E-5 .... ....|R-- .... ....|--- .... ....
....|..|--- .... ....|--- .... ....|F-2 .... ....
....|..|E-5 .... ....|--- .... ....|--- .... ....
....|..|--- .... ....|D-4 .... ....|F-1 .... ....
....|..|--- .... ....|--- .... ....|--- .... ....
....|..|--- .... ....|--- .... ....|F-2 .... ....
....|..|E-5 .... ....|--- .... ....|--- .... ....
....|..|--- .... ....|--- .... ....|F-1 .... ....
....|..|E-5 .... ....|R-- .... ....|--- .... ....
....|..|E-5 .... ....|--- .... ....|F-2 .... ....
....|..|--- .... ....|--- .... ....|--- .... ....
....|..|D-5 .... ....|D-4 .... ....|F-1 .... ....
....|..|--- .... ....|--- .... ....|--- .... ....
....|..|C-5 .... ....|--- .... ....|F-2 .... ....
....|..|C-5 .... ....|--- .... ....|--- .... ....

[Pattern13]
....|..|C-5 .... ....|--- .... ....|D-1 2.FF ....
....|..|--- .... ....|R-- .... ....|--- .... ....
....|..|A-4 .... ....|--- .... ....|D-2 .... ....
....|..|--- .... ....|--- .... ....|--- .... ....
....|..|--- .... ....|F-4 .... ....|D-1 .... ....
....|..|--- .... ....|--- .... ....|--- .... ....
....|..|C-5 .... ....|--- .... ....|D-2 .... ....
....|..|--- .... ....|--- .... ....|--- .... ....
....|..|C-5 .... ....|--- .... ....|D-1 .... ....
....|..|--- .... ....|R-- .... ....|--- .... ....
....|..|A-4 .... ....|--- .... ....|D-2 .... ....
....|..|--- .... ....|--- .... ....|--- .... ....
....|..|--- .... ....|F-4 .... ....|D-1 .... ....
....|..|--- .... ....|--- .... ....|--- .... ....
....|..|F-4 .... ....|--- .... ....|D-2 .... ....
....|..|--- .... ....|--- .... ....|--- .... ....
....|..|E-4 .... ....|--- .... ....|E-1 .... ....
....|..|--- .... ....|R-- .... ....|--- .... ....
....|..|E-4 .... ....|--- .... ....|E-2 .... ....
....|..|--- .... ....|--- .... ....|--- .... ....
....|..|E-4 .... ....|E-4 .... ....|E-1 .... ....
....|..|--- .... ....|--- .... ....|--- .... ....
....|..|D-5 .... ....|--- .... ....|E-2 .... ....
....|..|--- .... ....|--- .... ....|--- .... ....
....|..|--- .... ....|--- .... ....|E-1 .... ....
....|..|--- .... ....|R-- .... ....|--- .... ....
....|..|C-5 .... ....|--- .... ....|E-2 .... ....
....|..|--- .... ....|--- .... ....|--- .... ....
....|..|E-5 .... ....|E-4 .... ....|E-1 .... ....
....|..|--- .... ....|--- .... ....|--- .... ....
....|..|E-5 .... ....|--- .... ....|E-2 .... ....
....|..|--- .... ....|--- .... ....|--- .... ....
....|..|--- .... ....|--- .... ....|F-1 .... ....
....|..|--- .... ....|R-- .... ....|--- .... ....
....|..|--- .... ....|--- .... ....|F-2 .... ....
....|..|--- .... ....|--- .... ....|--- .... ....
....|..|--- .... ....|E-4 .... ....|F-1 .... ....
....|..|--- .... ....|--- .... ....|--- .... ....
....|..|--- .... ....|--- .... ....|F-2 .... ....
....|..|--- .... ....|--- .... ....|--- .... ....
....|..|R-- .... ....|--- .... ....|F-1 .... ....
....|..|--- .... ....|R-- .... ....|--- .... ....
....|..|E-5 .... ....|--- .... ....|F-2 .... ....
....|..|--- .... ....|--- .... ....|--- .... ....
....|..|E-5 .... ....|D-4 .... ....|F-1 .... ....
....|..|--- .... ....|--- .... ....|--- .... ....
....|..|E-5 .... ....|--- .... ....|F-2 .... ....
....|..|--- .... ....|--- .... ....|--- .... ....
....|..|--- .... ....|--- .... ....|E-1 .... ....
....|..|--- .... ....|R-- .... ....|--- .... ....
....|..|D-5 .... ....|--- .... ....|E-2 .... ....
....|..|--- .... ....|--- .... ....|--- .... ....
....|..|C-5 .... ....|D-4 .... ....|E-1 .... ....
....|..|--- .... ....|--- .... ....|--- .... ....
....|..|B-4 .... ....|--- .... ....|E-2 .... ....
....|..|--- .... ....|--- .... ....|--- .... ....
....|..|--- .... ....|--- .... ....|E-1 .... ....
....|..|--- .... ....|R-- .... ....|--- .... ....
....|..|--- .... ....|--- .... ....|E-2 .... ....
....|..|--- .... ....|--- .... ....|--- .... ....
....|..|--- .... ....|D-4 .... ....|E-1 .... ....
....|..|--- .... ....|--- .... ....|--- .... ....
....|..|--- .... ....|--- .... ....|E-2 .... ....
....|..|--- .... ....|--- .... ....|--- .... ....

[Pattern14]
....|..|R-- .... ....|--- .... ...A|E-1 .... ....
....|..|--- .... ....|R-- .... ....|--- .... ....
....|..|--- .... ....|--- .... ....|--- .... ....
....|..|--- .... ....|--- .... ....|--- .... ....
....|..|--- .... ....|F-4 .... ....|--- .... ....
....|..|--- .... ....|--- .... ....|--- .... ....
....|..|--- .... ....|--- .... ....|--- .... ....
....|..|--- .... ....|--- .... ....|--- .... ....
....|..|--- .... ....|--- .... ....|--- .... ....
....|..|--- .... ....|R-- .... ....|--- .... ....
....|..|--- .... ....|--- .... ....|--- .... ....
....|..|--- .... ....|--- .... ....|--- .... ....
....|..|--- .... ....|--- .... ....|--- .... ....
....|..|--- .... ....|--- .... ....|--- .... ....
....|..|--- .... ....|--- .... ....|--- .... ....
....|..|--- .... ....|--- .... ....|--- .... ....
....|..|--- .... ....|R-- 4.FB ....|F-1 .... ....
....|..|--- .... ....|--- .... ....|--- .... ....
....|..|--- .... ....|C-4 .... ....|--- .... ....
....|..|--- .... ....|--- .... ....|--- .... ....
....|..|--- .... ....|F-4 .... ....|--- .... ....
....|..|--- .... ....|--- .... ....|--- .... ....
....|..|--- .... ....|C-5 .... ....|--- .... ....
....|..|--- .... ....|--- .... ....|--- .... ....
....|..|--- .... ....|--- .... ....|--- .... ....
....|..|--- .... ....|--- .... ....|--- .... ....
....|..|--- .... ....|B-4 .... ....|--- .... ....
....|..|--- .... ....|--- .... ....|--- .... ....
....|..|--- .... ....|--- .... ....|--- .... ....
....|..|--- .... ....|--- .... ....|--- .... ....
....|..|--- .... ....|--- .... ....|--- .... ....
....|..|--- .... ....|--- .... ....|--- .... ....
....|..|--- .... ....|--- .... ....|--- .... ....
....|..|--- .... ....|--- .... ....|--- .... ....
....|..|--- .... ....|--- .... ....|--- .... ....
....|..|--- .... ....|--- .... ....|--- .... ....
....|..|--- .... ....|--- .... ....|--- .... ....
....|..|--- .... ....|--- .... ....|--- .... ....
....|..|--- .... ....|--- .... ....|--- .... ....
....|..|--- .... ....|--- .... ....|--- .... ....
....|..|--- .... ....|--- .... ....|--- .... ....
....|..|--- .... ....|--- .... ....|--- .... ....
....|..|--- .... ....|--- .... ....|--- .... ....
....|..|--- .... ....|--- .... ....|--- .... ....
....|..|--- .... ....|--- .... ....|--- .... ....
....|..|--- .... ....|--- .... ....|--- .... ....
....|..|--- .... ....|--- .... ....|--- .... ....
....|..|--- .... ....|--- .... ....|--- .... ....
....|..|--- .... ....|--- .... ....|--- .... ....
....|..|--- .... ....|--- .... ....|--- .... ....
....|..|--- .... ....|--- .... ....|--- .... ....
....|..|--- .... ....|--- .... ....|--- .... ....
....|..|--- .... ....|--- .... ....|--- .... ....
....|..|--- .... ....|--- .... ....|--- .... ....
....|..|--- .... ....|--- .... ....|--- .... ....
....|..|--- .... ....|--- .... ....|--- .... ....
....|..|--- .... ....|--- .... ....|--- .... ....
....|..|--- .... ....|--- .... ....|--- .... ....
....|..|--- .... ....|--- .... ....|--- .... ....
....|..|--- .... ....|--- .... ....|--- .... ....
....|..|--- .... ....|--- .... ....|--- .... ....
....|..|--- .... ....|--- .... ....|--- .... ....
....|..|--- .... ....|--- .... ....|--- .... ....
....|..|--- .... ....|--- .... ....|--- .... ....

[Pattern15]
....|..|R-- .... ....|R-- 4.FC ....|E-2 2.FF ....
....|..|--- .... ....|--- .... ....|--- .... ....
....|..|--- .... ....|B-3 .... ....|--- .... ....
....|..|--- .... ....|--- .... ....|--- .... ....
....|..|--- .... ....|E-4 .... ....|--- .... ....
....|..|--- .... ....|--- .... ....|--- .... ....
....|..|--- .... ....|A-4 .... ....|--- .... ....
....|..|--- .... ....|--- .... ....|--- .... ....
....|..|--- .... ....|--- .... ....|--- .... ....
....|..|--- .... ....|--- .... ....|--- .... ....
....|..|--- .... ....|G#4 .... ....|--- .... ....
....|..|--- .... ....|--- .... ....|--- .... ....
....|..|--- .... ....|--- .... ....|--- .... ....
....|..|--- .... ....|--- .... ....|--- .... ....
....|..|--- .... ....|--- .... ....|--- .... ....
....|..|--- .... ....|--- .... ....|--- .... ....
....|..|--- .... ....|R-- .... ....|F-2 .... ....
....|..|--- .... ....|--- .... ....|--- .... ....
....|..|--- .... ....|C-4 .... ....|--- .... ....
....|..|--- .... ....|--- .... ....|--- .... ....
....|..|--- .... ....|F-4 .... ....|--- .... ....
....|..|--- .... ....|--- .... ....|--- .... ....
....|..|--- .... ....|C-5 .... ....|--- .... ....
....|..|--- .... ....|--- .... ....|--- .... ....
....|..|--- .... ....|--- .... ....|--- .... ....
....|..|--- .... ....|--- .... ....|--- .... ....
....|..|--- .... ....|B-4 .... ....|--- .... ....
....|..|--- .... ....|--- .... ....|--- .... ....
....|..|--- .... ....|--- .... ....|--- .... ....
....|..|--- .... ....|--- .... ....|--- .... ....
....|..|--- .... ....|--- .... ....|--- .... ....
....|..|--- .... ....|--- .... ....|--- .... ....
....|..|--- .... ....|R-- .... ....|B-1 .... ....
....|..|--- .... ....|--- .... ....|--- .... ....
....|..|--- .... ....|B-3 .... ....|--- .... ....
....|..|--- .... ....|--- .... ....|--- .... ....
....|..|--- .... ....|D#4 .... ....|--- .... ....
....|..|--- .... ....|--- .... ....|--- .... ....
....|..|--- .... ....|G-4 .... ....|--- .... ....
....|..|--- .... ....|--- .... ....|--- .... ....
....|..|--- .... ....|--- .... ....|--- .... ....
....|..|--- .... ....|--- .... ....|--- .... ....
....|..|--- .... ....|F#4 .... ....|--- .... ....
....|..|--- .... ....|--- .... ....|--- .... ....
....|..|--- .... ....|--- .... ....|--- .... ....
....|..|--- .... ....|--- .... ....|--- .... ....
....|..|--- .... ....|--- .... ....|--- .... ....
....|..|--- .... ....|--- .... ....|--- .... ....
....|..|--- .... ....|R-- .... ....|B-1 .... ....
....|..|--- .... ....|--- .... ....|--- .... ....
....|..|--- .... ....|D#4 .... ....|--- .... ....
....|..|--- .... ....|--- .... ....|--- .... ....
....|..|--- .... ....|F#4 .... ....|--- .... ....
....|..|--- .... ....|--- .... ....|--- .... ....
....|..|--- .... ....|C-5 .... ....|--- .... ....
....|..|--- .... ....|--- .... ....|--- .... ....
....|..|--- .... ....|--- .... ....|--- .... ....
....|..|--- .... ....|--- .... ....|--- .... ....
....|..|--- .... ....|B-4 .... ....|--- .... ....
....|..|--- .... ....|--- .... ....|--- .... ....
....|..|--- .... ....|--- .... ....|--- .... ....
....|..|--- .... ....|--- .... ....|--- .... ....
....|..|--- .... ....|--- .... ....|--- .... ....
....|..|--- .... ....|--- .... ....|--- .... ....

[Pattern16]
....|..|B-4 3.1F ....|E-4 4.FC ....|E-1 2.FF ....
....|..|--- .... ....|--- .... ....|--- .... ....
....|..|--- .... ....|--- .... ....|E-2 .... ....
....|..|--- .... ....|--- .... ....|--- .... ....
....|..|B-4 .... ....|B-3 .... ....|--- .... ....
....|..|--- .... ....|--- .... ....|--- .... ....
....|..|B-4 .... ....|G-4 .... ....|--- .... ....
....|..|--- .... ....|--- .... ....|--- .... ....
....|..|B-4 .... ....|--- .... ....|R-- .... ....
....|..|--- .... ....|--- .... ....|--- .... ....
....|..|A-4 .... ....|F-4 .... ....|--- .... ....
....|..|--- .... ....|--- .... ....|--- .... ....
....|..|G-4 .... ....|--- .... ....|--- .... ....
....|..|--- .... ....|--- .... ....|--- .... ....
....|..|A#4 .... ....|--- .... ....|--- .... ....
....|..|--- .... ....|--- .... ....|--- .... ....
....|..|--- .... ....|D#4 .... ....|C-1 .... ....
....|..|--- .... ....|--- .... ....|--- .... ....
....|..|--- .... ....|--- .... ....|C-2 .... ....
....|..|--- .... ....|--- .... ....|--- .... ....
....|..|R-- .... ....|C-4 .... ....|--- .... ....
....|..|--- .... ....|--- .... ....|--- .... ....
....|..|A#4 .... ....|G-4 .... ....|--- .... ....
....|..|--- .... ....|--- .... ....|--- .... ....
....|..|A#4 .... ....|--- .... ....|R-- .... ....
....|..|--- .... ....|--- .... ....|--- .... ....
....|..|A-4 .... ....|D#4 .... ....|--- .... ....
....|..|--- .... ....|--- .... ....|--- .... ....
....|..|A#4 .... ....|--- .... ....|--- .... ....
....|..|--- .... ....|--- .... ....|--- .... ....
....|..|--- .... ....|--- .... ....|--- .... ....
....|..|--- .... ....|--- .... ....|--- .... ....
....|..|B-4 .... ....|E-4 .... ....|E-1 .... ....
....|..|--- .... ....|--- .... ....|--- .... ....
....|..|--- .... ....|--- .... ....|--- .... ....
....|..|--- .... ....|--- .... ....|--- .... ....
....|..|--- .... ....|B-3 .... ....|E-2 .... ....
....|..|--- .... ....|--- .... ....|--- .... ....
....|..|G-4 .... ....|E-4 .... ....|--- .... ....
....|..|--- .... ....|--- .... ....|--- .... ....
....|..|--- .... ....|--- .... ....|--- .... ....
....|..|--- .... ....|--- .... ....|--- .... ....
....|..|--- .... ....|F#4 .... ....|E-1 .... ....
....|..|--- .... ....|--- .... ....|--- .... ....
....|..|--- .... ....|G-4 .... ....|--- .... ....
....|..|--- .... ....|--- .... ....|--- .... ....
....|..|--- .... ....|F#4 .... ....|--- .... ....
....|..|--- .... ....|--- .... ....|--- .... ....
....|..|--- .... ....|D#4 .... ....|C-1 .... ....
....|..|--- .... ....|--- .... ....|--- .... ....
....|..|--- .... ....|--- .... ....|--- .... ....
....|..|--- .... ....|--- .... ....|--- .... ....
....|..|--- .... ....|R-- .... ....|C-2 .... ....
....|..|--- .... ....|--- .... ....|--- .... ....
....|..|--- .... ....|D#4 .... ....|--- .... ....
....|..|--- .... ....|--- .... ....|--- .... ....
....|..|R-- .... ....|R-- .... ....|--- .... ....
....|..|--- .... ....|--- .... ....|--- .... ....
....|..|--- .... ....|D#4 .... ....|C-1 .... ....
....|..|--- .... ....|--- .... ....|--- .... ....
....|..|--- .... ....|C-4 .... ....|--- .... ....
....|..|--- .... ....|--- .... ....|--- .... ....
....|..|--- .... ....|--- .... ....|--- .... ....
....|..|--- .... ....|--- .... ....|--- .... ....

[Pattern17]
....|..|B-4 .... ....|E-4 4.FC ....|E-1 2.FF ....
....|..|--- .... ....|--- .... ....|--- .... ....
....|..|--- .... ....|--- .... ....|E-2 .... ....
....|..|--- .... ....|--- .... ....|--- .... ....
....|..|B-4 .... ....|B-3 .... ....|--- .... ....
....|..|--- .... ....|--- .... ....|--- .... ....
....|..|B-4 .... ....|G-4 .... ....|--- .... ....
....|..|--- .... ....|--- .... ....|--- .... ....
....|..|B-4 .... ....|--- .... ....|R-- .... ....
....|..|--- .... ....|--- .... ....|--- .... ....
....|..|A-4 .... ....|E-4 .... ....|--- .... ....
....|..|--- .... ....|--- .... ....|--- .... ....
....|..|G-4 .... ....|--- .... ....|--- .... ....
....|..|--- .... ....|--- .... ....|--- .... ....
....|..|A#4 .... ....|--- .... ....|--- .... ....
....|..|--- .... ....|--- .... ....|--- .... ....
....|..|--- .... ....|D#4 .... ....|C-1 .... ....
....|..|--- .... ....|--- .... ....|--- .... ....
....|..|--- .... ....|--- .... ....|C-2 .... ....
....|..|--- .... ....|--- .... ....|--- .... ....
....|..|A#4 .... ....|C-4 .... ....|--- .... ....
....|..|--- .... ....|--- .... ....|--- .... ....
....|..|A#4 .... ....|G-4 .... ....|--- .... ....
....|..|--- .... ....|--- .... ....|--- .... ....
....|..|A#4 .... ....|--- .... ....|R-- .... ....
....|..|--- .... ....|--- .... ....|--- .... ....
....|..|A-4 .... ....|D#4 .... ....|--- .... ....
....|..|--- .... ....|--- .... ....|--- .... ....
....|..|A#4 .... ....|--- .... ....|--- .... ....
....|..|--- .... ....|--- .... ....|--- .... ....
....|..|--- .... ....|--- .... ....|--- .... ....
....|..|--- .... ....|--- .... ....|--- .... ....
....|..|F#4 .... ....|E-4 .... ....|E-1 .... ....
....|..|--- .... ....|--- .... ....|--- .... ....
....|..|--- .... ....|--- .... ....|--- .... ....
....|..|--- .... ....|--- .... ....|--- .... ....
....|..|--- .... ....|B-3 .... ....|E-2 .... ....
....|..|--- .... ....|--- .... ....|--- .... ....
....|..|G-4 .... ....|E-4 .... ....|--- .... ....
....|..|--- .... ....|--- .... ....|--- .... ....
....|..|--- .... ....|--- .... ....|--- .... ....
....|..|--- .... ....|--- .... ....|--- .... ....
....|..|--- .... ....|F#4 .... ....|E-1 .... ....
....|..|--- .... ....|--- .... ....|--- .... ....
....|..|--- .... ....|G-4 .... ....|--- .... ....
....|..|--- .... ....|--- .... ....|--- .... ....
....|..|--- .... ....|F#4 .... ....|--- .... ....
....|..|--- .... ....|--- .... ....|--- .... ....
....|..|--- .... ....|D#4 .... ....|C-1 .... ....
....|..|--- .... ....|--- .... ....|--- .... ....
....|..|--- .... ....|--- .... ....|--- .... ....
....|..|--- .... ....|--- .... ....|--- .... ....
....|..|--- .... ....|R-- .... ....|--- .... ....
....|..|--- .... ....|--- .... ....|--- .... ....
....|..|--- .... ....|D#4 .... ....|C-2 .... ....
....|..|--- .... ....|--- .... ....|--- .... ....
....|..|R-- .... ....|R-- .... ....|--- .... ....
....|..|--- .... ....|--- .... ....|--- .... ....
....|..|--- .... ....|D#4 .... ....|C-1 .... ....
....|..|--- .... ....|--- .... ....|--- .... ....
....|..|--- .... ....|C-4 .... ....|--- .... ....
....|..|--- .... ....|--- .... ....|--- .... ....
....|..|--- .... ....|--- .... ....|--- .... ....
....|..|--- .... ....|--- .... ....|--- .... ....

[Pattern18]
....|..|A-4 .... ....|A-3 .... ....|A-1 2.FF ....
....|..|--- .... ....|--- .... ....|--- .... ....
....|..|--- .... ....|--- .... ....|A-2 .... ....
....|..|--- .... ....|--- .... ....|--- .... ....
....|..|A-4 .... ....|E-3 .... ....|--- .... ....
....|..|--- .... ....|--- .... ....|--- .... ....
....|..|A-4 .... ....|C-4 .... ....|--- .... ....
....|..|--- .... ....|--- .... ....|--- .... ....
....|..|A-4 .... ....|--- .... ....|R-- .... ....
....|..|--- .... ....|--- .... ....|--- .... ....
....|..|B-4 .... ....|E-3 .... ....|--- .... ....
....|..|--- .... ....|--- .... ....|--- .... ....
....|..|A-4 .... ....|--- .... ....|--- .... ....
....|..|--- .... ....|--- .... ....|--- .... ....
....|..|C-5 .... ....|--- .... ....|--- .... ....
....|..|--- .... ....|--- .... ....|--- .... ....
....|..|--- .... ....|G#3 .... ....|F-1 .... ....
....|..|--- .... ....|--- .... ....|--- .... ....
....|..|--- .... ....|--- .... ....|F-2 .... ....
....|..|--- .... ....|--- .... ....|--- .... ....
....|..|R-- .... ....|F-3 .... ....|--- .... ....
....|..|--- .... ....|--- .... ....|--- .... ....
....|..|C-5 .... ....|D-4 .... ....|--- .... ....
....|..|--- .... ....|--- .... ....|--- .... ....
....|..|C-5 .... ....|--- .... ....|R-- .... ....
....|..|--- .... ....|--- .... ....|--- .... ....
....|..|D-5 .... ....|C-4 .... ....|--- .... ....
....|..|--- .... ....|--- .... ....|--- .... ....
....|..|C-5 .... ....|--- .... ....|--- .... ....
....|..|--- .... ....|--- .... ....|--- .... ....
....|..|C-5 .... ....|--- .... ....|--- .... ....
....|..|--- .... ....|--- .... ....|--- .... ....
....|..|--- .... ....|A-3 .... ....|A-1 .... ....
....|..|--- .... ....|--- .... ....|--- .... ....
....|..|--- .... ....|--- .... ....|--- .... ....
....|..|--- .... ....|--- .... ....|--- .... ....
....|..|A-4 .... ....|F-3 .... ....|A-2 .... ....
....|..|--- .... ....|--- .... ....|--- .... ....
....|..|--- .... ....|A-3 .... ....|--- .... ....
....|..|--- .... ....|--- .... ....|--- .... ....
....|..|--- .... ....|--- .... ....|--- .... ....
....|..|--- .... ....|--- .... ....|--- .... ....
....|..|--- .... ....|B-3 .... ....|A-1 .... ....
....|..|--- .... ....|--- .... ....|--- .... ....
....|..|--- .... ....|C-4 .... ....|--- .... ....
....|..|--- .... ....|--- .... ....|--- .... ....
....|..|--- .... ....|B-3 .... ....|--- .... ....
....|..|--- .... ....|--- .... ....|--- .... ....
....|..|--- .... ....|G#3 .... ....|F-1 .... ....
....|..|--- .... ....|--- .... ....|--- .... ....
....|..|--- .... ....|--- .... ....|--- .... ....
....|..|--- .... ....|--- .... ....|--- .... ....
....|..|--- .... ....|C-3 .... ....|F-2 .... ....
....|..|--- .... ....|--- .... ....|--- .... ....
....|..|--- .... ....|G#3 .... ....|--- .... ....
....|..|--- .... ....|--- .... ....|--- .... ....
....|..|R-- .... ....|--- .... ....|--- .... ....
....|..|--- .... ....|--- .... ....|--- .... ....
....|..|--- .... ....|C-3 .... ....|F-1 .... ....
....|..|--- .... ....|--- .... ....|--- .... ....
....|..|--- .... ....|F-3 .... ....|--- .... ....
....|..|--- .... ....|--- .... ....|--- .... ....
....|..|--- .... ....|--- .... ....|--- .... ....
....|..|--- .... ....|--- .... ....|--- .... ....

[Pattern19]
....|..|A-4 .... ....|A-3 .... ....|A-1 2.FF ....
....|..|--- .... ....|--- .... ....|--- .... ....
....|..|--- .... ....|--- .... ....|A-2 .... ....
....|..|--- .... ....|--- .... ....|--- .... ....
....|..|A-4 .... ....|E-3 .... ....|--- .... ....
....|..|--- .... ....|--- .... ....|--- .... ....
....|..|A-4 .... ....|C-4 .... ....|--- .... ....
....|..|--- .... ....|--- .... ....|--- .... ....
....|..|A-4 .... ....|--- .... ....|R-- .... ....
....|..|--- .... ....|--- .... ....|--- .... ....
....|..|B-4 .... ....|A-3 .... ....|--- .... ....
....|..|--- .... ....|--- .... ....|--- .... ....
....|..|A-4 .... ....|--- .... ....|--- .... ....
....|..|--- .... ....|--- .... ....|--- .... ....
....|..|C-5 .... ....|--- .... ....|--- .... ....
....|..|--- .... ....|--- .... ....|--- .... ....
....|..|--- .... ....|G#3 .... ....|F-1 .... ....
....|..|--- .... ....|--- .... ....|--- .... ....
....|..|--- .... ....|--- .... ....|F-2 .... ....
....|..|--- .... ....|--- .... ....|--- .... ....
....|..|C-5 .... ....|F-3 .... ....|--- .... ....
....|..|--- .... ....|--- .... ....|--- .... ....
....|..|C-5 .... ....|D-4 .... ....|--- .... ....
....|..|--- .... ....|--- .... ....|--- .... ....
....|..|C-5 .... ....|--- .... ....|R-- .... ....
....|..|--- .... ....|--- .... ....|--- .... ....
....|..|D-5 .... ....|C-4 .... ....|--- .... ....
....|..|--- .... ....|--- .... ....|--- .... ....
....|..|C-5 .... ....|--- .... ....|--- .... ....
....|..|--- .... ....|--- .... ....|--- .... ....
....|..|C-5 .... ....|--- .... ....|--- .... ....
....|..|--- .... ....|--- .... ....|--- .... ....
....|..|--- .... ....|B-3 .... ....|E-2 .... ....
....|..|--- .... ....|--- .... ....|--- .... ....
....|..|B-4 .... ....|--- .... ....|--- .... ....
....|..|--- .... ....|--- .... ....|--- .... ....
....|..|--- .... ....|E-3 .... ....|R-- .... ....
....|..|--- .... ....|--- .... ....|--- .... ....
....|..|--- .... ....|B-3 .... ....|E-2 .... ....
....|..|--- .... ....|--- .... ....|--- .... ....
....|..|--- .... ....|--- .... ....|--- .... ....
....|..|--- .... ....|--- .... ....|--- .... ....
....|..|--- .... ....|C-4 .... ....|--- .... ....
....|..|--- .... ....|--- .... ....|--- .... ....
....|..|--- .... ....|D-4 .... ....|G#2 .... ....
....|..|--- .... ....|--- .... ....|--- .... ....
....|..|--- .... ....|C-4 .... ....|--- .... ....
....|..|--- .... ....|--- .... ....|--- .... ....
....|..|R-- .... ....|B-3 .... ....|E-2 .... ....
....|..|--- .... ....|--- .... ....|--- .... ....
....|..|--- .... ....|--- .... ....|--- .... ....
....|..|--- .... ....|--- .... ....|--- .... ....
....|..|--- .... ....|E-3 .... ....|R-- .... ....
....|..|--- .... ....|--- .... ....|--- .... ....
....|..|--- .... ....|E-3 .... ....|E-2 .... ....
....|..|--- .... ....|--- .... ....|--- .... ....
....|..|--- .... ....|R-- .... ....|--- .... ....
....|..|--- .... ....|--- .... ....|--- .... ....
....|..|--- .... ....|E-3 .... ....|E-2 .... ....
....|..|--- .... ....|--- .... ....|--- .... ....
....|..|E-5 .... ....|G#3 .... ....|B-1 .... ....
....|..|--- .... ....|--- .... ....|--- .... ....
....|..|--- .... ....|--- .... ....|--- .... ....
....|..|--- .... ....|--- .... ....|--- .... ....

[Pattern20]
....|..|D-5 .... ....|D-4 .... ....|D-2 2.FF ....
....|..|--- .... ....|--- .... ....|--- .... ....
....|..|--- .... ....|A-3 .... ....|--- .... ....
....|..|--- .... ....|--- .... ....|--- .... ....
....|..|--- .... ....|D-4 .... ....|R-- .... ....
....|..|--- .... ....|--- .... ....|--- .... ....
....|..|D-5 .... ....|E-4 .... ....|D-3 .... ....
....|..|--- .... ....|--- .... ....|--- .... ....
....|..|D-5 .... ....|--- .... ....|--- .... ....
....|..|--- .... ....|--- .... ....|--- .... ....
....|..|E-5 .... ....|D-4 .... ....|--- .... ....
....|..|--- .... ....|--- .... ....|--- .... ....
....|..|D-5 .... ....|--- .... ....|A-2 .... ....
....|..|--- .... ....|--- .... ....|--- .... ....
....|..|F-5 .... ....|--- .... ....|--- .... ....
....|..|--- .... ....|--- .... ....|--- .... ....
....|..|--- .... ....|A#3 .... ....|A#1 .... ....
....|..|--- .... ....|--- .... ....|--- .... ....
....|..|--- .... ....|F-3 .... ....|--- .... ....
....|..|--- .... ....|--- .... ....|--- .... ....
....|..|F-5 .... ....|A#3 .... ....|R-- .... ....
....|..|--- .... ....|--- .... ....|--- .... ....
....|..|F-5 .... ....|C-4 .... ....|A#2 .... ....
....|..|--- .... ....|--- .... ....|--- .... ....
....|..|F-5 .... ....|--- .... ....|--- .... ....
....|..|--- .... ....|--- .... ....|--- .... ....
....|..|G-5 .... ....|A#3 .... ....|--- .... ....
....|..|--- .... ....|--- .... ....|--- .... ....
....|..|F-5 .... ....|--- .... ....|F-2 .... ....
....|..|--- .... ....|--- .... ....|--- .... ....
....|..|E-5 .... ....|--- .... ....|--- .... ....
....|..|--- .... ....|--- .... ....|--- .... ....
....|..|--- .... ....|A-3 .... ....|A-1 .... ....
....|..|--- .... ....|--- .... ....|--- .... ....
....|..|C-6 .... ....|--- .... ....|--- .... ....
....|..|--- .... ....|--- .... ....|--- .... ....
....|..|--- .... ....|E-3 .... ....|R-- .... ....
....|..|--- .... ....|--- .... ....|--- .... ....
....|..|--- .... ....|A-3 .... ....|A-2 .... ....
....|..|--- .... ....|--- .... ....|--- .... ....
....|..|--- .... ....|E-3 .... ....|--- .... ....
....|..|--- .... ....|--- .... ....|--- .... ....
....|..|--- .... ....|A-3 .... ....|F-2 .... ....
....|..|--- .... ....|--- .... ....|--- .... ....
....|..|--- .... ....|B-3 .... ....|A-2 .... ....
....|..|--- .... ....|--- .... ....|--- .... ....
....|..|--- .... ....|C-4 .... ....|--- .... ....
....|..|--- .... ....|--- .... ....|--- .... ....
....|..|--- .... ....|E-4 .... ....|A-1 .... ....
....|..|--- .... ....|--- .... ....|--- .... ....
....|..|--- .... ....|--- .... ....|--- .... ....
....|..|--- .... ....|--- .... ....|--- .... ....
....|..|--- .... ....|A-3 .... ....|R-- .... ....
....|..|--- .... ....|--- .... ....|--- .... ....
....|..|--- .... ....|C-4 .... ....|A-2 .... ....
....|..|--- .... ....|--- .... ....|--- .... ....
....|..|R-- .... ....|R-- .... ....|--- .... ....
....|..|--- .... ....|--- .... ....|--- .... ....
....|..|--- .... ....|E-4 .... ....|F-2 .... ....
....|..|--- .... ....|--- .... ....|--- .... ....
....|..|--- .... ....|C-4 .... ....|A-2 .... ....
....|..|--- .... ....|--- .... ....|--- .... ....
....|..|--- .... ....|--- .... ....|--- .... ....
....|..|--- .... ....|--- .... ....|--- .... ....

[Pattern21]
....|..|D-5 .... ....|D-4 .... ....|D-2 2.FF ....
....|..|--- .... ....|--- .... ....|--- .... ....
....|..|--- .... ....|A-3 .... ....|--- .... ....
....|..|--- .... ....|--- .... ....|--- .... ....
....|..|D-5 .... ....|D-4 .... ....|R-- .... ....
....|..|--- .... ....|--- .... ....|--- .... ....
....|..|D-5 .... ....|E-4 .... ....|D-3 .... ....
....|..|--- .... ....|--- .... ....|--- .... ....
....|..|D-5 .... ....|--- .... ....|--- .... ....
....|..|--- .... ....|--- .... ....|--- .... ....
....|..|E-5 .... ....|D-4 .... ....|--- .... ....
....|..|--- .... ....|--- .... ....|--- .... ....
....|..|D-5 .... ....|--- .... ....|A-2 .... ....
....|..|--- .... ....|--- .... ....|--- .... ....
....|..|F-5 .... ....|--- .... ....|--- .... ....
....|..|--- .... ....|--- .... ....|--- .... ....
....|..|--- .... ....|A#3 .... ....|A#1 .... ....
....|..|--- .... ....|--- .... ....|--- .... ....
....|..|--- .... ....|F-3 .... ....|--- .... ....
....|..|--- .... ....|--- .... ....|--- .... ....
....|..|F-5 .... ....|A#3 .... ....|R-- .... ....
....|..|--- .... ....|--- .... ....|--- .... ....
....|..|F-5 .... ....|C-4 .... ....|A#2 .... ....
....|..|--- .... ....|--- .... ....|--- .... ....
....|..|F-5 .... ....|--- .... ....|--- .... ....
....|..|--- .... ....|--- .... ....|--- .... ....
....|..|G-5 .... ....|A#3 .... ....|--- .... ....
....|..|--- .... ....|--- .... ....|--- .... ....
....|..|F-5 .... ....|--- .... ....|F-2 .... ....
....|..|--- .... ....|--- .... ....|--- .... ....
....|..|F-5 .... ....|--- .... ....|--- .... ....
....|..|--- .... ....|--- .... ....|--- .... ....
....|..|--- .... ....|B-3 .... ....|E-2 .... ....
....|..|--- .... ....|--- .... ....|--- .... ....
....|..|--- .... ....|--- .... ....|--- .... ....
....|..|--- .... ....|--- .... ....|--- .... ....
....|..|E-5 .... ....|E-3 .... ....|B-2 .... ....
....|..|--- .... ....|--- .... ....|--- .... ....
....|..|--- .... ....|B-3 .... ....|E-3 .... ....
....|..|--- .... ....|--- .... ....|--- .... ....
....|..|--- .... ....|--- .... ....|--- .... ....
....|..|--- .... ....|--- .... ....|--- .... ....
....|..|--- .... ....|C-4 .... ....|E-2 .... ....
....|..|--- .... ....|--- .... ....|--- .... ....
....|..|--- .... ....|D-4 .... ....|--- .... ....
....|..|--- .... ....|--- .... ....|--- .... ....
....|..|--- .... ....|C-4 .... ....|B-2 .... ....
....|..|--- .... ....|--- .... ....|--- .... ....
....|..|R-- .... ....|B-3 .... ....|E-2 .... ....
....|..|--- .... ....|--- .... ....|--- .... ....
....|..|--- .... ....|--- .... ....|--- .... ....
....|..|--- .... ....|--- .... ....|--- .... ....
....|..|--- .... ....|E-3 .... ....|B-2 .... ....
....|..|--- .... ....|--- .... ....|--- .... ....
....|..|--- .... ....|B-3 .... ....|E-3 .... ....
....|..|--- .... ....|--- .... ....|--- .... ....
....|..|--- .... ....|R-- .... ....|--- .... ....
....|..|--- .... ....|--- .... ....|--- .... ....
....|..|--- .... ....|B-3 .... ....|B-2 .... ....
....|..|--- .... ....|--- .... ....|--- .... ....
....|..|--- .... ....|G#3 .... ....|G#3 .... ....
....|..|C-5 3.FF ....|--- .... ....|--- .... ....
....|..|C-5 .... ....|--- .... ....|--- .... ....
....|..|B-4 .... ....|--- .... ....|--- .... ....

[Pattern22]
....|..|C-5 .... ....|R-- 2.2F ....|D-1 2.FF ....
....|..|--- .... ....|--- .... ....|--- .... ....
....|..|A-4 .... ....|--- .... ....|D-2 .... ....
....|..|--- .... ....|--- .... ....|--- .... ....
....|..|R-- .... ....|F-4 .... ....|D-1 .... ....
....|..|C-5 .... ....|--- .... ....|--- .... ....
....|..|C-5 .... ....|--- .... ....|D-2 .... ....
....|..|B-4 .... ....|--- .... ....|--- .... ....
....|..|C-5 .... ....|--- .... ....|D-1 .... ....
....|..|--- .... ....|R-- .... ....|--- .... ....
....|..|A-4 .... ....|--- .... ....|D-2 .... ....
....|..|--- .... ....|--- .... ....|--- .... ....
....|..|R-- .... ....|F-4 .... ....|D-1 .... ....
....|..|C-5 .... ....|--- .... ....|--- .... ....
....|..|--- .... ....|--- .... ....|D-2 .... ....
....|..|--- .... ....|--- .... ....|--- .... ....
....|..|B-4 .... ....|--- .... ....|E-1 .... ....
....|..|B-4 .... ....|R-- .... ....|--- .... ....
....|..|B-4 .... ....|--- .... ....|E-2 .... ....
....|..|B-4 .... ....|--- .... ....|--- .... ....
....|..|--- .... ....|E-4 .... ....|E-1 .... ....
....|..|B-4 .... ....|--- .... ....|--- .... ....
....|..|B-4 .... ....|--- .... ....|E-2 .... ....
....|..|D-5 .... ....|--- .... ....|--- .... ....
....|..|--- .... ....|--- .... ....|E-1 .... ....
....|..|D-5 .... ....|R-- .... ....|--- .... ....
....|..|D-5 .... ....|--- .... ....|E-2 .... ....
....|..|--- .... ....|--- .... ....|--- .... ....
....|..|D-5 .... ....|E-4 .... ....|E-1 .... ....
....|..|--- .... ....|--- .... ....|--- .... ....
....|..|D-5 .... ....|--- .... ....|E-2 .... ....
....|..|D-5 .... ....|--- .... ....|--- .... ....
....|..|C-5 .... ....|--- .... ....|A-1 .... ....
....|..|--- .... ....|R-- .... ....|--- .... ....
....|..|A-4 .... ....|--- .... ....|A-2 .... ....
....|..|--- .... ....|--- .... ....|--- .... ....
....|..|R-- .... ....|E-4 .... ....|A-1 .... ....
....|..|C-5 .... ....|--- .... ....|--- .... ....
....|..|C-5 .... ....|--- .... ....|A-2 .... ....
....|..|--- .... ....|--- .... ....|--- .... ....
....|..|C-5 .... ....|--- .... ....|G-1 .... ....
....|..|--- .... ....|R-- .... ....|--- .... ....
....|..|A-4 .... ....|--- .... ....|G-2 .... ....
....|..|--- .... ....|--- .... ....|--- .... ....
....|..|R-- .... ....|D-4 .... ....|G-1 .... ....
....|..|--- .... ....|--- .... ....|--- .... ....
....|..|--- .... ....|--- .... ....|G-2 .... ....
....|..|--- .... ....|--- .... ....|--- .... ....
....|..|C-5 .... ....|--- .... ....|F-1 .... ....
....|..|C-5 .... ....|R-- .... ....|--- .... ....
....|..|C-5 .... ....|--- .... ....|F-2 .... ....
....|..|C-5 .... ....|--- .... ....|--- .... ....
....|..|--- .... ....|C-4 .... ....|F-1 .... ....
....|..|C-5 .... ....|--- .... ....|--- .... ....
....|..|C-5 .... ....|--- .... ....|F-2 .... ....
....|..|C-5 .... ....|--- .... ....|--- .... ....
....|..|--- .... ....|--- .... ....|F-1 .... ....
....|..|C-5 .... ....|R-- .... ....|--- .... ....
....|..|C-5 .... ....|--- .... ....|F-2 .... ....
....|..|--- .... ....|--- .... ....|--- .... ....
....|..|C-5 .... ....|C-4 .... ....|F-1 .... ....
....|..|--- .... ....|--- .... ....|--- .... ....
....|..|C-5 .... ....|--- .... ....|F-2 .... ....
....|..|B-4 .... ....|--- .... ....|--- .... ....

[Pattern23]
....|..|C-5 .... ....|--- .... ....|D-1 .... ....
....|..|--- .... ....|R-- .... ....|--- .... ....
....|..|A-4 .... ....|--- .... ....|D-2 .... ....
....|..|--- .... ....|--- .... ....|--- .... ....
....|..|R-- .... ....|F-4 .... ....|D-1 .... ....
....|..|--- .... ....|--- .... ....|--- .... ....
....|..|C-5 .... ....|--- .... ....|D-2 .... ....
....|..|--- .... ....|--- .... ....|--- .... ....
....|..|C-5 .... ....|--- .... ....|D-1 .... ....
....|..|--- .... ....|R-- .... ....|--- .... ....
....|..|A-4 .... ....|--- .... ....|D-2 .... ....
....|..|--- .... ....|--- .... ....|--- .... ....
....|..|R-- .... ....|F-4 .... ....|D-1 .... ....
....|..|--- .... ....|--- .... ....|--- .... ....
....|..|F-4 .... ....|--- .... ....|D-2 .... ....
....|..|--- .... ....|--- .... ....|--- .... ....
....|..|E-4 .... ....|--- .... ....|E-1 .... ....
....|..|--- .... ....|R-- .... ....|--- .... ....
....|..|E-4 .... ....|--- .... ....|E-2 .... ....
....|..|--- .... ....|--- .... ....|--- .... ....
....|..|E-4 .... ....|E-4 .... ....|E-1 .... ....
....|..|--- .... ....|--- .... ....|--- .... ....
....|..|D-5 .... ....|--- .... ....|E-2 .... ....
....|..|--- .... ....|--- .... ....|--- .... ....
....|..|--- .... ....|--- .... ....|E-1 .... ....
....|..|--- .... ....|R-- .... ....|--- .... ....
....|..|C-5 .... ....|--- .... ....|E-2 .... ....
....|..|--- .... ....|--- .... ....|--- .... ....
....|..|B-4 .... ....|E-4 .... ....|E-1 .... ....
....|..|--- .... ....|--- .... ....|--- .... ....
....|..|A-4 .... ....|--- .... ....|E-2 .... ....
....|..|--- .... ....|--- .... ....|--- .... ....
....|..|--- .... ....|A-4 4.FF ....|F-1 .... ....
....|..|--- .... ....|C-5 .... ....|--- .... ....
....|..|--- .... ....|F-5 .... ....|F-2 .... ....
....|..|--- .... ....|--- .... ....|--- .... ....
....|..|--- .... ....|A-4 .... ....|F-1 .... ....
....|..|--- .... ....|G-5 .... ....|--- .... ....
....|..|--- .... ....|--- .... ....|F-2 .... ....
....|..|--- .... ....|A-4 .... ....|--- .... ....
....|..|R-- .... ....|F-5 .... ....|F-1 .... ....
....|..|--- .... ....|--- .... ....|--- .... ....
....|..|E-4 .... ....|A-4 .... ....|F-2 .... ....
....|..|--- .... ....|G-5 .... ....|--- .... ....
....|..|D-4 .... ....|--- .... ....|F-1 .... ....
....|..|--- .... ....|A-4 .... ....|--- .... ....
....|..|E-4 .... ....|F-5 .... ....|F-2 .... ....
....|..|--- .... ....|--- .... ....|--- .... ....
....|..|--- .... ....|G#4 .... ....|E-1 .... ....
....|..|--- .... ....|B-4 .... ....|--- .... ....
....|..|--- .... ....|E-5 .... ....|E-2 .... ....
....|..|--- .... ....|--- .... ....|--- .... ....
....|..|R-- .... ....|G#4 .... ....|E-1 .... ....
....|..|--- .... ....|F-5 .... ....|--- .... ....
....|..|--- .... ....|--- .... ....|E-2 .... ....
....|..|--- .... ....|G#4 .... ....|--- .... ....
....|..|--- .... ....|E-5 .... ....|E-1 .... ....
....|..|--- .... ....|--- .... ....|--- .... ....
....|..|--- .... ....|G#4 .... ....|E-2 .... ....
....|..|--- .... ....|F-5 .... ....|--- .... ....
....|..|R-- .... ....|--- .... ....|E-1 .... ....
....|..|C-5 .... ....|G#4 .... ....|--- .... ....
....|..|C-5 .... ....|E-5 .... ....|E-2 .... ....
....|..|B-4 .... ....|--- .... ....|--- .... ....

[Pattern24]
....|..|C-5 .... ....|R-- 2.2F ....|D-1 .... ....
....|..|--- .... ....|--- .... ....|--- .... ....
....|..|A-4 .... ....|--- .... ....|D-2 .... ....
....|..|--- .... ....|--- .... ....|--- .... ....
....|..|R-- .... ....|F-4 .... ....|D-1 .... ....
....|..|C-5 .... ....|--- .... ....|--- .... ....
....|..|C-5 .... ....|--- .... ....|D-2 .... ....
....|..|B-4 .... ....|--- .... ....|--- .... ....
....|..|C-5 .... ....|--- .... ....|D-1 .... ....
....|..|--- .... ....|R-- .... ....|--- .... ....
....|..|A-4 .... ....|--- .... ....|D-2 .... ....
....|..|--- .... ....|--- .... ....|--- .... ....
....|..|R-- .... ....|F-4 .... ....|D-1 .... ....
....|..|C-5 .... ....|--- .... ....|--- .... ....
....|..|--- .... ....|--- .... ....|D-2 .... ....
....|..|C-5 .... ....|--- .... ....|--- .... ....
....|..|B-4 .... ....|--- .... ....|E-1 .... ....
....|..|B-4 .... ....|R-- .... ....|--- .... ....
....|..|B-4 .... ....|--- .... ....|E-2 .... ....
....|..|B-4 .... ....|--- .... ....|--- .... ....
....|..|R-- .... ....|E-4 .... ....|E-1 .... ....
....|..|B-4 .... ....|--- .... ....|--- .... ....
....|..|--- .... ....|--- .... ....|E-2 .... ....
....|..|D-5 .... ....|--- .... ....|--- .... ....
....|..|--- .... ....|--- .... ....|E-1 .... ....
....|..|D-5 .... ....|R-- .... ....|--- .... ....
....|..|D-5 .... ....|--- .... ....|E-2 .... ....
....|..|--- .... ....|--- .... ....|--- .... ....
....|..|D-5 .... ....|E-4 .... ....|E-1 .... ....
....|..|--- .... ....|--- .... ....|--- .... ....
....|..|D-5 .... ....|--- .... ....|E-2 .... ....
....|..|D-5 .... ....|--- .... ....|--- .... ....
....|..|C-5 .... ....|--- .... ....|A-1 .... ....
....|..|--- .... ....|R-- .... ....|--- .... ....
....|..|A-4 .... ....|--- .... ....|A-2 .... ....
....|..|--- .... ....|--- .... ....|--- .... ....
....|..|R-- .... ....|F-4 .... ....|A-1 .... ....
....|..|--- .... ....|--- .... ....|--- .... ....
....|..|C-5 .... ....|--- .... ....|A-2 .... ....
....|..|B-4 .... ....|--- .... ....|--- .... ....
....|..|C-5 .... ....|--- .... ....|G-1 .... ....
....|..|--- .... ....|R-- .... ....|--- .... ....
....|..|A-4 .... ....|--- .... ....|G-2 .... ....
....|..|--- .... ....|--- .... ....|--- .... ....
....|..|R-- .... ....|F-4 .... ....|G-1 .... ....
....|..|A-4 .... ....|--- .... ....|--- .... ....
....|..|A-4 .... ....|--- .... ....|G-2 .... ....
....|..|--- .... ....|--- .... ....|--- .... ....
....|..|E-5 .... ....|--- .... ....|F-1 .... ....
....|..|E-5 .... ....|R-- .... ....|--- .... ....
....|..|--- .... ....|--- .... ....|F-2 .... ....
....|..|E-5 .... ....|--- .... ....|--- .... ....
....|..|--- .... ....|E-4 .... ....|F-1 .... ....
....|..|--- .... ....|--- .... ....|--- .... ....
....|..|--- .... ....|--- .... ....|F-2 .... ....
....|..|E-5 .... ....|--- .... ....|--- .... ....
....|..|--- .... ....|--- .... ....|F-1 .... ....
....|..|E-5 .... ....|R-- .... ....|--- .... ....
....|..|E-5 .... ....|--- .... ....|F-2 .... ....
....|..|--- .... ....|--- .... ....|--- .... ....
....|..|D-5 .... ....|E-4 .... ....|F-1 .... ....
....|..|--- .... ....|--- .... ....|--- .... ....
....|..|C-5 .... ....|--- .... ....|F-2 .... ....
....|..|C-5 .... ....|--- .... ....|--- .... ....

[Pattern25]
....|..|C-5 .... ....|--- .... ....|D-1 .... ....
....|..|--- .... ....|R-- .... ....|--- .... ....
....|..|A-4 .... ....|--- .... ....|D-2 .... ....
....|..|--- .... ....|--- .... ....|--- .... ....
....|..|--- .... ....|F-4 .... ....|D-1 .... ....
....|..|--- .... ....|--- .... ....|--- .... ....
....|..|C-5 .... ....|--- .... ....|D-2 .... ....
....|..|--- .... ....|--- .... ....|--- .... ....
....|..|C-5 .... ....|--- .... ....|D-1 .... ....
....|..|--- .... ....|R-- .... ....|--- .... ....
....|..|A-4 .... ....|--- .... ....|D-2 .... ....
....|..|--- .... ....|--- .... ....|--- .... ....
....|..|--- .... ....|F-4 .... ....|D-1 .... ....
....|..|--- .... ....|--- .... ....|--- .... ....
....|..|F-4 .... ....|--- .... ....|D-2 .... ....
....|..|--- .... ....|--- .... ....|--- .... ....
....|..|E-4 .... ....|--- .... ....|E-1 .... ....
....|..|--- .... ....|R-- .... ....|--- .... ....
....|..|E-4 .... ....|--- .... ....|E-2 .... ....
....|..|--- .... ....|--- .... ....|--- .... ....
....|..|E-4 .... ....|E-4 .... ....|E-1 .... ....
....|..|--- .... ....|--- .... ....|--- .... ....
....|..|D-5 .... ....|--- .... ....|E-2 .... ....
....|..|--- .... ....|--- .... ....|--- .... ....
....|..|--- .... ....|--- .... ....|E-1 .... ....
....|..|--- .... ....|R-- .... ....|--- .... ....
....|..|C-5 .... ....|--- .... ....|E-2 .... ....
....|..|--- .... ....|--- .... ....|--- .... ....
....|..|E-5 .... ....|E-4 .... ....|E-1 .... ....
....|..|--- .... ....|--- .... ....|--- .... ....
....|..|E-5 .... ....|--- .... ....|E-2 .... ....
....|..|--- .... ....|--- .... ....|--- .... ....
....|..|--- .... ....|R-- 4.FF ....|F-1 .... ....
....|..|--- .... ....|F-4 .... ....|--- .... ....
....|..|--- .... ....|C-5 .... ....|F-2 .... ....
....|..|--- .... ....|--- .... ....|--- .... ....
....|..|--- .... ....|F-4 .... ....|F-1 .... ....
....|..|--- .... ....|A-4 .... ....|--- .... ....
....|..|--- .... ....|--- .... ....|F-2 .... ....
....|..|--- .... ....|F-4 .... ....|--- .... ....
....|..|R-- .... ....|C-5 .... ....|F-1 .... ....
....|..|--- .... ....|--- .... ....|--- .... ....
....|..|E-5 .... ....|F-4 .... ....|F-2 .... ....
....|..|--- .... ....|A-4 .... ....|--- .... ....
....|..|E-5 .... ....|--- .... ....|F-1 .... ....
....|..|--- .... ....|F-4 .... ....|--- .... ....
....|..|E-5 .... ....|C-5 .... ....|F-2 .... ....
....|..|--- .... ....|--- .... ....|--- .... ....
....|..|--- .... ....|R-- .... ....|E-1 .... ....
....|..|--- .... ....|G#4 .... ....|--- .... ....
....|..|D-5 .... ....|B-4 .... ....|E-2 .... ....
....|..|--- .... ....|--- .... ....|--- .... ....
....|..|C-5 .... ....|G#4 .... ....|E-1 .... ....
....|..|--- .... ....|D-5 .... ....|--- .... ....
....|..|B-4 .... ....|--- .... ....|E-2 .... ....
....|..|--- .... ....|G#4 .... ....|--- .... ....
....|..|--- .... ....|B-4 .... ....|E-1 .... ....
....|..|--- .... ....|--- .... ....|--- .... ....
....|..|--- .... ....|G#4 .... ....|E-2 .... ....
....|..|--- .... ....|D-5 .... ....|--- .... ....
....|..|--- .... ....|--- .... ....|E-1 .... ....
....|..|--- .... ....|G#4 .... ....|--- .... ....
....|..|--- .... ....|B-4 .... ....|E-2 .... ....
....|..|--- .... ....|--- .... ....|--- .... ....

[Pattern26]
....|..|--- .... ....|R-- .... ....|E-1 .... ....
....|..|--- .... ....|B-4 .... ....|--- .... ....
....|..|--- .... ....|E-5 .... ....|--- .... ....
....|..|--- .... ....|--- .... ....|--- .... ....
....|..|--- .... ....|B-4 .... ....|--- .... ....
....|..|--- .... ....|D-5 .... ....|--- .... ....
....|..|--- .... ....|--- .... ....|--- .... ....
....|..|--- .... ....|B-4 .... ....|--- .... ....
....|..|--- .... ....|E-5 .... ....|--- .... ....
....|..|--- .... ....|--- .... ....|--- .... ....
....|..|--- .... ....|B-4 .... ....|--- .... ....
....|..|--- .... ....|D-5 .... ....|--- .... ....
....|..|--- .... ....|--- .... ....|--- .... ....
....|..|--- .... ....|B-4 .... ....|--- .... ....
....|..|--- .... ....|E-5 .... ....|--- .... ....
....|..|--- .... ....|--- .... ....|--- .... ....
....|..|--- .... ....|R-- .... ....|F-1 .... ....
....|..|--- .... ....|--- .... ....|--- .... ....
....|..|--- .... ....|C-4 .... ....|--- .... ....
....|..|--- .... ....|--- .... ....|--- .... ....
....|..|--- .... ....|F-4 .... ....|--- .... ....
....|..|--- .... ....|--- .... ....|--- .... ....
....|..|--- .... ....|C-5 .... ....|--- .... ....
....|..|--- .... ....|--- .... ....|--- .... ....
....|..|--- .... ....|--- .... ....|--- .... ....
....|..|--- .... ....|--- .... ....|--- .... ....
....|..|--- .... ....|B-4 .... ....|--- .... ....
....|..|--- .... ....|--- .... ....|--- .... ....
....|..|--- .... ....|--- .... ....|--- .... ....
....|..|--- .... ....|--- .... ....|--- .... ....
....|..|--- .... ....|--- .... ....|--- .... ....
....|..|--- .... ....|--- .... ....|--- .... ....
....|..|--- .... ....|R-- .... ....|E-1 .... ....
....|..|--- .... ....|--- .... ....|--- .... ....
....|..|--- .... ....|B-4 .... ....|--- .... ....
....|..|--- .... ....|--- .... ....|--- .... ....
....|..|--- .... ....|E-5 .... ....|--- .... ....
....|..|--- .... ....|--- .... ....|--- .... ....
....|..|--- .... ....|A-5 .... ....|--- .... ....
....|..|--- .... ....|--- .... ....|--- .... ....
....|..|--- .... ....|--- .... ....|--- .... ....
....|..|--- .... ....|--- .... ....|--- .... ....
....|..|--- .... ....|G#5 .... ....|--- .... ....
....|..|--- .... ....|--- .... ....|--- .... ....
....|..|--- .... ....|--- .... ....|--- .... ....
....|..|--- .... ....|--- .... ....|--- .... ....
....|..|--- .... ....|--- .... ....|--- .... ....
....|..|--- .... ....|--- .... ....|--- .... ....
....|..|--- .... ....|R-- .... ....|F-1 .... ....
....|..|--- .... ....|--- .... ....|--- .... ....
....|..|--- .... ....|C-5 .... ....|--- .... ....
....|..|--- .... ....|--- .... ....|--- .... ....
....|..|--- .... ....|F-5 .... ....|--- .... ....
....|..|--- .... ....|--- .... ....|--- .... ....
....|..|--- .... ....|C-6 .... ....|--- .... ....
....|..|--- .... ....|--- .... ....|--- .... ....
....|..|--- .... ....|--- .... ....|--- .... ....
....|..|--- .... ....|--- .... ....|--- .... ....
....|..|--- .... ....|B-5 .... ....|--- .... ....
....|..|--- .... ....|--- .... ....|--- .... ....
....|..|--- .... ....|--- .... ....|--- .... ....
....|..|--- .... ....|--- .... ....|--- .... ....
....|..|--- .... ....|--- .... ....|--- .... ....
....|..|--- .... ....|--- .... ....|--- .... ....

[Pattern27]
....|..|--- .... ....|R-- .... ....|E-1 .... ....
....|..|--- .... ....|--- .... ....|--- .... ....
....|..|--- .... ....|B-4 .... ....|--- .... ....
....|..|--- .... ....|--- .... ....|--- .... ....
....|..|--- .... ....|E-5 .... ....|--- .... ....
....|..|--- .... ....|--- .... ....|--- .... ....
....|..|--- .... ....|A-5 .... ....|--- .... ....
....|..|--- .... ....|--- .... ....|--- .... ....
....|..|--- .... ....|--- .... ....|--- .... ....
....|..|--- .... ....|--- .... ....|--- .... ....
....|..|--- .... ....|G#5 .... ....|--- .... ....
....|..|--- .... ....|--- .... ....|--- .... ....
....|..|--- .... ....|--- .... ....|--- .... ....
....|..|--- .... ....|--- .... ....|--- .... ....
....|..|--- .... ....|--- .... ....|--- .... ....
....|..|--- .... ....|--- .... ....|--- .... ....
....|..|--- .... ....|R-- .... ....|E-1 .... ....
....|..|--- .... ....|--- .... ....|--- .... ....
....|..|--- .... ....|E-5 .... ....|--- .... ....
....|..|--- .... ....|--- .... ....|--- .... ....
....|..|--- .... ....|G#5 .... ....|--- .... ....
....|..|--- .... ....|--- .... ....|--- .... ....
....|..|--- .... ....|C-6 .... ....|--- .... ....
....|..|--- .... ....|--- .... ....|--- .... ....
....|..|--- .... ....|--- .... ....|--- .... ....
....|..|--- .... ....|--- .... ....|--- .... ....
....|..|--- .... ....|B-5 .... ....|--- .... ....
....|..|--- .... ....|--- .... ....|--- .... ....
....|..|--- .... ....|--- .... ....|--- .... ....
....|..|--- .... ....|--- .... ....|--- .... ....
....|..|--- .... ....|--- .... ....|--- .... ....
....|..|--- .... ....|--- .... ....|--- .... ....
....|..|C-5 .... ....|R-- 2.2F ....|D-1 .... ....
....|..|--- .... ....|--- .... ....|--- .... ....
....|..|A-4 .... ....|--- .... ....|D-2 .... ....
....|..|--- .... ....|--- .... ....|--- .... ....
....|..|R-- .... ....|D-4 .... ....|D-1 .... ....
....|..|C-5 .... ....|--- .... ....|--- .... ....
....|..|C-5 .... ....|--- .... ....|D-2 .... ....
....|..|B-4 .... ....|--- .... ....|--- .... ....
....|..|C-5 .... ....|--- .... ....|D-1 .... ....
....|..|--- .... ....|R-- .... ....|--- .... ....
....|..|A-4 .... ....|--- .... ....|D-2 .... ....
....|..|--- .... ....|--- .... ....|--- .... ....
....|..|R-- .... ....|D-4 .... ....|D-1 .... ....
....|..|--- .... ....|--- .... ....|--- .... ....
....|..|C-5 .... ....|--- .... ....|D-2 .... ....
....|..|--- .... ....|--- .... ....|--- .... ....
....|..|B-4 .... ....|--- .... ....|E-1 .... ....
....|..|--- .... ....|R-- .... ....|--- .... ....
....|..|B-4 .... ....|--- .... ....|E-2 .... ....
....|..|B-4 .... ....|--- .... ....|--- .... ....
....|..|R-- .... ....|E-4 .... ....|E-1 .... ....
....|..|B-4 .... ....|--- .... ....|--- .... ....
....|..|--- .... ....|--- .... ....|E-2 .... ....
....|..|D-5 .... ....|--- .... ....|--- .... ....
....|..|--- .... ....|--- .... ....|E-1 .... ....
....|..|D-5 .... ....|R-- .... ....|--- .... ....
....|..|D-5 .... ....|--- .... ....|E-2 .... ....
....|..|D-5 .... ....|--- .... ....|--- .... ....
....|..|D-5 .... ....|E-4 .... ....|E-1 .... ....
....|..|--- .... ....|--- .... ....|--- .... ....
....|..|D-5 .... ....|--- .... ....|E-2 .... ....
....|..|--- .... ....|--- .... ....|--- .... ....

[Pattern28]
....|..|C-5 .... ....|--- .... ....|A-1 .... ....
....|..|--- .... ....|R-- .... ....|--- .... ....
....|..|A-4 .... ....|--- .... ....|A-2 .... ....
....|..|--- .... ....|--- .... ....|--- .... ....
....|..|R-- .... ....|F-4 .... ....|A-1 .... ....
....|..|C-5 .... ....|--- .... ....|--- .... ....
....|..|C-5 .... ....|--- .... ....|A-2 .... ....
....|..|B-4 .... ....|--- .... ....|--- .... ....
....|..|C-5 .... ....|--- .... ....|G-1 .... ....
....|..|--- .... ....|R-- .... ....|--- .... ....
....|..|A-4 .... ....|--- .... ....|G-2 .... ....
....|..|--- .... ....|--- .... ....|--- .... ....
....|..|R-- .... ....|F-4 .... ....|G-1 .... ....
....|..|--- .... ....|--- .... ....|--- .... ....
....|..|E-5 .... ....|--- .... ....|G-2 .... ....
....|..|--- .... ....|--- .... ....|--- .... ....
....|..|E-5 .... ....|--- .... ....|F-1 .... ....
....|..|E-5 .... ....|R-- .... ....|--- .... ....
....|..|E-5 .... ....|--- .... ....|F-2 .... ....
....|..|E-5 .... ....|--- .... ....|--- .... ....
....|..|--- .... ....|E-4 .... ....|F-1 .... ....
....|..|E-5 .... ....|--- .... ....|--- .... ....
....|..|--- .... ....|--- .... ....|F-2 .... ....
....|..|E-5 .... ....|--- .... ....|--- .... ....
....|..|--- .... ....|--- .... ....|F-1 .... ....
....|..|E-5 .... ....|R-- .... ....|--- .... ....
....|..|E-5 .... ....|--- .... ....|F-2 .... ....
....|..|--- .... ....|--- .... ....|--- .... ....
....|..|D-5 .... ....|E-4 .... ....|F-1 .... ....
....|..|--- .... ....|--- .... ....|--- .... ....
....|..|C-5 .... ....|--- .... ....|F-2 .... ....
....|..|--- .... ....|--- .... ....|--- .... ....
....|..|C-5 .... ....|C-4 4.FF ....|D-1 .... ....
....|..|--- .... ....|F-4 .... ....|--- .... ....
....|..|A-4 .... ....|A-4 .... ....|D-2 .... ....
....|..|--- .... ....|--- .... ....|--- .... ....
....|..|R-- .... ....|C-4 .... ....|D-1 .... ....
....|..|--- .... ....|F-4 .... ....|--- .... ....
....|..|C-5 .... ....|--- .... ....|D-2 .... ....
....|..|--- .... ....|C-4 .... ....|--- .... ....
....|..|C-5 .... ....|A-4 .... ....|D-1 .... ....
....|..|--- .... ....|--- .... ....|--- .... ....
....|..|A-4 .... ....|C-4 .... ....|D-2 .... ....
....|..|--- .... ....|F-4 .... ....|--- .... ....
....|..|R-- .... ....|--- .... ....|D-1 .... ....
....|..|--- .... ....|C-4 .... ....|--- .... ....
....|..|--- .... ....|A-4 .... ....|D-2 .... ....
....|..|--- .... ....|--- .... ....|--- .... ....
....|..|--- .... ....|B-3 .... ....|E-1 .... ....
....|..|--- .... ....|E-4 .... ....|--- .... ....
....|..|--- .... ....|G#4 .... ....|E-2 .... ....
....|..|--- .... ....|--- .... ....|--- .... ....
....|..|--- .... ....|B-3 .... ....|E-1 .... ....
....|..|--- .... ....|E-4 .... ....|--- .... ....
....|..|--- .... ....|--- .... ....|E-2 .... ....
....|..|--- .... ....|B-3 .... ....|--- .... ....
....|..|--- .... ....|G#4 .... ....|E-1 .... ....
....|..|--- .... ....|--- .... ....|--- .... ....
....|..|--- .... ....|B-3 .... ....|E-2 .... ....
....|..|--- .... ....|E-4 .... ....|--- .... ....
....|..|D-5 .... ....|--- .... ....|E-1 .... ....
....|..|--- .... ....|B-3 .... ....|--- .... ....
....|..|E-5 .... ....|G#4 .... ....|E-2 .... ....
....|..|--- .... ....|--- .... ....|--- .... ....

[Pattern29]
....|..|--- .... ....|C-4 .... ....|F-1 .... ....
....|..|--- .... ....|F-4 .... ....|--- .... ....
....|..|E-5 .... ....|A-4 .... ....|F-2 .... ....
....|..|--- .... ....|--- .... ....|--- .... ....
....|..|E-5 .... ....|C-4 .... ....|F-1 .... ....
....|..|--- .... ....|F-4 .... ....|--- .... ....
....|..|E-5 .... ....|--- .... ....|F-2 .... ....
....|..|--- .... ....|C-4 .... ....|--- .... ....
....|..|--- .... ....|A-4 .... ....|F-1 .... ....
....|..|--- .... ....|--- .... ....|--- .... ....
....|..|D-5 .... ....|C-4 .... ....|F-2 .... ....
....|..|--- .... ....|F-4 .... ....|--- .... ....
....|..|C-5 .... ....|--- .... ....|F-1 .... ....
....|..|--- .... ....|C-4 .... ....|--- .... ....
....|..|B-4 .... ....|A-4 .... ....|F-2 .... ....
....|..|--- .... ....|--- .... ....|--- .... ....
....|..|--- .... ....|E-4 .... ....|E-1 .... ....
....|..|--- .... ....|G#4 .... ....|--- .... ....
....|..|--- .... ....|B-4 .... ....|E-2 .... ....
....|..|--- .... ....|--- .... ....|--- .... ....
....|..|--- .... ....|E-4 .... ....|E-1 .... ....
....|..|--- .... ....|G#4 .... ....|--- .... ....
....|..|--- .... ....|--- .... ....|E-2 .... ....
....|..|--- .... ....|E-4 .... ....|--- .... ....
....|..|--- .... ....|B-4 .... ....|E-1 .... ....
....|..|--- .... ....|--- .... ....|--- .... ....
....|..|--- .... ....|E-4 .... ....|E-2 .... ....
....|..|--- .... ....|G#4 .... ....|--- .... ....
....|..|R-- .... ....|--- .... ....|E-1 .... ....
....|..|C-5 .... ....|E-4 .... ....|--- .... ....
....|..|--- .... ....|B-4 .... ....|E-2 .... ....
....|..|C-5 .... ....|--- .... ....|--- .... ....
....|..|C-5 .... ....|R-- 2.2F ....|D-1 .... ....
....|..|--- .... ....|--- .... ....|--- .... ....
....|..|A-4 .... ....|--- .... ....|D-2 .... ....
....|..|--- .... ....|--- .... ....|--- .... ....
....|..|R-- .... ....|D-4 .... ....|D-1 .... ....
....|..|C-5 .... ....|--- .... ....|--- .... ....
....|..|C-5 .... ....|--- .... ....|D-2 .... ....
....|..|B-4 .... ....|--- .... ....|--- .... ....
....|..|C-5 .... ....|--- .... ....|D-1 .... ....
....|..|--- .... ....|R-- .... ....|--- .... ....
....|..|A-4 .... ....|--- .... ....|D-2 .... ....
....|..|--- .... ....|--- .... ....|--- .... ....
....|..|R-- .... ....|D-4 .... ....|D-1 .... ....
....|..|--- .... ....|--- .... ....|--- .... ....
....|..|C-5 .... ....|--- .... ....|D-2 .... ....
....|..|--- .... ....|--- .... ....|--- .... ....
....|..|B-4 .... ....|--- .... ....|E-1 .... ....
....|..|B-4 .... ....|R-- .... ....|--- .... ....
....|..|B-4 .... ....|--- .... ....|E-2 .... ....
....|..|B-4 .... ....|--- .... ....|--- .... ....
....|..|--- .... ....|E-4 .... ....|E-1 .... ....
....|..|B-4 .... ....|--- .... ....|--- .... ....
....|..|B-4 .... ....|--- .... ....|E-2 .... ....
....|..|D-5 .... ....|--- .... ....|--- .... ....
....|..|--- .... ....|--- .... ....|E-1 .... ....
....|..|D-5 .... ....|R-- .... ....|--- .... ....
....|..|D-5 .... ....|--- .... ....|E-2 .... ....
....|..|--- .... ....|--- .... ....|--- .... ....
....|..|D-5 .... ....|E-4 .... ....|E-1 .... ....
....|..|--- .... ....|--- .... ....|--- .... ....
....|..|D-5 .... ....|--- .... ....|E-2 .... ....
....|..|D-5 .... ....|--- .... ....|--- .... ....

[Pattern30]
....|..|C-5 .... ....|--- .... ....|A-1 .... ....
....|..|--- .... ....|R-- .... ....|--- .... ....
....|..|A-4 .... ....|--- .... ....|A-2 .... ....
....|..|--- .... ....|--- .... ....|--- .... ....
....|..|R-- .... ....|D-4 .... ....|A-1 .... ....
....|..|--- .... ....|--- .... ....|--- .... ....
....|..|C-5 .... ....|--- .... ....|A-2 .... ....
....|..|--- .... ....|--- .... ....|--- .... ....
....|..|C-5 .... ....|--- .... ....|G-1 .... ....
....|..|--- .... ....|R-- .... ....|--- .... ....
....|..|A-4 .... ....|--- .... ....|G-2 .... ....
....|..|--- .... ....|--- .... ....|--- .... ....
....|..|R-- .... ....|D-4 .... ....|G-1 .... ....
....|..|--- .... ....|--- .... ....|--- .... ....
....|..|E-5 .... ....|--- .... ....|G-2 .... ....
....|..|E-5 .... ....|--- .... ....|--- .... ....
....|..|E-5 .... ....|--- .... ....|F-1 .... ....
....|..|--- .... ....|R-- .... ....|--- .... ....
....|..|E-5 .... ....|--- .... ....|F-2 .... ....
....|..|E-5 .... ....|--- .... ....|--- .... ....
....|..|--- .... ....|F-4 .... ....|F-1 .... ....
....|..|E-5 .... ....|--- .... ....|--- .... ....
....|..|--- .... ....|--- .... ....|F-2 .... ....
....|..|E-5 .... ....|--- .... ....|--- .... ....
....|..|--- .... ....|--- .... ....|F-1 .... ....
....|..|E-5 .... ....|R-- .... ....|--- .... ....
....|..|E-5 .... ....|--- .... ....|F-2 .... ....
....|..|--- .... ....|--- .... ....|--- .... ....
....|..|E-5 .... ....|F-4 .... ....|F-1 .... ....
....|..|--- .... ....|--- .... ....|--- .... ....
....|..|E-5 .... ....|--- .... ....|F-2 .... ....
....|..|--- .... ....|--- .... ....|--- .... ....
....|..|C-5 .... ....|C-4 4.FC ....|D-1 .... ....
....|..|--- .... ....|F-4 .... ....|--- .... ....
....|..|A-4 .... ....|A-4 .... ....|D-2 .... ....
....|..|--- .... ....|--- .... ....|--- .... ....
....|..|R-- .... ....|C-4 .... ....|D-1 .... ....
....|..|--- .... ....|F-4 .... ....|--- .... ....
....|..|C-5 .... ....|--- .... ....|D-2 .... ....
....|..|--- .... ....|C-4 .... ....|--- .... ....
....|..|C-5 .... ....|A-4 .... ....|D-1 .... ....
....|..|--- .... ....|--- .... ....|--- .... ....
....|..|A-4 .... ....|C-4 .... ....|D-2 .... ....
....|..|--- .... ....|F-4 .... ....|--- .... ....
....|..|R-- .... ....|--- .... ....|D-1 .... ....
....|..|--- .... ....|C-4 .... ....|--- .... ....
....|..|F-4 .... ....|A-4 .... ....|D-2 .... ....
....|..|--- .... ....|--- .... ....|--- .... ....
....|..|E-4 .... ....|B-3 .... ....|E-1 .... ....
....|..|--- .... ....|E-4 .... ....|--- .... ....
....|..|E-4 .... ....|G#4 .... ....|E-2 .... ....
....|..|--- .... ....|--- .... ....|--- .... ....
....|..|E-4 .... ....|B-3 .... ....|E-1 .... ....
....|..|--- .... ....|E-4 .... ....|--- .... ....
....|..|D-5 .... ....|--- .... ....|E-2 .... ....
....|..|--- .... ....|B-3 .... ....|--- .... ....
....|..|--- .... ....|G#4 .... ....|E-1 .... ....
....|..|--- .... ....|--- .... ....|--- .... ....
....|..|C-5 .... ....|B-3 .... ....|E-2 .... ....
....|..|--- .... ....|E-4 .... ....|--- .... ....
....|..|B-4 .... ....|--- .... ....|E-1 .... ....
....|..|--- .... ....|B-3 .... ....|--- .... ....
....|..|A-4 .... ....|G#4 .... ....|E-2 .... ....
....|..|--- .... ....|--- .... ....|--- .... ....

[Pattern31]
....|..|--- .... ....|C-4 .... ....|F-1 .... ....
....|..|--- .... ....|F-4 .... ....|--- .... ....
....|..|--- .... ....|A-4 .... ....|F-2 .... ....
....|..|--- .... ....|--- .... ....|--- .... ....
....|..|--- .... ....|C-4 .... ....|F-1 .... ....
....|..|--- .... ....|F-4 .... ....|--- .... ....
....|..|--- .... ....|--- .... ....|F-2 .... ....
....|..|--- .... ....|C-4 .... ....|--- .... ....
....|..|R-- .... ....|A-4 .... ....|F-1 .... ....
....|..|--- .... ....|--- .... ....|--- .... ....
....|..|E-5 .... ....|C-4 .... ....|F-2 .... ....
....|..|--- .... ....|F-4 .... ....|--- .... ....
....|..|E-5 .... ....|--- .... ....|F-1 .... ....
....|..|--- .... ....|C-4 .... ....|--- .... ....
....|..|E-5 .... ....|A-4 .... ....|F-2 .... ....
....|..|--- .... ....|--- .... ....|--- .... ....
....|..|--- .... ....|E-4 .... ....|E-1 .... ....
....|..|--- .... ....|G#4 .... ....|--- .... ....
....|..|D-5 .... ....|B-4 .... ....|E-2 .... ....
....|..|--- .... ....|--- .... ....|--- .... ....
....|..|C-5 .... ....|E-4 .... ....|E-1 .... ....
....|..|--- .... ....|G#4 .... ....|--- .... ....
....|..|B-4 .... ....|--- .... ....|E-2 .... ....
....|..|--- .... ....|E-4 .... ....|--- .... ....
....|..|--- .... ....|B-4 .... ....|E-1 .... ....
....|..|--- .... ....|--- .... ....|--- .... ....
....|..|--- .... ....|E-4 .... ....|E-2 .... ....
....|..|--- .... ....|G#4 .... ....|--- .... ....
....|..|--- .... ....|--- .... ....|E-1 .... ....
....|..|--- .... ....|E-4 .... ....|--- .... ....
....|..|--- .... ....|B-4 .... ....|E-2 .... ....
....|..|--- .... ....|--- .... ....|--- .... ....
....|..|R-- .... ....|E-4 .... ....|E-1 .... ....
....|..|--- .... ....|G#4 .... ....|--- .... ....
....|..|--- .... ....|B-4 .... ....|--- .... ....
....|..|--- .... ....|--- .... ....|--- .... ....
....|..|--- .... ....|E-4 .... ....|--- .... ....
....|..|--- .... ....|G#4 .... ....|--- .... ....
....|..|--- .... ....|--- .... ....|--- .... ....
....|..|--- .... ....|E-4 .... ....|--- .... ....
....|..|--- .... ....|B-4 .... ....|--- .... ....
....|..|--- .... ....|--- .... ....|--- .... ....
....|..|--- .... ....|E-4 .... ....|--- .... ....
....|..|--- .... ....|G#4 .... ....|--- .... ....
....|..|--- .... ....|--- .... ....|--- .... ....
....|..|--- .... ....|E-4 .... ....|--- .... ....
....|..|--- .... ....|B-4 .... ....|--- .... ....
....|..|--- .... ....|--- .... ....|--- .... ....
....|..|C-5 .... ....|--- ...B ....|A-1 .... ....
....|..|--- .... ....|--- .... ....|--- .... ....
....|..|A-4 .... ....|--- ...A ....|--- .... ....
....|..|--- .... ....|--- .... ....|--- .... ....
....|..|--- .... ....|--- ...9 ....|--- .... ....
....|..|--- .... ....|--- .... ....|--- .... ....
....|..|--- .... ....|--- ...8 ....|--- .... ....
....|..|--- .... ....|--- .... ....|--- .... ....
....|..|--- .... ....|--- ...7 ....|--- .... ....
....|..|--- .... ....|--- .... ....|--- .... ....
....|..|--- .... ....|--- ...6 ....|--- .... ....
....|..|--- .... ....|--- .... ....|--- .... ....
....|..|--- .... ....|--- ...5 ....|--- .... ....
....|..|--- .... ....|--- .... ....|--- .... ....
....|..|--- .... ....|--- ...4 ....|--- .... ....
....|..|--- .... ....|R-- .... ....|--- .... ....

[Pattern32]
....|..|--- .... ....|--- .... ....|--- .... ....
....|..|--- .... ....|--- .... ....|--- .... ....
....|..|--- .... ....|--- .... ....|--- .... ....
....|..|--- .... ....|--- .... ....|--- .... ....
....|..|--- .... ....|--- .... ....|--- .... ....
....|..|--- .... ....|--- .... ....|--- .... ....
....|..|--- .... ....|--- .... ....|--- .... ....
....|..|--- .... ....|--- .... ....|--- .... ....
....|..|--- .... ....|--- .... ....|--- .... ....
....|..|--- .... ....|--- .... ....|--- .... ....
....|..|--- .... ....|--- .... ....|--- .... ....
....|..|--- .... ....|--- .... ....|--- .... ....
....|..|--- .... ....|--- .... ....|--- .... ....
....|..|--- .... ....|--- .... ....|--- .... ....
....|..|--- .... ....|--- .... ....|--- .... ....
....|..|--- .... ....|--- .... ....|--- .... ....
....|..|--- .... ....|--- .... ....|--- .... ....
....|..|--- .... ....|--- .... ....|--- .... ....
....|..|--- .... ....|--- .... ....|--- .... ....
....|..|--- .... ....|--- .... ....|--- .... ....
....|..|--- .... ....|--- .... ....|--- .... ....
....|..|--- .... ....|--- .... ....|--- .... ....
....|..|--- .... ....|--- .... ....|--- .... ....
....|..|--- .... ....|--- .... ....|--- .... ....
....|..|--- .... ....|--- .... ....|--- .... ....
....|..|--- .... ....|--- .... ....|--- .... ....
....|..|--- .... ....|--- .... ....|--- .... ....
....|..|--- .... ....|--- .... ....|--- .... ....
....|..|--- .... ....|--- .... ....|--- .... ....
....|..|--- .... ....|--- .... ....|--- .... ....
....|..|--- .... ....|--- .... ....|--- .... ....
....|..|--- .... ....|--- .... ....|--- .... ....
....|..|--- .... ....|--- .... ....|--- .... ....
....|..|--- .... ....|--- .... ....|--- .... ....
....|..|--- .... ....|--- .... ....|--- .... ....
....|..|--- .... ....|--- .... ....|--- .... ....
....|..|--- .... ....|--- .... ....|--- .... ....
....|..|--- .... ....|--- .... ....|--- .... ....
....|..|--- .... ....|--- .... ....|--- .... ....
....|..|--- .... ....|--- .... ....|--- .... ....
....|..|--- .... ....|--- .... ....|--- .... ....
....|..|--- .... ....|--- .... ....|--- .... ....
....|..|--- .... ....|--- .... ....|--- .... ....
....|..|--- .... ....|--- .... ....|--- .... ....
....|..|--- .... ....|--- .... ....|--- .... ....
....|..|--- .... ....|--- .... ....|--- .... ....
....|..|--- .... ....|--- .... ....|--- .... ....
....|..|--- .... ....|--- .... ....|--- .... ....
....|..|--- .... ....|--- .... ....|--- .... ....
....|..|--- .... ....|--- .... ....|--- .... ....
....|..|--- .... ....|--- .... ....|--- .... ....
....|..|--- .... ....|--- .... ....|--- .... ....
....|..|--- .... ....|--- .... ....|--- .... ....
....|..|--- .... ....|--- .... ....|--- .... ....
....|..|--- .... ....|--- .... ....|--- .... ....
....|..|--- .... ....|--- .... ....|--- .... ....
....|..|--- .... ....|--- .... ....|--- .... ....
....|..|--- .... ....|--- .... ....|--- .... ....
....|..|--- .... ....|--- .... ....|--- .... ....
....|..|--- .... ....|--- .... ....|--- .... ....
....|..|--- .... ....|--- .... ....|--- .... ....
....|..|--- .... ....|--- .... ....|--- .... ....
....|..|--- .... ....|--- .... ....|--- .... ....
....|..|--- .... ....|--- .... ....|--- .... ....

[Pattern34]
....|..|--- .... ....|--- .... ....|--- .... ....
....|..|--- .... ....|--- .... ....|--- .... ....
....|..|--- .... ....|--- .... ....|--- .... ....
....|..|--- .... ....|--- .... ....|--- .... ....
....|..|--- .... ....|--- .... ....|--- .... ....
....|..|--- .... ....|--- .... ....|--- .... ....
....|..|--- .... ....|--- .... ....|--- .... ....
....|..|--- .... ....|--- .... ....|--- .... ....
....|..|--- .... ....|--- .... ....|--- .... ....
....|..|--- .... ....|--- .... ....|--- .... ....
....|..|--- .... ....|--- .... ....|--- .... ....
....|..|--- .... ....|--- .... ....|--- .... ....
....|..|--- .... ....|--- .... ....|--- .... ....
....|..|--- .... ....|--- .... ....|--- .... ....
....|..|--- .... ....|--- .... ....|--- .... ....
....|..|--- .... ....|--- .... ....|--- .... ....
....|..|--- .... ....|--- .... ....|--- .... ....
....|..|--- .... ....|--- .... ....|--- .... ....
....|..|--- .... ....|--- .... ....|--- .... ....
....|..|--- .... ....|--- .... ....|--- .... ....
....|..|--- .... ....|--- .... ....|--- .... ....
....|..|--- .... ....|--- .... ....|--- .... ....
....|..|--- .... ....|--- .... ....|--- .... ....
....|..|--- .... ....|--- .... ....|--- .... ....
....|..|--- .... ....|--- .... ....|--- .... ....
....|..|--- .... ....|--- .... ....|--- .... ....
....|..|--- .... ....|--- .... ....|--- .... ....
....|..|--- .... ....|--- .... ....|--- .... ....
....|..|--- .... ....|--- .... ....|--- .... ....
....|..|--- .... ....|--- .... ....|--- .... ....
....|..|--- .... ....|--- .... ....|--- .... ....
....|..|--- .... ....|--- .... ....|--- .... ....
....|..|--- .... ....|--- .... ....|--- .... ....
....|..|--- .... ....|--- .... ....|--- .... ....
....|..|--- .... ....|--- .... ....|--- .... ....
....|..|--- .... ....|--- .... ....|--- .... ....
....|..|--- .... ....|--- .... ....|--- .... ....
....|..|--- .... ....|--- .... ....|--- .... ....
....|..|--- .... ....|--- .... ....|--- .... ....
....|..|--- .... ....|--- .... ....|--- .... ....
....|..|--- .... ....|--- .... ....|--- .... ....
....|..|--- .... ....|--- .... ....|--- .... ....
....|..|--- .... ....|--- .... ....|--- .... ....
....|..|--- .... ....|--- .... ....|--- .... ....
....|..|--- .... ....|--- .... ....|--- .... ....
....|..|--- .... ....|--- .... ....|--- .... ....
....|..|--- .... ....|--- .... ....|--- .... ....
....|..|--- .... ....|--- .... ....|--- .... ....
....|..|--- .... ....|--- .... ....|--- .... ....
....|..|--- .... ....|--- .... ....|--- .... ....
....|..|--- .... ....|--- .... ....|--- .... ....
....|..|--- .... ....|--- .... ....|--- .... ....
....|..|--- .... ....|--- .... ....|--- .... ....
....|..|--- .... ....|--- .... ....|--- .... ....
....|..|--- .... ....|--- .... ....|--- .... ....
....|..|--- .... ....|--- .... ....|--- .... ....
....|..|--- .... ....|--- .... ....|--- .... ....
....|..|--- .... ....|--- .... ....|--- .... ....
....|..|--- .... ....|--- .... ....|--- .... ....
....|..|--- .... ....|--- .... ....|--- .... ....
....|..|--- .... ....|--- .... ....|--- .... ....
....|..|--- .... ....|--- .... ....|--- .... ....
....|..|--- .... ....|--- .... ....|--- .... ....
....|..|--- .... ....|--- .... ....|--- .... ....

