%FSLAX44Y44*%
%MOMM*%
G71*
G01*
G75*
G04 Layer_Physical_Order=2*
G04 Layer_Color=14840927*
%ADD10C,0.2540*%
%ADD11O,2.5000X1.3000*%
%ADD12R,2.5000X1.3000*%
%ADD13C,3.0000*%
%ADD14R,1.5000X1.5000*%
%ADD15C,1.5000*%
%ADD16C,1.2700*%
D10*
X312200Y881400D02*
X332600Y901800D01*
X312200Y589173D02*
Y881400D01*
Y589173D02*
X334600Y566773D01*
X301800Y1272000D02*
X797000D01*
X301800Y252800D02*
Y1272000D01*
Y252800D02*
X797200D01*
X797000Y1173800D02*
Y1272000D01*
X313200Y547000D02*
X320000Y553800D01*
X313200Y449816D02*
Y547000D01*
Y449816D02*
X323216Y439800D01*
X319400Y510800D02*
X323000Y514400D01*
X319400Y466476D02*
Y510800D01*
Y466476D02*
X333476Y452400D01*
X328400Y472200D02*
Y500800D01*
X326500Y502700D02*
X328400Y500800D01*
Y472200D02*
X335600Y465000D01*
X324800Y638196D02*
X327400D01*
Y597800D02*
Y638196D01*
Y597800D02*
X335600Y589600D01*
X322800Y666784D02*
X338000Y651584D01*
Y612722D02*
Y651584D01*
Y612722D02*
X348322Y602400D01*
X683274Y878600D02*
X771800D01*
Y878576D02*
Y878600D01*
Y878576D02*
X779200Y871176D01*
Y388800D02*
Y871176D01*
X716400Y326000D02*
X779200Y388800D01*
X539886Y326000D02*
X716400D01*
X758998Y498602D02*
X773200Y484400D01*
Y398000D02*
Y484400D01*
X728800Y353600D02*
X773200Y398000D01*
X443798Y498602D02*
X758998D01*
X757214Y472186D02*
X764800Y464600D01*
Y407600D02*
Y464600D01*
X739200Y382000D02*
X764800Y407600D01*
X620522Y472186D02*
X757214D01*
X710800Y353600D02*
X728800D01*
X659400Y349800D02*
Y366600D01*
X674800Y382000D01*
X739200D01*
X412320Y309880D02*
X580800D01*
X558600Y356000D02*
X592000Y389400D01*
X687700D02*
X732500Y434200D01*
X592000Y389400D02*
X687700D01*
X333476Y452400D02*
X356000D01*
X323000Y514400D02*
X547420D01*
X320000Y553800D02*
Y562864D01*
X334600Y544400D02*
Y566773D01*
Y544400D02*
X339000Y540000D01*
X657742D01*
X440068Y459600D02*
X695200D01*
X356000Y702400D02*
X381000D01*
X406000Y1077400D02*
X568294D01*
X624864Y1133970D01*
X720090D01*
X731520Y1145400D01*
X745200D01*
X356000Y677400D02*
X374922D01*
X731520Y739000D02*
X745200D01*
Y688200D02*
X746760D01*
X761746Y673214D01*
Y629920D02*
Y673214D01*
X754380Y622554D02*
X761746Y629920D01*
X538226Y622554D02*
X754380D01*
X530606Y614934D02*
X538226Y622554D01*
X386080Y614934D02*
X530606D01*
X356000Y1077400D02*
X366400D01*
X553974Y520954D02*
X761746D01*
X766826Y526034D01*
Y817880D01*
X756920Y827786D02*
X766826Y817880D01*
X731520Y827786D02*
X756920D01*
X720090Y839216D02*
X731520Y827786D01*
X720090Y839216D02*
Y858520D01*
X712610Y866000D02*
X720090Y858520D01*
X695200Y866000D02*
X712610D01*
X633366Y612000D02*
X695200D01*
X356000Y802400D02*
X369584D01*
X621792Y1120000D02*
X695200D01*
X356000Y777400D02*
X369692D01*
X630115Y1046281D02*
X639772D01*
X662691Y1069200D01*
X695200D01*
X733806Y993000D02*
X745200D01*
X348322Y602400D02*
X356000D01*
X678942Y561200D02*
X695200D01*
X681368Y764400D02*
X695200D01*
X389700Y389890D02*
X475996D01*
X377190Y402400D02*
X389700Y389890D01*
X356000Y402400D02*
X377190D01*
X356000Y427400D02*
X372446D01*
X377190Y577400D02*
X389694Y564896D01*
X356000Y577400D02*
X377190D01*
X680212Y967600D02*
X695200D01*
X342900Y727400D02*
X356000D01*
Y752400D02*
X377190D01*
X340360Y827400D02*
X356000D01*
X633336Y1170800D02*
X695200D01*
X727710Y662800D02*
X745200D01*
X715150Y650240D02*
X727710Y662800D01*
X549656Y650240D02*
X715150D01*
X530098Y630682D02*
X549656Y650240D01*
X442976Y630682D02*
X530098D01*
X356000Y1027400D02*
X368530D01*
X406000Y477400D02*
X615308D01*
X620522Y472186D01*
X727400Y764400D02*
X745200D01*
X666356Y1094600D02*
X695200D01*
Y1145400D02*
X707758D01*
X695198Y1196200D02*
X695200D01*
X695198D02*
Y1206500D01*
X406000Y877400D02*
X419624D01*
X424000Y852400D02*
X475158Y801242D01*
X406000Y852400D02*
X424000D01*
X475158Y791972D02*
Y801242D01*
X356000Y901800D02*
Y902400D01*
X332600Y901800D02*
X356000D01*
X326000Y841760D02*
X340360Y827400D01*
X326000Y841760D02*
Y881200D01*
X334400Y889600D01*
X393030D02*
X436000D01*
X450400Y904000D01*
X387200Y780900D02*
Y883770D01*
X393030Y889600D01*
X369692Y777400D02*
X381400Y789108D01*
Y885886D01*
X369584Y802400D02*
X375800Y808616D01*
Y888256D01*
X334400Y889600D02*
X368600D01*
X381400Y885886D02*
X385200Y889686D01*
X375800Y888256D02*
X379400Y891856D01*
X368600Y889600D02*
X373400Y894400D01*
X398800Y1002400D02*
X406000D01*
X426946Y964946D02*
X434800Y972800D01*
X427000Y1039800D02*
X434800Y1032000D01*
Y972800D02*
Y1032000D01*
X326800Y1070000D02*
X331778Y1065022D01*
X326800Y1070000D02*
Y1130800D01*
X336200Y1140200D01*
X460800D01*
X394494Y1090200D02*
X552736D01*
X633336Y1170800D01*
X366400Y1077400D02*
X379200Y1090200D01*
Y1102338D01*
X391462Y1114600D01*
X555800D01*
X573786Y1132586D01*
X610966Y589600D02*
X633366Y612000D01*
X335600Y589600D02*
X610966D01*
X434668Y465000D02*
X440068Y459600D01*
X335600Y465000D02*
X434668D01*
X330600Y715100D02*
X342900Y727400D01*
X330600Y694000D02*
Y715100D01*
Y694000D02*
X334800Y689800D01*
X646366D01*
X370900Y764600D02*
X387200Y780900D01*
X322800Y666784D02*
Y754400D01*
X333000Y764600D01*
X370900D01*
X657742Y540000D02*
X678942Y561200D01*
X375600Y1005906D02*
X384556Y996950D01*
X375600Y1005906D02*
Y1020330D01*
X368530Y1027400D02*
X375600Y1020330D01*
X384600Y1016600D02*
X398800Y1002400D01*
X331778Y1065022D02*
X373978D01*
X378000Y1061000D01*
X384600Y1080306D02*
X394494Y1090200D01*
X378000Y1036000D02*
Y1061000D01*
Y1036000D02*
X384600Y1029400D01*
Y1016600D02*
Y1029400D01*
Y1044200D02*
Y1080306D01*
Y1044200D02*
X389000Y1039800D01*
X427000D01*
X377190Y752400D02*
X389590Y740000D01*
X426000D01*
X433324Y747324D01*
X381000Y702400D02*
X393200Y714600D01*
X444852D01*
X469900Y739648D01*
X649854Y1005200D02*
X721606D01*
X733806Y993000D01*
X695198Y1206500D02*
X708698Y1220000D01*
X779000D01*
X789000Y1210000D01*
X460800Y1140200D02*
X504200Y1183600D01*
X717400D01*
X730000Y1196200D01*
X745200D01*
X707758Y1145400D02*
X720558Y1158200D01*
X767800D01*
X777400Y1148600D01*
Y1117000D02*
Y1148600D01*
X767600Y1107200D02*
X777400Y1117000D01*
X608200Y570400D02*
X612310D01*
X406000Y677400D02*
X408400Y675000D01*
X643758D01*
X475158Y791972D02*
X567730Y699400D01*
X419624Y877400D02*
X590824Y706200D01*
X450088Y871474D02*
X470526D01*
X611200Y730800D01*
X451218Y789800D02*
X453200D01*
X433324Y747324D02*
Y769524D01*
X451600Y787800D01*
Y789418D01*
X451218Y789800D02*
X451600Y789418D01*
X611200Y724600D02*
Y730800D01*
X473600Y890000D02*
Y909800D01*
Y890000D02*
X622936Y740664D01*
X450400Y904000D02*
Y912200D01*
X630800Y769400D02*
X639800Y760400D01*
X567730Y699400D02*
X630000D01*
X651800Y721200D01*
X590824Y706200D02*
X619600D01*
X639800Y726400D01*
Y760400D01*
X646366Y689800D02*
X666200Y709634D01*
Y953588D01*
X680212Y967600D01*
X643758Y675000D02*
X674000Y705242D01*
Y742326D01*
X683674Y752000D01*
X715000D02*
X727400Y764400D01*
X683674Y752000D02*
X715000D01*
X674000Y771768D02*
X681368Y764400D01*
X674000Y771768D02*
Y869326D01*
X683274Y878600D01*
X678942Y700786D02*
X710786D01*
X718600Y708600D01*
Y726080D01*
X731520Y739000D01*
X726600Y704200D02*
X736000Y713600D01*
X745200D01*
X669998Y676275D02*
X717675D01*
X726600Y685200D01*
Y704200D01*
X323216Y439800D02*
X594800D01*
X630400Y404200D01*
X702500D01*
X732500Y434200D02*
X745200D01*
X475996Y389890D02*
X539886Y326000D01*
X380800Y620214D02*
X386080Y614934D01*
X380800Y620214D02*
Y645600D01*
X374000Y652400D02*
X380800Y645600D01*
X356000Y652400D02*
X374000D01*
X578400Y419000D02*
X581760D01*
X438688Y503712D02*
X443798Y498602D01*
X627888Y1030986D02*
X778586D01*
X789000Y1041400D01*
Y1210000D01*
X356000Y366200D02*
Y377400D01*
Y366200D02*
X412320Y309880D01*
X797000Y254400D02*
Y1173800D01*
X374922Y677400D02*
X386922Y665400D01*
X406000Y652400D02*
X465800D01*
X470800Y657400D01*
X651123D01*
X669998Y676275D01*
X386922Y665400D02*
X643556D01*
X678942Y700786D01*
X547420Y514400D02*
X553974Y520954D01*
X385200Y889686D02*
Y911000D01*
X389000Y914800D01*
X433000D01*
X441592Y939800D02*
X621792Y1120000D01*
X379400Y891856D02*
Y935200D01*
X384000Y939800D01*
X441592D01*
X373400Y894400D02*
Y945600D01*
X392746Y964946D01*
X426946D01*
X503428Y976884D02*
X505712Y974600D01*
X546356D01*
X666356Y1094600D01*
X538480Y987044D02*
Y997080D01*
X648600Y1107200D01*
X767600D01*
X450400Y912200D02*
X469000Y930800D01*
X481948D01*
X575654Y931000D02*
X649854Y1005200D01*
X575200Y931000D02*
X575654D01*
X575056Y930856D02*
X575200Y931000D01*
X482092Y930856D02*
X575056D01*
X493268Y945896D02*
X493372Y946000D01*
X542902D01*
X627888Y1030986D01*
X433000Y914800D02*
X480000Y961800D01*
X545634D01*
X630115Y1046281D01*
X581760Y419000D02*
X582280Y418480D01*
X372446Y427400D02*
X384646Y415200D01*
X579000D01*
X582280Y418480D01*
X389694Y564896D02*
X599696D01*
X604800Y570000D01*
X611910D01*
X612310Y570400D01*
D11*
X695200Y1196200D02*
D03*
Y1170800D02*
D03*
Y1145400D02*
D03*
Y1120000D02*
D03*
Y1094600D02*
D03*
Y1069200D02*
D03*
Y1043800D02*
D03*
Y1018400D02*
D03*
Y993000D02*
D03*
Y967600D02*
D03*
Y942200D02*
D03*
Y916800D02*
D03*
Y891400D02*
D03*
Y866000D02*
D03*
Y840600D02*
D03*
Y815200D02*
D03*
Y789800D02*
D03*
Y764400D02*
D03*
Y739000D02*
D03*
Y713600D02*
D03*
Y688200D02*
D03*
Y662800D02*
D03*
Y637400D02*
D03*
Y612000D02*
D03*
Y586600D02*
D03*
Y561200D02*
D03*
Y535800D02*
D03*
Y510400D02*
D03*
Y485000D02*
D03*
Y459600D02*
D03*
X745200Y1196200D02*
D03*
Y1170800D02*
D03*
Y1145400D02*
D03*
Y1120000D02*
D03*
Y1094600D02*
D03*
Y1069200D02*
D03*
Y1043800D02*
D03*
Y1018400D02*
D03*
Y993000D02*
D03*
Y967600D02*
D03*
Y942200D02*
D03*
Y916800D02*
D03*
Y891400D02*
D03*
Y866000D02*
D03*
Y840600D02*
D03*
Y815200D02*
D03*
Y789800D02*
D03*
Y764400D02*
D03*
Y739000D02*
D03*
Y713600D02*
D03*
Y688200D02*
D03*
Y662800D02*
D03*
Y637400D02*
D03*
Y612000D02*
D03*
Y586600D02*
D03*
Y561200D02*
D03*
Y535800D02*
D03*
Y510400D02*
D03*
Y485000D02*
D03*
Y459600D02*
D03*
Y434200D02*
D03*
X406000Y377400D02*
D03*
Y402400D02*
D03*
Y427400D02*
D03*
Y452400D02*
D03*
Y477400D02*
D03*
Y502400D02*
D03*
Y527400D02*
D03*
Y552400D02*
D03*
Y577400D02*
D03*
Y602400D02*
D03*
Y627400D02*
D03*
Y652400D02*
D03*
Y677400D02*
D03*
Y702400D02*
D03*
Y727400D02*
D03*
Y752400D02*
D03*
Y777400D02*
D03*
Y802400D02*
D03*
Y827400D02*
D03*
Y852400D02*
D03*
Y877400D02*
D03*
Y902400D02*
D03*
Y927400D02*
D03*
Y952400D02*
D03*
Y977400D02*
D03*
Y1002400D02*
D03*
Y1027400D02*
D03*
Y1052400D02*
D03*
Y1077400D02*
D03*
Y1102400D02*
D03*
Y1127400D02*
D03*
Y1152400D02*
D03*
X356000Y402400D02*
D03*
Y427400D02*
D03*
Y452400D02*
D03*
Y477400D02*
D03*
Y502400D02*
D03*
Y527400D02*
D03*
Y552400D02*
D03*
Y577400D02*
D03*
Y602400D02*
D03*
Y627400D02*
D03*
Y652400D02*
D03*
Y677400D02*
D03*
Y702400D02*
D03*
Y727400D02*
D03*
Y752400D02*
D03*
Y777400D02*
D03*
Y802400D02*
D03*
Y827400D02*
D03*
Y852400D02*
D03*
Y877400D02*
D03*
Y902400D02*
D03*
Y927400D02*
D03*
Y952400D02*
D03*
Y977400D02*
D03*
Y1002400D02*
D03*
Y1027400D02*
D03*
Y1052400D02*
D03*
Y1077400D02*
D03*
Y1102400D02*
D03*
Y1127400D02*
D03*
Y1152400D02*
D03*
D12*
X695200Y434200D02*
D03*
X356000Y377400D02*
D03*
D13*
X331000Y1202400D02*
D03*
Y327400D02*
D03*
D14*
X708400Y351500D02*
D03*
D15*
X683000D02*
D03*
X657600D02*
D03*
X632200D02*
D03*
X606800D02*
D03*
X581400D02*
D03*
X556000D02*
D03*
X708400Y275300D02*
D03*
X683000D02*
D03*
X657600D02*
D03*
X632200D02*
D03*
X606800D02*
D03*
X581400D02*
D03*
X556000D02*
D03*
D16*
X327600Y641200D02*
D03*
X577800Y309400D02*
D03*
X330800Y501600D02*
D03*
X322200Y556800D02*
D03*
X469900Y739648D02*
D03*
X573786Y1132586D02*
D03*
X450088Y871474D02*
D03*
X442976Y630682D02*
D03*
X384156Y991550D02*
D03*
X444642Y501866D02*
D03*
X507028Y978284D02*
D03*
X493268Y945896D02*
D03*
X473600Y909800D02*
D03*
X608200Y570400D02*
D03*
X453200Y789800D02*
D03*
X613800Y724000D02*
D03*
X626600Y737200D02*
D03*
X630200Y768400D02*
D03*
X651400Y721200D02*
D03*
X578400Y419000D02*
D03*
X537200Y992000D02*
D03*
M02*
