<?xml version="1.0" encoding="UTF-8" standalone="no"?>
<!-- Created with Inkscape (http://www.inkscape.org/) -->

<svg
   xmlns:dc="http://purl.org/dc/elements/1.1/"
   xmlns:cc="http://creativecommons.org/ns#"
   xmlns:rdf="http://www.w3.org/1999/02/22-rdf-syntax-ns#"
   xmlns:svg="http://www.w3.org/2000/svg"
   xmlns="http://www.w3.org/2000/svg"
   xmlns:sodipodi="http://sodipodi.sourceforge.net/DTD/sodipodi-0.dtd"
   xmlns:inkscape="http://www.inkscape.org/namespaces/inkscape"
   width="210mm"
   height="297mm"
   viewBox="0 0 210 297"
   version="1.1"
   id="svg8"
   inkscape:version="0.92.5 (2060ec1f9f, 2020-04-08)"
   sodipodi:docname="penteva_logo.svg">
  <defs
     id="defs2" />
  <sodipodi:namedview
     id="base"
     pagecolor="#ffffff"
     bordercolor="#666666"
     borderopacity="1.0"
     inkscape:pageopacity="0.0"
     inkscape:pageshadow="2"
     inkscape:zoom="1.4142136"
     inkscape:cx="205.34314"
     inkscape:cy="-80.346668"
     inkscape:document-units="mm"
     inkscape:current-layer="layer1"
     showgrid="false"
     showguides="true"
     inkscape:window-width="1920"
     inkscape:window-height="1016"
     inkscape:window-x="0"
     inkscape:window-y="27"
     inkscape:window-maximized="1">
    <inkscape:grid
       type="xygrid"
       id="grid815" />
  </sodipodi:namedview>
  <metadata
     id="metadata5">
    <rdf:RDF>
      <cc:Work
         rdf:about="">
        <dc:format>image/svg+xml</dc:format>
        <dc:type
           rdf:resource="http://purl.org/dc/dcmitype/StillImage" />
        <dc:title />
      </cc:Work>
    </rdf:RDF>
  </metadata>
  <g
     inkscape:label="Layer 1"
     inkscape:groupmode="layer"
     id="layer1">
    <path
       style="font-style:normal;font-variant:normal;font-weight:normal;font-stretch:normal;font-size:12.08175468px;line-height:125%;font-family:Uroob;-inkscape-font-specification:Uroob;letter-spacing:0px;word-spacing:0px;fill:none;fill-opacity:1;stroke:#000000;stroke-width:0.26458332px;stroke-linecap:butt;stroke-linejoin:miter;stroke-opacity:1"
       d="m 17.100233,280.80595 c -0.505702,-0.0229 -0.822941,0.0685 -0.951849,0.27392 -0.05949,0.0913 -0.05949,0.17496 0,0.25108 0.05949,0.0761 0.301777,0.4299 0.728154,1.06142 0.436293,0.63154 1.085542,1.50273 1.948212,2.6136 0.872593,1.11088 1.70621,2.20653 2.499472,3.28697 l -5.156437,6.8878 H 14.8393 v -1.52365 H 6.421002 c 0.168573,-0.21303 0.60392,-0.80652 1.307939,-1.78044 l 4.164643,-5.74078 c 2.070758,-2.85445 3.108925,-4.35218 3.108925,-4.49677 0,-0.35763 -0.18815,-0.5935 -0.564951,-0.70761 v -0.0114 H 3.237893 v 1.87176 h 8.210579 c -0.128908,0.16737 -0.352643,0.46412 -0.669952,0.89021 -5.275147,7.12177 -7.907722,10.84624 -7.897858,11.17342 0,0.12704 0.03588,0.2322 0.09017,0.32527 H 0 V 297 h 125.76658 v -1.81925 h -2.95942 v -8.45141 c 0,-0.66955 -0.31232,-1.22881 -0.93701,-1.67772 -0.6247,-0.44893 -1.36859,-0.67338 -2.23127,-0.67338 h -2.528 c -0.58502,0 -1.16538,0.22065 -1.74049,0.66197 v -0.66197 h -2.27577 l 0.0148,10.8025 h -3.4148 c 0.30255,-0.10825 0.59607,-0.24016 0.87196,-0.41658 0.71389,-0.44891 1.06558,-1.00055 1.05572,-1.6549 v -6.41416 c 0,-0.66958 -0.35661,-1.22881 -1.07056,-1.67773 -0.72384,-0.4489 -1.52301,-0.67336 -2.3956,-0.67336 h -1.91854 c -0.90233,0 -1.72005,0.22446 -2.45381,0.67336 -0.73378,0.44892 -1.10022,1.00815 -1.10022,1.67773 v 6.41416 c 0,0.66196 0.36644,1.2174 1.10022,1.66631 0.2797,0.17112 0.57575,0.29927 0.87994,0.40517 h -3.49811 v -10.82532 h -0.54098 v -0.82174 c 0.61843,-0.15992 0.92788,-0.56239 0.92788,-1.20979 0,-0.85217 -0.54476,-1.27827 -1.63549,-1.27827 -0.53546,0 -0.94734,0.11032 -1.23491,0.33098 -0.28755,0.22065 -0.4314,0.53642 -0.4314,0.94729 0,0.41087 0.14385,0.73044 0.4314,0.9587 0.11472,0.088 0.25443,0.15367 0.40859,0.20657 v 0.86626 h -0.48277 v 10.82532 h -1.66403 c 0.0479,-0.0303 0.0994,-0.053 0.14609,-0.0856 v -2.06577 h -0.55011 c -0.0893,0.63913 -0.53558,0.95871 -1.33875,0.95871 -0.79327,-1e-5 -1.18926,-0.28154 -1.18926,-0.84458 v -6.69948 h 2.05208 v -1.72338 h -2.05208 v -2.17991 h -2.69235 v 2.17991 h -1.08538 v 1.72338 h 1.08538 v 6.83644 c 0,0.41848 0.0848,0.7799 0.25338,1.08425 0.18093,0.33106 0.43437,0.60113 0.75326,0.81603 h -3.34175 v -10.80249 h -2.54398 v 7.9321 c 0,0.3576 -0.0984,0.6962 -0.29674,1.01576 -0.19831,0.31944 -0.495876,0.47935 -0.892496,0.47935 h -2.17191 c -0.40655,0 -0.71888,-0.0988 -0.93702,-0.29674 -0.20824,-0.20544 -0.31157,-0.45272 -0.31157,-0.74185 v -8.38862 h -2.54398 v 8.76525 c 0,0.66958 0.28771,1.22884 0.86283,1.67773 0.18798,0.14673 0.39645,0.26073 0.61516,0.35951 h -2.93545 v -1.32963 c -0.28755,0 -0.55558,0.004 -0.80348,0.0114 -0.23798,0.008 -0.44581,-0.0114 -0.62429,-0.0571 -0.38671,-0.0989 -0.57979,-0.37664 -0.57979,-0.83316 v -10.45439 h -2.69235 v 11.05928 c 0,0.7625 0.34621,1.29319 1.02261,1.60354 h -4.42371 c 0.30255,-0.10824 0.59606,-0.24016 0.87196,-0.41658 0.71388,-0.44891 1.06672,-1.00054 1.05685,-1.6549 v -6.41415 c 0,-0.66958 -0.35775,-1.22882 -1.07169,-1.67773 -0.72385,-0.44891 -1.52187,-0.67338 -2.39447,-0.67338 h -1.91852 c -0.90233,0 -1.72004,0.22447 -2.45381,0.67338 -0.73377,0.44891 -1.10137,1.00815 -1.10137,1.67773 v 6.41415 c 0,0.66197 0.3676,1.2174 1.10137,1.66631 0.27956,0.17104 0.57479,0.2993 0.87881,0.40517 h -6.90036 c 0.0896,-0.26019 0.21128,-0.60144 0.45881,-1.27256 0.29748,-0.80652 0.5496,-1.49892 0.75783,-2.07719 0.20823,-0.58586 0.4172,-1.17554 0.62544,-1.76902 0.21814,-0.59348 0.42597,-1.17557 0.62429,-1.74621 0.19831,-0.57066 0.3717,-1.08804 0.52044,-1.55218 0.15865,-0.46411 0.28282,-0.85598 0.37207,-1.17554 0.0992,-0.32725 0.14837,-0.53267 0.14837,-0.61631 0,-0.0837 -0.0296,-0.16355 -0.089,-0.23967 -0.17848,-0.24348 -0.44159,-0.36522 -0.78864,-0.36522 h -1.5168 l -2.662674,8.50275 -2.929738,-8.50275 h -1.65148 c -0.198315,0 -0.381547,0.0494 -0.550116,0.14837 -0.158655,0.0989 -0.23739,0.30053 -0.23739,0.60489 0,0.29915 1.291414,3.7045 3.810835,10.06064 h -5.358454 v -1.45517 h -6.24638 c -0.386717,0 -0.669508,-0.0951 -0.847991,-0.28532 -0.178485,-0.19022 -0.268211,-0.42229 -0.268211,-0.69621 v -3.78914 h 6.753127 v -1.75762 h -6.753127 v -3.52665 c 0,-0.2739 0.08973,-0.50597 0.268211,-0.69619 0.178483,-0.19023 0.461274,-0.28533 0.847991,-0.28533 h 6.24638 v -1.80322 h -6.425565 c -0.912253,0 -1.744724,0.22828 -2.498326,0.68478 -0.753602,0.45653 -1.1299,1.03098 -1.1299,1.72338 v 9.82668 c 0,0.69239 0.376298,1.26306 1.1299,1.71196 0.233027,0.14066 0.477601,0.25151 0.728154,0.3481 H 29.632954 l -5.155298,-6.88781 c 0.356974,-0.47936 0.743113,-0.98913 1.159574,-1.52935 0.416461,-0.54783 0.838192,-1.10708 1.264569,-1.67772 0.436294,-0.57065 0.867866,-1.1375 1.294242,-1.70056 0.436294,-0.57066 0.783065,-1.02719 1.040875,-1.36956 0.257809,-0.34242 0.416431,-0.55927 0.47593,-0.65055 0.05948,-0.0913 0.03488,-0.20546 -0.07419,-0.34239 -0.09916,-0.14459 -0.38687,-0.21686 -0.862829,-0.21686 h -1.859193 l -4.016269,5.38698 -4.015124,-5.38698 z"
       id="path8758" />
    <g
       id="g1517" />
    <g
       id="g1910" />
    <g
       id="g2169" />
    <g
       id="g2428" />
    <path
       style="font-style:normal;font-variant:normal;font-weight:normal;font-stretch:normal;font-size:12.08175468px;line-height:125%;font-family:Uroob;-inkscape-font-specification:Uroob;letter-spacing:0px;word-spacing:0px;fill:none;fill-opacity:1;stroke:#000000;stroke-width:0.26458332px;stroke-linecap:butt;stroke-linejoin:miter;stroke-opacity:1"
       d="m 66.450454,286.03315 h 1.41294 c 0.40655,0 0.71394,0.10272 0.92217,0.30815 0.21815,0.19783 0.32757,0.44131 0.32757,0.73044 v 5.6609 c 0,0.28912 -0.10942,0.53641 -0.32757,0.74185 -0.20823,0.19782 -0.51562,0.29673 -0.92217,0.29673 h -1.41294 c -0.41647,0 -0.71895,-0.0989 -0.90734,-0.29673 -0.1884,-0.20544 -0.28191,-0.45273 -0.28191,-0.74185 v -5.6609 c 0,-0.28913 0.0935,-0.53261 0.28191,-0.73044 0.18839,-0.20543 0.49087,-0.30815 0.90734,-0.30815 z"
       id="path8756" />
    <path
       style="font-style:normal;font-variant:normal;font-weight:normal;font-stretch:normal;font-size:12.08175468px;line-height:125%;font-family:Uroob;-inkscape-font-specification:Uroob;letter-spacing:0px;word-spacing:0px;fill:none;fill-opacity:1;stroke:#000000;stroke-width:0.26458332px;stroke-linecap:butt;stroke-linejoin:miter;stroke-opacity:1"
       d="m 106.41682,286.03315 h 1.41294 c 0.40654,0 0.71395,0.10272 0.92217,0.30815 0.21815,0.19783 0.32643,0.44131 0.32643,0.73044 v 5.6609 c 0,0.28912 -0.10828,0.53641 -0.32643,0.74185 -0.20822,0.19782 -0.51563,0.29673 -0.92217,0.29673 h -1.41294 c -0.41647,0 -0.71895,-0.0989 -0.90734,-0.29673 -0.1884,-0.20544 -0.28305,-0.45273 -0.28305,-0.74185 v -5.6609 c 0,-0.28913 0.0947,-0.53261 0.28305,-0.73044 0.18839,-0.20543 0.49087,-0.30815 0.90734,-0.30815 z"
       id="path8754" />
    <path
       style="font-style:normal;font-variant:normal;font-weight:normal;font-stretch:normal;font-size:12.08175468px;line-height:125%;font-family:Uroob;-inkscape-font-specification:Uroob;letter-spacing:0px;word-spacing:0px;fill:none;fill-opacity:1;stroke:#000000;stroke-width:0.26458332px;stroke-linecap:butt;stroke-linejoin:miter;stroke-opacity:1"
       d="m 116.84268,286.06745 h 2.17191 c 0.40655,0 0.71394,0.10271 0.92218,0.30815 0.21814,0.19782 0.32755,0.44131 0.32755,0.73043 v 8.07477 h -4.61088 v -7.8465 c 0.01,-0.13696 0.0345,-0.28152 0.0742,-0.4337 0.15867,-0.56279 0.53004,-0.84052 1.11507,-0.83315 z"
       id="path8752" />
    <path
       style="font-style:normal;font-variant:normal;font-weight:normal;font-stretch:normal;font-size:12.08175468px;line-height:125%;font-family:Uroob;-inkscape-font-specification:Uroob;letter-spacing:0px;word-spacing:0px;fill:none;fill-opacity:1;stroke:#000000;stroke-width:0.26458332px;stroke-linecap:butt;stroke-linejoin:miter;stroke-opacity:1"
       d="m 22.900367,290.4044 3.593982,4.77638 h -7.18682 z"
       id="path1023" />
    <g
       id="g1224" />
    <g
       id="g2278" />
    <g
       id="g3329" />
    <g
       id="g4381" />
    <g
       id="g5732" />
    <g
       id="g6783" />
    <g
       id="g7835" />
  </g>
  <defs
     id="defs1589">
    <marker
       style="overflow:visible"
       refY="-1.687441"
       refX="-4"
       orient="auto"
       id="CheckToolsAndOPMarker">
      <path
         id="path1831"
         style="fill:#000044; fill-rule:evenodd;stroke:none;"
         d=" m -4.588864,-1.687441 0.0,0.0 L -9.177728,0.0 c 0.73311,-0.996261 0.728882,-2.359329 0.0,-3.374882" />
    </marker>
  </defs>
  <defs
     id="defs1594">
    <marker
       style="overflow:visible"
       refY="-1.687441"
       refX="-4"
       orient="auto"
       id="DrawCurveMarker">
      <path
         id="path1591"
         style="fill:#000044; fill-rule:evenodd;stroke:none;"
         d="m -4.588864,-1.687441 0.0,0.0 L -9.177728,0.0 c 0.73311,-0.996261 0.728882,-2.359329 0.0,-3.374882" />
    </marker>
  </defs>
  <defs
     id="defs1599">
    <marker
       style="overflow:visible"
       refY="-1.687441"
       refX="4"
       orient="auto"
       id="DrawCurveMarker_r">
      <path
         d="m 4.588864,-1.687441 0.0,0.0 L 9.177728,0.0 c -0.73311,-0.996261 -0.728882,-2.359329 0.0,-3.374882"
         style="fill:#000044; fill-rule:evenodd;stroke:none;"
         id="path1838" />
    </marker>
  </defs>
  <defs
     id="defs1604">
    <marker
       style="overflow:visible"
       refY="-1.687441"
       refX="-4"
       orient="auto"
       id="InOutPathMarker">
      <path
         id="path1601"
         style="fill:#0072a7; fill-rule:evenodd;stroke:none;"
         d="m -4.588864,-1.687441 0.0,0.0 L -9.177728,0.0 c 0.73311,-0.996261 0.728882,-2.359329 0.0,-3.374882" />
    </marker>
  </defs>
  <g
     id="g9507" />
</svg>
