<?xml version="1.0" encoding="UTF-8" standalone="no"?>
<!-- Created with Inkscape (http://www.inkscape.org/) -->

<svg
   sodipodi:docname="океан_лого.svg"
   inkscape:version="1.1.2 (0a00cf5339, 2022-02-04)"
   id="svg1105"
   version="1.1"
   viewBox="0 0 200 300"
   height="300mm"
   width="200mm"
   xmlns:inkscape="http://www.inkscape.org/namespaces/inkscape"
   xmlns:sodipodi="http://sodipodi.sourceforge.net/DTD/sodipodi-0.dtd"
   xmlns="http://www.w3.org/2000/svg"
   xmlns:svg="http://www.w3.org/2000/svg">
  <sodipodi:namedview
     id="namedview1107"
     pagecolor="#ffffff"
     bordercolor="#666666"
     borderopacity="1.0"
     inkscape:pageshadow="2"
     inkscape:pageopacity="0.0"
     inkscape:pagecheckerboard="0"
     inkscape:document-units="mm"
     showgrid="true"
     width="211mm"
     inkscape:zoom="1.014768"
     inkscape:cx="176.88772"
     inkscape:cy="1154.4511"
     inkscape:window-width="1920"
     inkscape:window-height="1016"
     inkscape:window-x="0"
     inkscape:window-y="27"
     inkscape:window-maximized="1"
     inkscape:current-layer="layer1">
    <inkscape:grid
       type="xygrid"
       id="grid1166"
       units="mm"
       spacingy="0.99999999"
       spacingx="0.99999999" />
  </sodipodi:namedview>
  <defs
     id="defs1102">
    <marker
       id="CheckToolsAndOPMarker"
       orient="auto"
       refX="-4"
       refY="-1.687441"
       style="overflow:visible">
      <path
         d="m 4.588864,-1.687441 0.0,0.0 L 9.177728,0.0 c -0.73311,-0.996261 -0.728882,-2.359329 0.0,-3.374882"
         style="fill:#000044;fill-rule:evenodd;stroke:none"
         id="path25708" />
    </marker>
    <marker
       id="DrawCurveMarker"
       orient="auto"
       refX="-4"
       refY="-1.687441"
       style="overflow:visible">
      <path
         d="m 4.588864,-1.687441 0.0,0.0 L 9.177728,0.0 c -0.73311,-0.996261 -0.728882,-2.359329 0.0,-3.374882"
         style="fill:#000044;fill-rule:evenodd;stroke:none"
         id="path25711" />
    </marker>
    <marker
       id="DrawCurveMarker_r"
       orient="auto"
       refX="4"
       refY="-1.687441"
       style="overflow:visible">
      <path
         d="m -4.588864,-1.687441 0.0,0.0 L -9.177728,0.0 c 0.73311,-0.996261 0.728882,-2.359329 0.0,-3.374882"
         style="fill:#000044;fill-rule:evenodd;stroke:none"
         id="path25714" />
    </marker>
    <marker
       id="InOutPathMarker"
       orient="auto"
       refX="-4"
       refY="-1.687441"
       style="overflow:visible">
      <path
         d="m 4.588864,-1.687441 0.0,0.0 L 9.177728,0.0 c -0.73311,-0.996261 -0.728882,-2.359329 0.0,-3.374882"
         style="fill:#0072a7;fill-rule:evenodd;stroke:none"
         id="path25717" />
    </marker>
  </defs>
  <g
     inkscape:label="Слой 1"
     inkscape:groupmode="layer"
     id="layer1">
    <path
       style="color:#000000;-inkscape-font-specification:'GOST type B';fill:none;stroke:#000000;stroke-width:0.1;stroke-linecap:round;stroke-linejoin:round;stroke-miterlimit:4;stroke-dasharray:none;stroke-opacity:1"
       d="m 11.500003,289.39062 c -0.259758,-1e-5 -0.507254,0.0977 -0.691406,0.27734 h -0.002 l -0.002,0.002 c -0.09183,0.0918 -0.16217,0.20162 -0.208984,0.32227 -0.04683,0.11707 -0.07031,0.24245 -0.07031,0.37109 v 4.33984 c 0,0.25976 0.09768,0.50725 0.277343,0.69141 l 0.0078,0.01 0.0098,0.006 c 0.08722,0.0748 0.181907,0.13879 0.283204,0.18945 l 0.01563,0.008 0.01758,0.006 c 0.123123,0.0411 0.243806,0.0644 0.363281,0.0644 h 1.445312 c 0.25585,0 0.501645,-0.0966 0.685547,-0.27148 0.189187,-0.17995 0.289063,-0.43442 0.289063,-0.70313 v -4.33984 c 0,-0.25912 -0.100832,-0.5044 -0.28125,-0.68555 -0.17894,-0.18546 -0.429367,-0.28711 -0.69336,-0.2871 z"
       id="path21399" />
    <path
       style="color:#000000;-inkscape-font-specification:'GOST type B';fill:none;stroke:#000000;stroke-width:0.1;stroke-linecap:round;stroke-linejoin:round;stroke-miterlimit:4;stroke-dasharray:none;stroke-opacity:1"
       d="m 11.500003,289.16601 h 1.445312 c 0.34467,0 0.608944,0.10992 0.845704,0.34961 l 0.002,0.002 c 0.240816,0.24081 0.349609,0.50498 0.349609,0.8457 v 4.33984 c 0,0.33677 -0.109637,0.60279 -0.351562,0.84766 -0.240439,0.23983 -0.505654,0.34961 -0.845704,0.34961 h -1.445359 c -0.333528,0 -0.598753,-0.10856 -0.84375,-0.34766 -0.242656,-0.24034 -0.353516,-0.50631 -0.353516,-0.84961 v -4.33984 c 0,-0.34538 0.109209,-0.60921 0.345703,-0.8457 0.240459,-0.24046 0.506894,-0.35156 0.851563,-0.35156 z"
       id="path24154" />
    <path
       style="color:#000000;-inkscape-font-specification:'GOST type B';fill:none;stroke:#000000;stroke-width:0.1;stroke-linecap:round;stroke-linejoin:round;stroke-miterlimit:4;stroke-dasharray:none;stroke-opacity:1"
       d="m 21.49219,289.16601 c 0.01906,0 0.03129,4e-5 0.07227,0.041 l 0.0039,0.004 0.0039,0.004 c 0.03692,0.0337 0.03711,0.0404 0.03711,0.0742 0,-0.0295 -0.01607,0.0221 -0.05078,0.0801 l -2.273438,2.26953 2.298828,4.07031 0.0293,0.10547 c 6.6e-5,0.013 0.0032,0.0183 -0.02734,0.0449 l -0.0059,0.006 -0.0059,0.006 c -0.03026,0.0303 -0.04287,0.0352 -0.08789,0.0352 -0.02531,0 -0.04288,-0.005 -0.09375,-0.0781 l -2.271484,-4.04882 -1.169922,1.15039 v 2.85937 c 0,0.0582 -0.01211,0.0718 -0.0293,0.0898 -0.01419,0.0119 -0.02811,0.0215 -0.08398,0.0215 -0.04303,0 -0.06262,-0.008 -0.08984,-0.0293 -0.0112,-0.009 -0.02148,-0.013 -0.02148,-0.082 v -6.51172 c 0,-0.0282 -4.09e-4,-0.0304 0.03125,-0.0605 0.03884,-0.0371 0.05188,-0.041 0.08008,-0.041 0.03814,0 0.06378,0.0119 0.09375,0.0312 0.01097,0.009 0.01953,0.0112 0.01953,0.0703 v 3.3711 l 0.425781,-0.42383 3.042969,-3.02344 h 0.002 c 0.03447,-0.0345 0.04211,-0.0352 0.07031,-0.0352 z"
       id="path24166" />
    <path
       style="color:#000000;-inkscape-font-specification:'GOST type B';fill:none;stroke:#000000;stroke-width:0.1;stroke-linecap:round;stroke-linejoin:round;stroke-miterlimit:4;stroke-dasharray:none;stroke-opacity:1"
       d="m 24.68555,289.16601 h 2.898437 c 0.03669,0 0.03991,-5e-5 0.06836,0.0312 l 0.0039,0.006 0.0039,0.004 c 0.03446,0.0345 0.03516,0.0421 0.03516,0.0703 0,0.0261 -0.0041,0.0491 -0.03906,0.0937 l -0.002,0.002 c -0.0078,0.0101 -0.0021,0.0176 -0.07031,0.0176 h -2.787109 v 2.66992 h 0.25 1.814453 c 0.03669,0 0.03796,-4e-5 0.06641,0.0312 l 0.0059,0.004 0.0039,0.006 c 0.03446,0.0345 0.03516,0.0421 0.03516,0.0703 0,0.0261 -0.0061,0.0491 -0.04102,0.0937 v 0.002 c -0.0078,0.0101 -0.0021,0.0156 -0.07031,0.0156 h -2.064453 v 3.39453 h 2.787109 c 0.03669,0 0.03991,-4e-5 0.06836,0.0312 l 0.0039,0.004 0.0039,0.006 c 0.03446,0.0345 0.03516,0.0421 0.03516,0.0703 0,0.0261 -0.0041,0.0491 -0.03906,0.0937 h -0.002 v 0.002 c -0.0078,0.0101 -0.0021,0.0156 -0.07031,0.0156 H 24.68549 c -0.08129,0 -0.09985,-0.0178 -0.09961,-0.0176 2.39e-4,2.3e-4 -0.01367,-0.003 -0.01367,-0.0723 v -6.53321 c 0,-0.0789 0.01621,-0.0924 0.01758,-0.0937 0.0014,-0.001 0.01679,-0.0176 0.0957,-0.0176 z"
       id="path24170" />
    <path
       style="color:#000000;-inkscape-font-specification:'GOST type B';fill:none;stroke:#000000;stroke-width:0.1;stroke-linecap:round;stroke-linejoin:round;stroke-miterlimit:4;stroke-dasharray:none;stroke-opacity:1"
       d="m 33.0293,289.62108 -1.417969,4.22657 h 2.830078 l -0.109375,-0.32813 z"
       id="path21367" />
    <path
       style="color:#000000;-inkscape-font-specification:'GOST type B';fill:none;stroke:#000000;stroke-width:0.1;stroke-linecap:round;stroke-linejoin:round;stroke-miterlimit:4;stroke-dasharray:none;stroke-opacity:1"
       d="m 33.0293,289.09374 c 0.02196,0 0.01821,-0.002 0.0332,0.0117 0.01455,0.0132 0.04398,0.0542 0.07031,0.12695 l 2.160157,6.4961 0.01563,0.0742 c -2.64e-4,0.0159 -0.0083,0.0292 -0.03516,0.0566 -0.03298,0.0272 -0.05178,0.0371 -0.08398,0.0371 -0.0062,0 -0.03263,-0.004 -0.07031,-0.0176 0.001,4.2e-4 -9.46e-4,-0.002 0,-0.002 0.03269,0.0136 0.0013,-0.0208 -0.02344,-0.0586 l -0.002,-0.008 c -0.0064,-0.0111 9.39e-4,0.002 -0.0059,-0.0137 l -0.570313,-1.70898 h -2.986241 l -0.05664,0.16992 -0.519531,1.55469 c -0.01082,0.0298 -0.0258,0.0454 -0.04492,0.0625 -0.0063,0.003 -0.03073,0.0113 -0.06055,0.0176 -0.0279,-0.001 -0.04389,-0.004 -0.07227,-0.0312 l -0.0078,-0.008 -0.0098,-0.008 c -0.02123,-0.0166 -0.01958,-0.0214 -0.01953,-0.041 l 0.01563,-0.0742 2.167969,-6.49414 0.002,-0.004 c 0.02633,-0.0727 0.05576,-0.11372 0.07031,-0.12695 0.01499,-0.0136 0.01124,-0.0117 0.0332,-0.0117 z"
       id="path24178" />
    <path
       style="color:#000000;-inkscape-font-specification:'GOST type B';fill:none;stroke:#000000;stroke-width:0.1;stroke-linecap:round;stroke-linejoin:round;stroke-miterlimit:4;stroke-dasharray:none;stroke-opacity:1"
       d="m 41.994144,289.15038 c 0.03747,0 0.05379,0.006 0.08594,0.0332 l 0.0039,0.004 0.0059,0.004 c 0.01017,0.008 0.01563,0.002 0.01563,0.0703 v 6.51172 c 0,0.0349 -0.01218,0.0559 -0.03516,0.084 -0.03604,0.0224 -0.06877,0.0391 -0.08203,0.0391 -0.03114,0 -0.05657,-0.0116 -0.0918,-0.0351 -0.0049,-0.004 -0.01367,-0.005 -0.01367,-0.0723 v -3.50586 h -3.394531 v 3.50586 c 0,0.0582 -0.01017,0.0718 -0.02734,0.0898 -0.01419,0.0119 -0.02811,0.0215 -0.08398,0.0215 -0.04303,0 -0.06262,-0.008 -0.08984,-0.0293 -0.0112,-0.009 -0.02148,-0.013 -0.02148,-0.082 v -6.51172 c 0,-0.0277 0.01558,-0.0521 0.03906,-0.084 0.02166,-0.0154 0.03766,-0.0273 0.07227,-0.0273 0.03747,0 0.05379,0.006 0.08594,0.0332 l 0.0039,0.004 0.0059,0.004 c 0.01017,0.008 0.01563,0.002 0.01563,0.0703 v 2.78321 h 3.394531 v -0.25 -2.54883 c 0,-0.034 0.0021,-0.0431 0.03516,-0.0762 0.03306,-0.0331 0.04221,-0.0352 0.07617,-0.0352 z"
       id="path24182" />
    <path
       style="color:#000000;-inkscape-font-specification:'GOST type B';fill:none;stroke:#000000;stroke-width:0.1;stroke-linecap:round;stroke-linejoin:round;stroke-miterlimit:4;stroke-dasharray:none;stroke-opacity:1"
       d="m 51.820315,289.16601 c 0.509608,0 0.912014,0.16058 1.257813,0.49414 h 0.002 c 0.35079,0.33233 0.511719,0.69891 0.511719,1.15234 0,0.25148 -0.06727,0.50495 -0.205078,0.76953 -6.54e-4,10e-4 6.56e-4,0.003 0,0.004 l -2.564453,4.09179 h 2.693359 c 0.03669,0 0.03991,-4e-5 0.06836,0.0312 l 0.0039,0.004 0.0039,0.006 c 0.03446,0.0345 0.03516,0.0421 0.03516,0.0703 0,0.0202 -0.0031,0.0438 -0.03906,0.0898 l -0.002,0.002 -0.002,0.002 c -0.0098,0.0133 -0.0025,0.0176 -0.06836,0.0176 h -2.892578 c -0.100211,0 -0.145105,-0.0224 -0.146485,-0.0234 -0.0014,-0.001 0.002,0.0243 0.002,-0.0156 0,-0.0113 0.01236,-0.0636 0.05664,-0.14258 5.25e-4,-9.4e-4 -5.34e-4,-0.001 0,-0.002 l 2.673828,-4.26172 0.0059,-0.0137 c 0.102081,-0.21595 0.158203,-0.43285 0.158203,-0.64844 0,-0.37488 -0.157028,-0.722 -0.439453,-0.98828 -0.136503,-0.12824 -0.296745,-0.22998 -0.47461,-0.30274 -0.182909,-0.0748 -0.380832,-0.11132 -0.585937,-0.11132 -0.226613,0 -0.449823,0.0601 -0.652344,0.17578 l -0.0039,0.004 -0.0039,0.002 c -0.198321,0.12547 -0.367107,0.29077 -0.496094,0.48828 v 0.004 l -0.002,0.002 c 4.54e-4,-7.4e-4 -0.02245,0.0167 -0.03711,0.0293 l -0.06055,0.0137 c -0.02659,-10e-4 -0.0498,-0.008 -0.08203,-0.0332 -0.02621,-0.0242 -0.0293,-0.0299 -0.0293,-0.0645 0,0.0186 0.0121,-0.031 0.03125,-0.082 0.142258,-0.21835 0.329876,-0.39833 0.576172,-0.54297 l 0.002,-0.002 c 0.122656,-0.0703 0.244889,-0.12334 0.367188,-0.16211 0.119474,-0.0379 0.231319,-0.0566 0.33789,-0.0566 z"
       id="path24186" />
    <path
       style="color:#000000;-inkscape-font-specification:'GOST type B';fill:none;stroke:#000000;stroke-width:0.1;stroke-linecap:round;stroke-linejoin:round;stroke-miterlimit:4;stroke-dasharray:none;stroke-opacity:1"
       d="m 58.175784,289.16601 c 0.05303,0 0.06466,0.008 0.08789,0.0312 l 0.0059,0.006 0.0059,0.006 c 0.02557,0.0221 0.02532,0.0248 0.02539,0.0625 l -0.0078,0.0567 -1.404297,4.90234 h 2.277344 v -1.33594 c 0,-0.0276 0.01374,-0.0522 0.03711,-0.084 0.02179,-0.0156 0.03946,-0.0274 0.07422,-0.0274 0.03747,0 0.05184,0.006 0.08398,0.0332 l 0.0059,0.004 0.0039,0.004 c 0.01017,0.008 0.01758,0.002 0.01758,0.0703 v 1.33594 h 0.25 0.722656 c 0.03669,0 0.03992,-4e-5 0.06836,0.0312 l 0.0039,0.006 0.0059,0.004 c 0.03446,0.0345 0.03516,0.0421 0.03516,0.0703 0,0.0202 -0.005,0.0438 -0.04102,0.0898 l -0.002,0.002 -0.002,0.004 c -0.0098,0.0133 -0.0025,0.0156 -0.06836,0.0156 h -0.972656 v 1.33594 c 0,0.0582 -0.01017,0.0718 -0.02734,0.0898 -0.01417,0.0119 -0.0281,0.0215 -0.08398,0.0215 -0.04387,0 -0.06375,-0.007 -0.0918,-0.0293 -0.0112,-0.009 -0.01953,-0.013 -0.01953,-0.082 v -1.33594 h -2.421875 c -0.09321,0 -0.129756,-0.0202 -0.128907,-0.0195 l 0.0098,-0.0664 0.01563,-0.0645 1.445312,-5.05468 c 0.006,-0.0211 0.02279,-0.042 0.04492,-0.0664 l 0.02344,-0.0117 0.002,-0.002 c 0.0041,-10e-4 0.0065,-0.002 0.01953,-0.002 z"
       id="path24190" />
    <path
       style="color:#000000;-inkscape-font-specification:'GOST type B';fill:none;stroke:#000000;stroke-width:0.1;stroke-linecap:round;stroke-linejoin:round;stroke-miterlimit:4;stroke-dasharray:none;stroke-opacity:1"
       d="m 64.820315,289.39062 c -0.296888,-1e-5 -0.575749,0.11517 -0.789062,0.32421 h -0.002 v 0.002 c -0.210897,0.2109 -0.326172,0.49153 -0.326172,0.79101 v 4.05078 c 0,0.29689 0.115171,0.57771 0.324219,0.79102 l 0.002,0.002 c 0.210898,0.2109 0.491527,0.32617 0.791015,0.32617 h 0.433598 c 0.29308,0 0.5701,-0.11378 0.7832,-0.31836 0.2173,-0.20861 0.33594,-0.49486 0.33594,-0.80078 v -4.05078 c 0,-0.296 -0.11511,-0.57507 -0.32422,-0.78515 -0.20784,-0.21546 -0.49254,-0.33204 -0.79492,-0.33203 z"
       id="path21383" />
    <path
       style="color:#000000;-inkscape-font-specification:'GOST type B';fill:none;stroke:#000000;stroke-width:0.1;stroke-linecap:round;stroke-linejoin:round;stroke-miterlimit:4;stroke-dasharray:none;stroke-opacity:1"
       d="m 64.820315,289.16601 h 0.433598 c 0.37063,0 0.66859,0.12276 0.9414,0.39257 v 0.002 h 0.002 c 0.27357,0.26464 0.39843,0.56228 0.39843,0.94726 v 4.05078 c 0,0.37064 -0.12209,0.67077 -0.39257,0.94727 -0.2644,0.27033 -0.5636,0.39453 -0.94922,0.39453 h -0.433598 c -0.370646,0 -0.669435,-0.12238 -0.945312,-0.38867 -0.270002,-0.26407 -0.396484,-0.5636 -0.396484,-0.95313 v -4.05078 c 0,-0.36277 0.123419,-0.65841 0.394531,-0.93554 v -0.002 c 0.268869,-0.27783 0.566842,-0.40429 0.947265,-0.40429 z"
       id="path24198" />
    <path
       style="color:#000000;-inkscape-font-specification:'GOST type B';fill:none;stroke:#000000;stroke-width:0.1;stroke-linecap:round;stroke-linejoin:round;stroke-miterlimit:4;stroke-dasharray:none;stroke-opacity:1"
       d="m 69.712893,295.67772 c 0.003,0 0.0217,-0.001 0.0703,0.043 l 0.004,0.004 0.004,0.004 c 0.037,0.0308 0.0332,0.0296 0.0332,0.0605 0,0.0161 -0.001,0.0342 -0.043,0.0801 -0.0284,0.0313 -0.0317,0.0312 -0.0684,0.0312 -0.0408,0 -0.0535,-0.008 -0.0781,-0.0312 -0.0238,-0.03 -0.0332,-0.0494 -0.0332,-0.0801 0,-0.0424 0.005,-0.05 0.0312,-0.0762 0.0317,-0.0317 0.0405,-0.0352 0.0801,-0.0352 z"
       id="path24216" />
    <path
       style="color:#000000;-inkscape-font-specification:'GOST type B';fill:none;stroke:#000000;stroke-width:0.1;stroke-linecap:round;stroke-linejoin:round;stroke-miterlimit:4;stroke-dasharray:none;stroke-opacity:1"
       d="m 74.140633,289.16601 c 0.5096,0 0.91201,0.16058 1.25781,0.49414 h 0.002 c 0.35079,0.33233 0.51172,0.69891 0.51172,1.15234 0,0.25148 -0.0673,0.50495 -0.20508,0.76953 -6.5e-4,10e-4 6.6e-4,0.003 0,0.004 l -2.5664,4.09179 h 2.69531 c 0.0367,0 0.0399,-4e-5 0.0684,0.0312 l 0.004,0.004 0.004,0.006 c 0.0345,0.0345 0.0352,0.0421 0.0352,0.0703 0,0.0202 -0.003,0.0438 -0.0391,0.0898 l -0.002,0.002 -0.002,0.002 c -0.01,0.0134 -0.003,0.0176 -0.0684,0.0176 h -2.89453 c -0.10021,0 -0.14316,-0.0224 -0.14453,-0.0234 -0.001,-0.001 0.002,0.0243 0.002,-0.0156 0,-0.0112 0.0123,-0.0636 0.0566,-0.14258 5.2e-4,-9.4e-4 -5.4e-4,-0.001 0,-0.002 l 2.67383,-4.26172 0.006,-0.0137 c 0.10208,-0.21595 0.1582,-0.43285 0.1582,-0.64844 0,-0.37487 -0.15703,-0.722 -0.43945,-0.98828 h -0.002 c -0.1365,-0.12823 -0.29479,-0.22998 -0.47265,-0.30274 -0.18291,-0.0748 -0.38083,-0.11132 -0.58594,-0.11132 -0.22661,0 -0.44983,0.0601 -0.65234,0.17578 l -0.004,0.004 -0.006,0.002 c -0.19833,0.12547 -0.36515,0.29077 -0.49414,0.48828 l -0.002,0.004 -0.002,0.002 c 4.9e-4,-7.9e-4 -0.0209,0.017 -0.0351,0.0293 l -0.0606,0.0137 c -0.0266,-10e-4 -0.0498,-0.008 -0.082,-0.0332 -0.0262,-0.0242 -0.0293,-0.0299 -0.0293,-0.0645 0,0.0186 0.0121,-0.031 0.0312,-0.082 0.14226,-0.21835 0.32987,-0.39833 0.57617,-0.54297 l 0.002,-0.002 c 0.12266,-0.0703 0.24489,-0.12334 0.36718,-0.16211 0.11948,-0.0379 0.23132,-0.0566 0.3379,-0.0566 z"
       id="path24220" />
    <path
       id="rect14524"
       style="opacity:1;fill:none;stroke:#000000;stroke-width:0.3;stroke-linecap:round;paint-order:fill markers stroke"
       d="m 0,285 h 86.25 v 15 H 0 Z" />
    <g
       gcodetools="Gcodetools orientation group"
       id="g25751">
      <g
         gcodetools="Gcodetools orientation point (2 points)"
         id="g25741">
        <path
           style="stroke:none;fill:#000000;"
           gcodetools="Gcodetools orientation point arrow"
           d="m 0 300 l 2.9375 -6.34375 l 0.8125 1.90625 l 6.84375 -6.84375 l 0 0 l 0.6875 0.6875 l -6.84375 6.84375 l 1.90625 0.8125 z"
           id="path25735" />
        <text
           x="10.0"
           y="290.0"
           style="font-family:DejaVu Sans;font-style:normal;font-variant:normal;font-weight:normal;font-stretch:normal;font-family:DejaVu Sans;fill:#000000;fill-opacity:1;stroke:none;font-size:10.000000px;"
           gcodetools="Gcodetools orientation point text"
           xml:space="preserve"
           id="text25739"><tspan
             x="10.0"
             y="290.0"
             sodipodi:role="line"
             id="tspan25737">(0.0; 0.0; 0.0)</tspan></text>
      </g>
      <g
         gcodetools="Gcodetools orientation point (2 points)"
         id="g25749">
        <path
           style="stroke:none;fill:#000000;"
           gcodetools="Gcodetools orientation point arrow"
           d="m 100 300 l 2.9375 -6.34375 l 0.8125 1.90625 l 6.84375 -6.84375 l 0 0 l 0.6875 0.6875 l -6.84375 6.84375 l 1.90625 0.8125 z"
           id="path25743" />
        <text
           x="110.0"
           y="290.0"
           style="font-family:DejaVu Sans;font-style:normal;font-variant:normal;font-weight:normal;font-stretch:normal;font-family:DejaVu Sans;fill:#000000;fill-opacity:1;stroke:none;font-size:10.000000px;"
           gcodetools="Gcodetools orientation point text"
           xml:space="preserve"
           id="text25747"><tspan
             x="110.0"
             y="290.0"
             sodipodi:role="line"
             id="tspan25745">(100.0; 0.0; -0.125)</tspan></text>
      </g>
    </g>
    <g
       gcodetools="Gcodetools tool definition"
       transform="translate(-111.74082,342.43206)"
       id="g25965">
      <path
         gcodetools="Gcodetools tool background"
         style="fill-opacity:0.5;stroke:#444444"
         d="M -20,-20 H 380 V 350 H -20 Z"
         id="path25753" />
      <g
         gcodetools="Gcodetools tool parameter"
         id="g25763">
        <text
           x="0"
           y="0"
           style="font-style:normal;font-variant:normal;font-weight:normal;font-stretch:normal;font-size:20px;font-family:'DejaVu Sans';fill:#000000;fill-opacity:1;stroke:none"
           gcodetools="Gcodetools tool definition field name"
           xml:space="preserve"
           id="text25757"><tspan
             x="0"
             y="0"
             sodipodi:role="line"
             id="tspan25755">name</tspan></text>
        <text
           x="150"
           y="0"
           style="font-style:normal;font-variant:normal;font-weight:normal;font-stretch:normal;font-size:20px;font-family:'DejaVu Sans';fill:#000000;fill-opacity:1;stroke:none"
           gcodetools="Gcodetools tool definition field value"
           xml:space="preserve"
           id="text25761"><tspan
             x="150"
             y="0"
             sodipodi:role="line"
             id="tspan25759">Default tool</tspan></text>
      </g>
      <g
         gcodetools="Gcodetools tool parameter"
         id="g25773">
        <text
           x="0"
           y="20"
           style="font-style:normal;font-variant:normal;font-weight:normal;font-stretch:normal;font-size:10px;font-family:'DejaVu Sans';fill:#000000;fill-opacity:1;stroke:none"
           gcodetools="Gcodetools tool definition field name"
           xml:space="preserve"
           id="text25767"><tspan
             x="0"
             y="20"
             sodipodi:role="line"
             id="tspan25765">id</tspan></text>
        <text
           x="150"
           y="20"
           style="font-style:normal;font-variant:normal;font-weight:normal;font-stretch:normal;font-size:10px;font-family:'DejaVu Sans';fill:#000000;fill-opacity:1;stroke:none"
           gcodetools="Gcodetools tool definition field value"
           xml:space="preserve"
           id="text25771"><tspan
             x="150"
             y="20"
             sodipodi:role="line"
             id="tspan25769">default tool</tspan></text>
      </g>
      <g
         gcodetools="Gcodetools tool parameter"
         id="g25783">
        <text
           x="0"
           y="35"
           style="font-style:normal;font-variant:normal;font-weight:normal;font-stretch:normal;font-size:10px;font-family:'DejaVu Sans';fill:#000000;fill-opacity:1;stroke:none"
           gcodetools="Gcodetools tool definition field name"
           xml:space="preserve"
           id="text25777"><tspan
             x="0"
             y="35"
             sodipodi:role="line"
             id="tspan25775">diameter</tspan></text>
        <text
           x="150"
           y="35"
           style="font-style:normal;font-variant:normal;font-weight:normal;font-stretch:normal;font-size:10px;font-family:'DejaVu Sans';fill:#000000;fill-opacity:1;stroke:none"
           gcodetools="Gcodetools tool definition field value"
           xml:space="preserve"
           id="text25781"><tspan
             x="150"
             y="35"
             sodipodi:role="line"
             id="tspan25779">10.0</tspan></text>
      </g>
      <g
         gcodetools="Gcodetools tool parameter"
         id="g25793">
        <text
           x="0"
           y="50"
           style="font-style:normal;font-variant:normal;font-weight:normal;font-stretch:normal;font-size:10px;font-family:'DejaVu Sans';fill:#000000;fill-opacity:1;stroke:none"
           gcodetools="Gcodetools tool definition field name"
           xml:space="preserve"
           id="text25787"><tspan
             x="0"
             y="50"
             sodipodi:role="line"
             id="tspan25785">feed</tspan></text>
        <text
           x="150"
           y="50"
           style="font-style:normal;font-variant:normal;font-weight:normal;font-stretch:normal;font-size:10px;font-family:'DejaVu Sans';fill:#000000;fill-opacity:1;stroke:none"
           gcodetools="Gcodetools tool definition field value"
           xml:space="preserve"
           id="text25791"><tspan
             x="150"
             y="50"
             sodipodi:role="line"
             id="tspan25789">50.0</tspan></text>
      </g>
      <g
         gcodetools="Gcodetools tool parameter"
         id="g25803">
        <text
           x="0"
           y="65"
           style="font-style:normal;font-variant:normal;font-weight:normal;font-stretch:normal;font-size:10px;font-family:'DejaVu Sans';fill:#000000;fill-opacity:1;stroke:none"
           gcodetools="Gcodetools tool definition field name"
           xml:space="preserve"
           id="text25797"><tspan
             x="0"
             y="65"
             sodipodi:role="line"
             id="tspan25795">shape</tspan></text>
        <text
           x="150"
           y="65"
           style="font-style:normal;font-variant:normal;font-weight:normal;font-stretch:normal;font-size:10px;font-family:'DejaVu Sans';fill:#000000;fill-opacity:1;stroke:none"
           gcodetools="Gcodetools tool definition field value"
           xml:space="preserve"
           id="text25801"><tspan
             x="150"
             y="65"
             sodipodi:role="line"
             id="tspan25799">10</tspan></text>
      </g>
      <g
         gcodetools="Gcodetools tool parameter"
         id="g25813">
        <text
           x="0"
           y="80"
           style="font-style:normal;font-variant:normal;font-weight:normal;font-stretch:normal;font-size:10px;font-family:'DejaVu Sans';fill:#000000;fill-opacity:1;stroke:none"
           gcodetools="Gcodetools tool definition field name"
           xml:space="preserve"
           id="text25807"><tspan
             x="0"
             y="80"
             sodipodi:role="line"
             id="tspan25805">penetration angle</tspan></text>
        <text
           x="150"
           y="80"
           style="font-style:normal;font-variant:normal;font-weight:normal;font-stretch:normal;font-size:10px;font-family:'DejaVu Sans';fill:#000000;fill-opacity:1;stroke:none"
           gcodetools="Gcodetools tool definition field value"
           xml:space="preserve"
           id="text25811"><tspan
             x="150"
             y="80"
             sodipodi:role="line"
             id="tspan25809">90.0</tspan></text>
      </g>
      <g
         gcodetools="Gcodetools tool parameter"
         id="g25823">
        <text
           x="0"
           y="95"
           style="font-style:normal;font-variant:normal;font-weight:normal;font-stretch:normal;font-size:10px;font-family:'DejaVu Sans';fill:#000000;fill-opacity:1;stroke:none"
           gcodetools="Gcodetools tool definition field name"
           xml:space="preserve"
           id="text25817"><tspan
             x="0"
             y="95"
             sodipodi:role="line"
             id="tspan25815">penetration feed</tspan></text>
        <text
           x="150"
           y="95"
           style="font-style:normal;font-variant:normal;font-weight:normal;font-stretch:normal;font-size:10px;font-family:'DejaVu Sans';fill:#000000;fill-opacity:1;stroke:none"
           gcodetools="Gcodetools tool definition field value"
           xml:space="preserve"
           id="text25821"><tspan
             x="150"
             y="95"
             sodipodi:role="line"
             id="tspan25819">100.0</tspan></text>
      </g>
      <g
         gcodetools="Gcodetools tool parameter"
         id="g25833">
        <text
           x="0"
           y="110"
           style="font-style:normal;font-variant:normal;font-weight:normal;font-stretch:normal;font-size:10px;font-family:'DejaVu Sans';fill:#000000;fill-opacity:1;stroke:none"
           gcodetools="Gcodetools tool definition field name"
           xml:space="preserve"
           id="text25827"><tspan
             x="0"
             y="110"
             sodipodi:role="line"
             id="tspan25825">passing feed</tspan></text>
        <text
           x="150"
           y="110"
           style="font-style:normal;font-variant:normal;font-weight:normal;font-stretch:normal;font-size:10px;font-family:'DejaVu Sans';fill:#000000;fill-opacity:1;stroke:none"
           gcodetools="Gcodetools tool definition field value"
           xml:space="preserve"
           id="text25831"><tspan
             x="150"
             y="110"
             sodipodi:role="line"
             id="tspan25829">800</tspan></text>
      </g>
      <g
         gcodetools="Gcodetools tool parameter"
         id="g25843">
        <text
           x="0"
           y="125"
           style="font-style:normal;font-variant:normal;font-weight:normal;font-stretch:normal;font-size:10px;font-family:'DejaVu Sans';fill:#000000;fill-opacity:1;stroke:none"
           gcodetools="Gcodetools tool definition field name"
           xml:space="preserve"
           id="text25837"><tspan
             x="0"
             y="125"
             sodipodi:role="line"
             id="tspan25835">depth step</tspan></text>
        <text
           x="150"
           y="125"
           style="font-style:normal;font-variant:normal;font-weight:normal;font-stretch:normal;font-size:10px;font-family:'DejaVu Sans';fill:#000000;fill-opacity:1;stroke:none"
           gcodetools="Gcodetools tool definition field value"
           xml:space="preserve"
           id="text25841"><tspan
             x="150"
             y="125"
             sodipodi:role="line"
             id="tspan25839">0.1</tspan></text>
      </g>
      <g
         gcodetools="Gcodetools tool parameter"
         id="g25853">
        <text
           x="0"
           y="140"
           style="font-style:normal;font-variant:normal;font-weight:normal;font-stretch:normal;font-size:10px;font-family:'DejaVu Sans';fill:#000000;fill-opacity:1;stroke:none"
           gcodetools="Gcodetools tool definition field name"
           xml:space="preserve"
           id="text25847"><tspan
             x="0"
             y="140"
             sodipodi:role="line"
             id="tspan25845">in trajectotry</tspan></text>
        <text
           x="150"
           y="140"
           style="font-style:normal;font-variant:normal;font-weight:normal;font-stretch:normal;font-size:10px;font-family:'DejaVu Sans';fill:#000000;fill-opacity:1;stroke:none"
           gcodetools="Gcodetools tool definition field value"
           xml:space="preserve"
           id="text25851"><tspan
             x="150"
             y="140"
             sodipodi:role="line"
             id="tspan25849">(None)</tspan></text>
      </g>
      <g
         gcodetools="Gcodetools tool parameter"
         id="g25863">
        <text
           x="0"
           y="155"
           style="font-style:normal;font-variant:normal;font-weight:normal;font-stretch:normal;font-size:10px;font-family:'DejaVu Sans';fill:#000000;fill-opacity:1;stroke:none"
           gcodetools="Gcodetools tool definition field name"
           xml:space="preserve"
           id="text25857"><tspan
             x="0"
             y="155"
             sodipodi:role="line"
             id="tspan25855">out trajectotry</tspan></text>
        <text
           x="150"
           y="155"
           style="font-style:normal;font-variant:normal;font-weight:normal;font-stretch:normal;font-size:10px;font-family:'DejaVu Sans';fill:#000000;fill-opacity:1;stroke:none"
           gcodetools="Gcodetools tool definition field value"
           xml:space="preserve"
           id="text25861"><tspan
             x="150"
             y="155"
             sodipodi:role="line"
             id="tspan25859">(None)</tspan></text>
      </g>
      <g
         gcodetools="Gcodetools tool parameter"
         id="g25873">
        <text
           x="0"
           y="170"
           style="font-style:normal;font-variant:normal;font-weight:normal;font-stretch:normal;font-size:10px;font-family:'DejaVu Sans';fill:#000000;fill-opacity:1;stroke:none"
           gcodetools="Gcodetools tool definition field name"
           xml:space="preserve"
           id="text25867"><tspan
             x="0"
             y="170"
             sodipodi:role="line"
             id="tspan25865">gcode before path</tspan></text>
        <text
           x="150"
           y="170"
           style="font-style:normal;font-variant:normal;font-weight:normal;font-stretch:normal;font-size:10px;font-family:'DejaVu Sans';fill:#000000;fill-opacity:1;stroke:none"
           gcodetools="Gcodetools tool definition field value"
           xml:space="preserve"
           id="text25871"><tspan
             x="150"
             y="170"
             sodipodi:role="line"
             id="tspan25869">(None)</tspan></text>
      </g>
      <g
         gcodetools="Gcodetools tool parameter"
         id="g25883">
        <text
           x="0"
           y="185"
           style="font-style:normal;font-variant:normal;font-weight:normal;font-stretch:normal;font-size:10px;font-family:'DejaVu Sans';fill:#000000;fill-opacity:1;stroke:none"
           gcodetools="Gcodetools tool definition field name"
           xml:space="preserve"
           id="text25877"><tspan
             x="0"
             y="185"
             sodipodi:role="line"
             id="tspan25875">gcode after path</tspan></text>
        <text
           x="150"
           y="185"
           style="font-style:normal;font-variant:normal;font-weight:normal;font-stretch:normal;font-size:10px;font-family:'DejaVu Sans';fill:#000000;fill-opacity:1;stroke:none"
           gcodetools="Gcodetools tool definition field value"
           xml:space="preserve"
           id="text25881"><tspan
             x="150"
             y="185"
             sodipodi:role="line"
             id="tspan25879">(None)</tspan></text>
      </g>
      <g
         gcodetools="Gcodetools tool parameter"
         id="g25893">
        <text
           x="0"
           y="200"
           style="font-style:normal;font-variant:normal;font-weight:normal;font-stretch:normal;font-size:10px;font-family:'DejaVu Sans';fill:#000000;fill-opacity:1;stroke:none"
           gcodetools="Gcodetools tool definition field name"
           xml:space="preserve"
           id="text25887"><tspan
             x="0"
             y="200"
             sodipodi:role="line"
             id="tspan25885">sog</tspan></text>
        <text
           x="150"
           y="200"
           style="font-style:normal;font-variant:normal;font-weight:normal;font-stretch:normal;font-size:10px;font-family:'DejaVu Sans';fill:#000000;fill-opacity:1;stroke:none"
           gcodetools="Gcodetools tool definition field value"
           xml:space="preserve"
           id="text25891"><tspan
             x="150"
             y="200"
             sodipodi:role="line"
             id="tspan25889">(None)</tspan></text>
      </g>
      <g
         gcodetools="Gcodetools tool parameter"
         id="g25903">
        <text
           x="0"
           y="215"
           style="font-style:normal;font-variant:normal;font-weight:normal;font-stretch:normal;font-size:10px;font-family:'DejaVu Sans';fill:#000000;fill-opacity:1;stroke:none"
           gcodetools="Gcodetools tool definition field name"
           xml:space="preserve"
           id="text25897"><tspan
             x="0"
             y="215"
             sodipodi:role="line"
             id="tspan25895">spinlde rpm</tspan></text>
        <text
           x="150"
           y="215"
           style="font-style:normal;font-variant:normal;font-weight:normal;font-stretch:normal;font-size:10px;font-family:'DejaVu Sans';fill:#000000;fill-opacity:1;stroke:none"
           gcodetools="Gcodetools tool definition field value"
           xml:space="preserve"
           id="text25901"><tspan
             x="150"
             y="215"
             sodipodi:role="line"
             id="tspan25899">(None)</tspan></text>
      </g>
      <g
         gcodetools="Gcodetools tool parameter"
         id="g25913">
        <text
           x="0"
           y="230"
           style="font-style:normal;font-variant:normal;font-weight:normal;font-stretch:normal;font-size:10px;font-family:'DejaVu Sans';fill:#000000;fill-opacity:1;stroke:none"
           gcodetools="Gcodetools tool definition field name"
           xml:space="preserve"
           id="text25907"><tspan
             x="0"
             y="230"
             sodipodi:role="line"
             id="tspan25905">CW or CCW</tspan></text>
        <text
           x="150"
           y="230"
           style="font-style:normal;font-variant:normal;font-weight:normal;font-stretch:normal;font-size:10px;font-family:'DejaVu Sans';fill:#000000;fill-opacity:1;stroke:none"
           gcodetools="Gcodetools tool definition field value"
           xml:space="preserve"
           id="text25911"><tspan
             x="150"
             y="230"
             sodipodi:role="line"
             id="tspan25909">(None)</tspan></text>
      </g>
      <g
         gcodetools="Gcodetools tool parameter"
         id="g25923">
        <text
           x="0"
           y="245"
           style="font-style:normal;font-variant:normal;font-weight:normal;font-stretch:normal;font-size:10px;font-family:'DejaVu Sans';fill:#000000;fill-opacity:1;stroke:none"
           gcodetools="Gcodetools tool definition field name"
           xml:space="preserve"
           id="text25917"><tspan
             x="0"
             y="245"
             sodipodi:role="line"
             id="tspan25915">tool change gcode</tspan></text>
        <text
           x="150"
           y="245"
           style="font-style:normal;font-variant:normal;font-weight:normal;font-stretch:normal;font-size:10px;font-family:'DejaVu Sans';fill:#000000;fill-opacity:1;stroke:none"
           gcodetools="Gcodetools tool definition field value"
           xml:space="preserve"
           id="text25921"><tspan
             x="150"
             y="245"
             sodipodi:role="line"
             id="tspan25919">(None)</tspan></text>
      </g>
      <g
         gcodetools="Gcodetools tool parameter"
         id="g25933">
        <text
           x="0"
           y="260"
           style="font-style:normal;font-variant:normal;font-weight:normal;font-stretch:normal;font-size:10px;font-family:'DejaVu Sans';fill:#000000;fill-opacity:1;stroke:none"
           gcodetools="Gcodetools tool definition field name"
           xml:space="preserve"
           id="text25927"><tspan
             x="0"
             y="260"
             sodipodi:role="line"
             id="tspan25925">4th axis meaning</tspan></text>
        <text
           x="150"
           y="260"
           style="font-style:normal;font-variant:normal;font-weight:normal;font-stretch:normal;font-size:10px;font-family:'DejaVu Sans';fill:#000000;fill-opacity:1;stroke:none"
           gcodetools="Gcodetools tool definition field value"
           xml:space="preserve"
           id="text25931"><tspan
             x="150"
             y="260"
             sodipodi:role="line"
             id="tspan25929">(None)</tspan></text>
      </g>
      <g
         gcodetools="Gcodetools tool parameter"
         id="g25943">
        <text
           x="0"
           y="275"
           style="font-style:normal;font-variant:normal;font-weight:normal;font-stretch:normal;font-size:10px;font-family:'DejaVu Sans';fill:#000000;fill-opacity:1;stroke:none"
           gcodetools="Gcodetools tool definition field name"
           xml:space="preserve"
           id="text25937"><tspan
             x="0"
             y="275"
             sodipodi:role="line"
             id="tspan25935">4th axis scale</tspan></text>
        <text
           x="150"
           y="275"
           style="font-style:normal;font-variant:normal;font-weight:normal;font-stretch:normal;font-size:10px;font-family:'DejaVu Sans';fill:#000000;fill-opacity:1;stroke:none"
           gcodetools="Gcodetools tool definition field value"
           xml:space="preserve"
           id="text25941"><tspan
             x="150"
             y="275"
             sodipodi:role="line"
             id="tspan25939">1.0</tspan></text>
      </g>
      <g
         gcodetools="Gcodetools tool parameter"
         id="g25953">
        <text
           x="0"
           y="290"
           style="font-style:normal;font-variant:normal;font-weight:normal;font-stretch:normal;font-size:10px;font-family:'DejaVu Sans';fill:#000000;fill-opacity:1;stroke:none"
           gcodetools="Gcodetools tool definition field name"
           xml:space="preserve"
           id="text25947"><tspan
             x="0"
             y="290"
             sodipodi:role="line"
             id="tspan25945">4th axis offset</tspan></text>
        <text
           x="150"
           y="290"
           style="font-style:normal;font-variant:normal;font-weight:normal;font-stretch:normal;font-size:10px;font-family:'DejaVu Sans';fill:#000000;fill-opacity:1;stroke:none"
           gcodetools="Gcodetools tool definition field value"
           xml:space="preserve"
           id="text25951"><tspan
             x="150"
             y="290"
             sodipodi:role="line"
             id="tspan25949">0.0</tspan></text>
      </g>
      <g
         gcodetools="Gcodetools tool parameter"
         id="g25963">
        <text
           x="0"
           y="305"
           style="font-style:normal;font-variant:normal;font-weight:normal;font-stretch:normal;font-size:10px;font-family:'DejaVu Sans';fill:#000000;fill-opacity:1;stroke:none"
           gcodetools="Gcodetools tool definition field name"
           xml:space="preserve"
           id="text25957"><tspan
             x="0"
             y="305"
             sodipodi:role="line"
             id="tspan25955">fine feed</tspan></text>
        <text
           x="150"
           y="305"
           style="font-style:normal;font-variant:normal;font-weight:normal;font-stretch:normal;font-size:10px;font-family:'DejaVu Sans';fill:#000000;fill-opacity:1;stroke:none"
           gcodetools="Gcodetools tool definition field value"
           xml:space="preserve"
           id="text25961"><tspan
             x="150"
             y="305"
             sodipodi:role="line"
             id="tspan25959">800</tspan></text>
      </g>
    </g>
    <g
       id="g25967" />
    <g
       gcodetools="Preview group"
       id="g26947" />
    <g
       gcodetools="Preview group"
       id="g26949" />
    <g
       gcodetools="Preview group"
       id="g26951" />
    <g
       gcodetools="Preview group"
       id="g26953" />
    <g
       gcodetools="Preview group"
       id="g26955" />
    <g
       gcodetools="Preview group"
       id="g26957" />
    <g
       gcodetools="Preview group"
       id="g26959" />
    <g
       gcodetools="Preview group"
       id="g26961" />
    <g
       gcodetools="Preview group"
       id="g26963" />
    <g
       gcodetools="Preview group"
       id="g26965" />
    <g
       gcodetools="Preview group"
       id="g26967" />
    <g
       gcodetools="Preview group"
       id="g26969" />
    <g
       id="g38826" />
    <g
       gcodetools="Preview group"
       id="g39806" />
    <g
       gcodetools="Preview group"
       id="g39808" />
    <g
       gcodetools="Preview group"
       id="g39810" />
    <g
       gcodetools="Preview group"
       id="g39812" />
    <g
       gcodetools="Preview group"
       id="g39814" />
    <g
       gcodetools="Preview group"
       id="g39816" />
    <g
       gcodetools="Preview group"
       id="g39818" />
    <g
       gcodetools="Preview group"
       id="g39820" />
    <g
       gcodetools="Preview group"
       id="g39822" />
    <g
       gcodetools="Preview group"
       id="g39824" />
    <g
       gcodetools="Preview group"
       id="g39826" />
    <g
       gcodetools="Preview group"
       id="g39828" />
    <g
       gcodetools="Preview group"
       id="g41747" />
    <g
       gcodetools="Preview group"
       id="g41749" />
    <g
       gcodetools="Preview group"
       id="g41751" />
    <g
       gcodetools="Preview group"
       id="g41753" />
    <g
       gcodetools="Preview group"
       id="g41755" />
    <g
       gcodetools="Preview group"
       id="g41757" />
    <g
       gcodetools="Preview group"
       id="g41759" />
    <g
       gcodetools="Preview group"
       id="g41761" />
    <g
       gcodetools="Preview group"
       id="g41763" />
    <g
       gcodetools="Preview group"
       id="g41765" />
    <g
       gcodetools="Preview group"
       id="g41767" />
    <g
       gcodetools="Preview group"
       id="g41769" />
    <g
       id="g42756" />
    <g
       id="g46231" />
    <g
       id="g50604" />
    <text
       xml:space="preserve"
       style="font-size:10.5833px;line-height:1.25;font-family:sans-serif;word-spacing:0px;stroke-width:0.264583"
       x="5.4950862"
       y="252.13257"
       id="text2502"><tspan
         sodipodi:role="line"
         id="tspan2500"
         style="stroke-width:0.264583"
         x="5.4950862"
         y="252.13257">Надпись фрезой 1 мм</tspan></text>
    <text
       xml:space="preserve"
       style="font-size:10.5833px;line-height:1.25;font-family:sans-serif;word-spacing:0px;stroke-width:0.264583"
       x="5.4950862"
       y="267.13257"
       id="text7654"><tspan
         sodipodi:role="line"
         id="tspan7652"
         style="stroke-width:0.264583"
         x="5.4950862"
         y="267.13257">Край фрезой 45 градусов</tspan></text>
  </g>
  <g
     id="g41772" />
</svg>
