M48
INCH
T01C0.0200
T02C0.1181
T03C0.0400
T04C0.0300
%
T01
X-050690Y-006250
X-050690Y+002750
X-050690Y+011750
X-050690Y+020750
X-050690Y+026750
X-049440Y-007250
X-049440Y+001750
X-049440Y+010750
X-049440Y+019750
X-049440Y+024750
X-045440Y+020750
X-045440Y+011750
X-045440Y+002750
X-045440Y-006250
X-043940Y-007250
X-043940Y+001750
X-043940Y+010750
X-039940Y-006250
X-039940Y+002750
X-039940Y+011750
X-039940Y+020750
X-038440Y-007250
X-038440Y+001750
X-038440Y+010750
X-038440Y+019750
X-034440Y-006250
X-034440Y+002750
X-034440Y+011750
X-032940Y-007250
X-032940Y+001750
X-032940Y+010750
X-028940Y-006250
X-028940Y+002750
X-027440Y-007250
X-027440Y+001750
X-028940Y+011750
X-027440Y+010750
X-028940Y+020750
X-023440Y-006250
X-023440Y+002750
X-021940Y-007250
X-021940Y+001750
X-023440Y+011750
X-021940Y+010750
X-017940Y-006250
X-017940Y+002750
X-016440Y-007250
X-016440Y+001750
X-016440Y+010750
X-017940Y+011750
X-012440Y-006250
X-012440Y+002750
X-010940Y-007250
X-010940Y+001750
X-012440Y+011750
X-010940Y+010750
X-044440Y-010750
X-044440Y-001750
X-044440Y+007250
X-014940Y-012250
X-014940Y-003250
X-014940Y+005750
X-014940Y+014750
X-020440Y-011750
X-020440Y-002750
X-020440Y+006250
X-020440Y+015250
X-025940Y-011250
X-025940Y-002250
X-025940Y+006750
X-025940Y+015750
X-031440Y-010750
X-031440Y-001750
X-031440Y+007250
X-031440Y+016250
X-037190Y-010250
X-037190Y-001250
X-037190Y+007750
X-037190Y+016750
X-042440Y-009750
X-042440Y-000750
X-042440Y+008250
X-042440Y+017250
X-048190Y+017750
X-048190Y+008750
X-048190Y-009250
X-048190Y-000250
X-011940Y-007750
X-011940Y+001250
X-011940Y+010250
X-011940Y+019250
X-013940Y-007250
X-013940Y+001750
X-013940Y+010750
X-013940Y+019750
X-041190Y+000750
X-041190Y-008250
X-041190Y+009750
X-041190Y+018750
X-002940Y+002250
X-009690Y+010250
X-009240Y+008750
X-009690Y+004750
X-009190Y-001300
X-008340Y+005750
X-007990Y+007750
X-008790Y+010550
X-008740Y+009750
X-008090Y+020750
X-008790Y+006750
X-005190Y+018250
X-004190Y+024750
X-019440Y+016250
X-022690Y+014750
X-014940Y+016250
X-009690Y+017250
X-008690Y+017750
X-008690Y+015250
X-007090Y+008250
X-007090Y+021800
X-007990Y+021800
X-007990Y+023400
X-036190Y+023400
X-006590Y+009250
X-006990Y+023650
X-033990Y+023650
X-016440Y+019750
X-016940Y+023650
X-007540Y+001750
X-027060Y+028900
X-007040Y+028900
X-005240Y+005750
X-007740Y+029400
X-021940Y+019750
X-022240Y+027850
X-023440Y+020750
X-024590Y+029800
X-028940Y+026750
X-017940Y+020750
X-018240Y+025300
X-012440Y+020750
X-013440Y+024850
X-026840Y+025250
X-021440Y+032750
X-023040Y+035750
X-018640Y+029750
X-018640Y+034750
X-022540Y+034750
X-017890Y+034750
X-016190Y+032750
X-016190Y+030350
X-011990Y+031750
X-012285Y+037200
X-009330Y+037750
X-005840Y+036250
X-008345Y+036250
X-006590Y+033650
X-016390Y+033850
X-015640Y+035750
X-012440Y+036250
X-014890Y+036700
X-008540Y+034750
X-007740Y+030250
X-003140Y+030350
X-003140Y+028750
X-005240Y+039150
X-009840Y+032750
X-009840Y+026850
X-011190Y+032250
X-011190Y+034250
X-004190Y+028750
X-004190Y+026250
X-025040Y+026900
X-010940Y+019750
X-012465Y+024575
X-025790Y+024600
X-025790Y+026750
X-012440Y+035250
X-012940Y+034750
X-004690Y+010250
X-003440Y+025250
X-030440Y+024250
X-030440Y+030750
X-010440Y+024250
X-011440Y+026250
X-029940Y+026250
X-029940Y+034750
X-028940Y+027750
X-029390Y+024750
X-027440Y+019750
X-027740Y+025250
X-030440Y+033750
X-037190Y+033250
X-039190Y+034250
X-040190Y+033750
X-033690Y+032750
X-033690Y+035750
X-036690Y+036250
X-036690Y+037250
X-030015Y+037250
X-032940Y+033750
X-032940Y+036750
X-040640Y+030750
X-040640Y+029250
X-044440Y+023250
X-050190Y+023250
X-050190Y+029750
X-032440Y+025750
X-032940Y+019750
X-042690Y+025750
X-033690Y+025250
X-034690Y+035750
X-038440Y+024000
X-003890Y+006750
X-006690Y+027350
X-037690Y+027250
X-033690Y+037750
X-033190Y+027750
X-041190Y+027750
X-039690Y+032250
X-041690Y+031000
X-043940Y+019750
X-043940Y+026750
X-041940Y+027750
X-041690Y+025750
X-033190Y+025750
X-034440Y+020750
X-044440Y+027250
X-044440Y+028750
X-028940Y+035250
X-036690Y+028750
X-033690Y+036500
X-036690Y+035400
X-050690Y+037750
X-049840Y+041200
X-007090Y+000400
X-007090Y+006750
X-005640Y-002750
X-005640Y+007750
X-007890Y-005550
X-009240Y+002750
X-007690Y-006250
X-007690Y-007000
X-008340Y+002250
X-007190Y-008750
X-052190Y+039750
X-034940Y+040750
X-049640Y+036750
X-049640Y+040280
X-026075Y+028400
X-006290Y+028400
X-004540Y+004750
T02
X-051690Y+041760
X-002430Y+041760
X-052940Y-012250
X-001190Y-012250
T03
X-005390Y+041760
X-006375Y+041760
X-007360Y+041760
X-008345Y+041760
X-009330Y+041760
X-010315Y+041760
X-011300Y+041760
X-012285Y+041760
X-013270Y+041760
X-014255Y+041760
X-015240Y+041760
X-016225Y+041760
X-017210Y+041760
X-018195Y+041760
X-019180Y+041760
X-020165Y+041760
X-021150Y+041760
X-022135Y+041760
X-023120Y+041760
X-024105Y+041760
X-025090Y+041760
X-026075Y+041760
X-027060Y+041760
X-028045Y+041760
X-029030Y+041760
X-030015Y+041760
X-031000Y+041760
X-031985Y+041760
X-032970Y+041760
X-033955Y+041760
X-034940Y+041760
X-035925Y+041760
X-036910Y+041760
X-037895Y+041760
X-038880Y+041760
X-039865Y+041760
X-040850Y+041760
X-041835Y+041760
X-042820Y+041760
X-043805Y+041760
X-044790Y+041760
X-045775Y+041760
X-046760Y+041760
X-047745Y+041760
X-048730Y+041760
X-005390Y+039790
X-006375Y+039790
X-007360Y+039790
X-008345Y+039790
X-009330Y+039790
X-010315Y+039790
X-011300Y+039790
X-012285Y+039790
X-013270Y+039790
X-014255Y+039790
X-015240Y+039790
X-016225Y+039790
X-017210Y+039790
X-018195Y+039790
X-019180Y+039790
X-020165Y+039790
X-021150Y+039790
X-022135Y+039790
X-023120Y+039790
X-024105Y+039790
X-025090Y+039790
X-026075Y+039790
X-027060Y+039790
X-028045Y+039790
X-029030Y+039790
X-030015Y+039790
X-031000Y+039790
X-031985Y+039790
X-032970Y+039790
X-033955Y+039790
X-034940Y+039790
X-035925Y+039790
X-036910Y+039790
X-037895Y+039790
X-038880Y+039790
X-039865Y+039790
X-040850Y+039790
X-041835Y+039790
X-042820Y+039790
X-043805Y+039790
X-044790Y+039790
X-045775Y+039790
X-046760Y+039790
X-047745Y+039790
X-048730Y+039790
T04
X-013190Y-005250
X-013190Y-006250
X-013190Y-007250
X-013190Y-008250
X-013190Y-009250
X-013190Y-010250
X-013190Y-011250
X-013190Y-012250
X-010190Y-012250
X-010190Y-011250
X-010190Y-010250
X-010190Y-009250
X-010190Y-008250
X-010190Y-007250
X-010190Y-006250
X-010190Y-005250
X-018690Y-005250
X-018690Y-006250
X-018690Y-007250
X-018690Y-008250
X-018690Y-009250
X-018690Y-010250
X-018690Y-011250
X-018690Y-012250
X-015690Y-012250
X-015690Y-011250
X-015690Y-010250
X-015690Y-009250
X-015690Y-008250
X-015690Y-007250
X-015690Y-006250
X-015690Y-005250
X-024190Y-005250
X-024190Y-006250
X-024190Y-007250
X-024190Y-008250
X-024190Y-009250
X-024190Y-010250
X-024190Y-011250
X-024190Y-012250
X-021190Y-012250
X-021190Y-011250
X-021190Y-010250
X-021190Y-009250
X-021190Y-008250
X-021190Y-007250
X-021190Y-006250
X-021190Y-005250
X-029690Y-005250
X-029690Y-006250
X-029690Y-007250
X-029690Y-008250
X-029690Y-009250
X-029690Y-010250
X-029690Y-011250
X-029690Y-012250
X-026690Y-012250
X-026690Y-011250
X-026690Y-010250
X-026690Y-009250
X-026690Y-008250
X-026690Y-007250
X-026690Y-006250
X-026690Y-005250
X-035190Y-005250
X-035190Y-006250
X-035190Y-007250
X-035190Y-008250
X-035190Y-009250
X-035190Y-010250
X-035190Y-011250
X-035190Y-012250
X-032190Y-012250
X-032190Y-011250
X-032190Y-010250
X-032190Y-009250
X-032190Y-008250
X-032190Y-007250
X-032190Y-006250
X-032190Y-005250
X-040690Y-005250
X-040690Y-006250
X-040690Y-007250
X-040690Y-008250
X-040690Y-009250
X-040690Y-010250
X-040690Y-011250
X-040690Y-012250
X-037690Y-012250
X-037690Y-011250
X-037690Y-010250
X-037690Y-009250
X-037690Y-008250
X-037690Y-007250
X-037690Y-006250
X-037690Y-005250
X-046190Y-005250
X-046190Y-006250
X-046190Y-007250
X-046190Y-008250
X-046190Y-009250
X-046190Y-010250
X-046190Y-011250
X-046190Y-012250
X-043190Y-012250
X-043190Y-011250
X-043190Y-010250
X-043190Y-009250
X-043190Y-008250
X-043190Y-007250
X-043190Y-006250
X-043190Y-005250
X-051690Y-005250
X-051690Y-006250
X-051690Y-007250
X-051690Y-008250
X-051690Y-009250
X-051690Y-010250
X-051690Y-011250
X-051690Y-012250
X-048690Y-012250
X-048690Y-011250
X-048690Y-010250
X-048690Y-009250
X-048690Y-008250
X-048690Y-007250
X-048690Y-006250
X-048690Y-005250
X-013190Y+003750
X-013190Y+002750
X-013190Y+001750
X-013190Y+000750
X-013190Y-000250
X-013190Y-001250
X-013190Y-002250
X-013190Y-003250
X-010190Y-003250
X-010190Y-002250
X-010190Y-001250
X-010190Y-000250
X-010190Y+000750
X-010190Y+001750
X-010190Y+002750
X-010190Y+003750
X-018690Y+003750
X-018690Y+002750
X-018690Y+001750
X-018690Y+000750
X-018690Y-000250
X-018690Y-001250
X-018690Y-002250
X-018690Y-003250
X-015690Y-003250
X-015690Y-002250
X-015690Y-001250
X-015690Y-000250
X-015690Y+000750
X-015690Y+001750
X-015690Y+002750
X-015690Y+003750
X-024190Y+003750
X-024190Y+002750
X-024190Y+001750
X-024190Y+000750
X-024190Y-000250
X-024190Y-001250
X-024190Y-002250
X-024190Y-003250
X-021190Y-003250
X-021190Y-002250
X-021190Y-001250
X-021190Y-000250
X-021190Y+000750
X-021190Y+001750
X-021190Y+002750
X-021190Y+003750
X-029690Y+003750
X-029690Y+002750
X-029690Y+001750
X-029690Y+000750
X-029690Y-000250
X-029690Y-001250
X-029690Y-002250
X-029690Y-003250
X-026690Y-003250
X-026690Y-002250
X-026690Y-001250
X-026690Y-000250
X-026690Y+000750
X-026690Y+001750
X-026690Y+002750
X-026690Y+003750
X-035190Y+003750
X-035190Y+002750
X-035190Y+001750
X-035190Y+000750
X-035190Y-000250
X-035190Y-001250
X-035190Y-002250
X-035190Y-003250
X-032190Y-003250
X-032190Y-002250
X-032190Y-001250
X-032190Y-000250
X-032190Y+000750
X-032190Y+001750
X-032190Y+002750
X-032190Y+003750
X-040690Y+003750
X-040690Y+002750
X-040690Y+001750
X-040690Y+000750
X-040690Y-000250
X-040690Y-001250
X-040690Y-002250
X-040690Y-003250
X-037690Y-003250
X-037690Y-002250
X-037690Y-001250
X-037690Y-000250
X-037690Y+000750
X-037690Y+001750
X-037690Y+002750
X-037690Y+003750
X-046190Y+003750
X-046190Y+002750
X-046190Y+001750
X-046190Y+000750
X-046190Y-000250
X-046190Y-001250
X-046190Y-002250
X-046190Y-003250
X-043190Y-003250
X-043190Y-002250
X-043190Y-001250
X-043190Y-000250
X-043190Y+000750
X-043190Y+001750
X-043190Y+002750
X-043190Y+003750
X-051690Y+003750
X-051690Y+002750
X-051690Y+001750
X-051690Y+000750
X-051690Y-000250
X-051690Y-001250
X-051690Y-002250
X-051690Y-003250
X-048690Y-003250
X-048690Y-002250
X-048690Y-001250
X-048690Y-000250
X-048690Y+000750
X-048690Y+001750
X-048690Y+002750
X-048690Y+003750
X-013190Y+012750
X-013190Y+011750
X-013190Y+010750
X-013190Y+009750
X-013190Y+008750
X-013190Y+007750
X-013190Y+006750
X-013190Y+005750
X-010190Y+005750
X-010190Y+006750
X-010190Y+007750
X-010190Y+008750
X-010190Y+009750
X-010190Y+010750
X-010190Y+011750
X-010190Y+012750
X-018690Y+012750
X-018690Y+011750
X-018690Y+010750
X-018690Y+009750
X-018690Y+008750
X-018690Y+007750
X-018690Y+006750
X-018690Y+005750
X-015690Y+005750
X-015690Y+006750
X-015690Y+007750
X-015690Y+008750
X-015690Y+009750
X-015690Y+010750
X-015690Y+011750
X-015690Y+012750
X-024190Y+012750
X-024190Y+011750
X-024190Y+010750
X-024190Y+009750
X-024190Y+008750
X-024190Y+007750
X-024190Y+006750
X-024190Y+005750
X-021190Y+005750
X-021190Y+006750
X-021190Y+007750
X-021190Y+008750
X-021190Y+009750
X-021190Y+010750
X-021190Y+011750
X-021190Y+012750
X-029690Y+012750
X-029690Y+011750
X-029690Y+010750
X-029690Y+009750
X-029690Y+008750
X-029690Y+007750
X-029690Y+006750
X-029690Y+005750
X-026690Y+005750
X-026690Y+006750
X-026690Y+007750
X-026690Y+008750
X-026690Y+009750
X-026690Y+010750
X-026690Y+011750
X-026690Y+012750
X-035190Y+012750
X-035190Y+011750
X-035190Y+010750
X-035190Y+009750
X-035190Y+008750
X-035190Y+007750
X-035190Y+006750
X-035190Y+005750
X-032190Y+005750
X-032190Y+006750
X-032190Y+007750
X-032190Y+008750
X-032190Y+009750
X-032190Y+010750
X-032190Y+011750
X-032190Y+012750
X-040690Y+012750
X-040690Y+011750
X-040690Y+010750
X-040690Y+009750
X-040690Y+008750
X-040690Y+007750
X-040690Y+006750
X-040690Y+005750
X-037690Y+005750
X-037690Y+006750
X-037690Y+007750
X-037690Y+008750
X-037690Y+009750
X-037690Y+010750
X-037690Y+011750
X-037690Y+012750
X-046190Y+012750
X-046190Y+011750
X-046190Y+010750
X-046190Y+009750
X-046190Y+008750
X-046190Y+007750
X-046190Y+006750
X-046190Y+005750
X-043190Y+005750
X-043190Y+006750
X-043190Y+007750
X-043190Y+008750
X-043190Y+009750
X-043190Y+010750
X-043190Y+011750
X-043190Y+012750
X-051690Y+012750
X-051690Y+011750
X-051690Y+010750
X-051690Y+009750
X-051690Y+008750
X-051690Y+007750
X-051690Y+006750
X-051690Y+005750
X-048690Y+005750
X-048690Y+006750
X-048690Y+007750
X-048690Y+008750
X-048690Y+009750
X-048690Y+010750
X-048690Y+011750
X-048690Y+012750
X-013190Y+021750
X-013190Y+020750
X-013190Y+019750
X-013190Y+018750
X-013190Y+017750
X-013190Y+016750
X-013190Y+015750
X-013190Y+014750
X-010190Y+014750
X-010190Y+015750
X-010190Y+016750
X-010190Y+017750
X-010190Y+018750
X-010190Y+019750
X-010190Y+020750
X-010190Y+021750
X-018690Y+021750
X-018690Y+020750
X-018690Y+019750
X-018690Y+018750
X-018690Y+017750
X-018690Y+016750
X-018690Y+015750
X-018690Y+014750
X-015690Y+014750
X-015690Y+015750
X-015690Y+016750
X-015690Y+017750
X-015690Y+018750
X-015690Y+019750
X-015690Y+020750
X-015690Y+021750
X-024190Y+021750
X-024190Y+020750
X-024190Y+019750
X-024190Y+018750
X-024190Y+017750
X-024190Y+016750
X-024190Y+015750
X-024190Y+014750
X-021190Y+014750
X-021190Y+015750
X-021190Y+016750
X-021190Y+017750
X-021190Y+018750
X-021190Y+019750
X-021190Y+020750
X-021190Y+021750
X-029690Y+021750
X-029690Y+020750
X-029690Y+019750
X-029690Y+018750
X-029690Y+017750
X-029690Y+016750
X-029690Y+015750
X-029690Y+014750
X-026690Y+014750
X-026690Y+015750
X-026690Y+016750
X-026690Y+017750
X-026690Y+018750
X-026690Y+019750
X-026690Y+020750
X-026690Y+021750
X-035190Y+021750
X-035190Y+020750
X-035190Y+019750
X-035190Y+018750
X-035190Y+017750
X-035190Y+016750
X-035190Y+015750
X-035190Y+014750
X-032190Y+014750
X-032190Y+015750
X-032190Y+016750
X-032190Y+017750
X-032190Y+018750
X-032190Y+019750
X-032190Y+020750
X-032190Y+021750
X-040690Y+021750
X-040690Y+020750
X-040690Y+019750
X-040690Y+018750
X-040690Y+017750
X-040690Y+016750
X-040690Y+015750
X-040690Y+014750
X-037690Y+014750
X-037690Y+015750
X-037690Y+016750
X-037690Y+017750
X-037690Y+018750
X-037690Y+019750
X-037690Y+020750
X-037690Y+021750
X-046190Y+021750
X-046190Y+020750
X-046190Y+019750
X-046190Y+018750
X-046190Y+017750
X-046190Y+016750
X-046190Y+015750
X-046190Y+014750
X-043190Y+014750
X-043190Y+015750
X-043190Y+016750
X-043190Y+017750
X-043190Y+018750
X-043190Y+019750
X-043190Y+020750
X-043190Y+021750
X-051690Y+021750
X-051690Y+020750
X-051690Y+019750
X-051690Y+018750
X-051690Y+017750
X-051690Y+016750
X-051690Y+015750
X-051690Y+014750
X-048690Y+014750
X-048690Y+015750
X-048690Y+016750
X-048690Y+017750
X-048690Y+018750
X-048690Y+019750
X-048690Y+020750
X-048690Y+021750
X-051690Y+030750
X-051690Y+029750
X-051690Y+028750
X-051690Y+027750
X-051690Y+026750
X-051690Y+025750
X-051690Y+024750
X-051690Y+023750
X-048690Y+023750
X-048690Y+024750
X-048690Y+025750
X-048690Y+026750
X-048690Y+027750
X-048690Y+028750
X-048690Y+029750
X-048690Y+030750
X-051690Y+038750
X-051690Y+037750
X-051690Y+036750
X-051690Y+035750
X-051690Y+034750
X-051690Y+033750
X-051690Y+032750
X-048690Y+032750
X-048690Y+033750
X-048690Y+034750
X-048690Y+035750
X-048690Y+036750
X-048690Y+037750
X-048690Y+038750
X-042190Y+026750
X-041190Y+026750
X-040190Y+026750
X-039190Y+026750
X-038190Y+026750
X-037190Y+026750
X-036190Y+026750
X-035190Y+026750
X-035190Y+029750
X-036190Y+029750
X-037190Y+029750
X-038190Y+029750
X-039190Y+029750
X-040190Y+029750
X-041190Y+029750
X-042190Y+029750
X-044690Y+037750
X-044690Y+036750
X-044690Y+035750
X-044690Y+034750
X-044690Y+033750
X-044690Y+032750
X-044690Y+031750
X-041690Y+031750
X-041690Y+032750
X-041690Y+033750
X-041690Y+034750
X-041690Y+035750
X-041690Y+036750
X-041690Y+037750
X-038690Y+037750
X-038690Y+036750
X-038690Y+035750
X-038690Y+034750
X-038690Y+033750
X-038690Y+032750
X-038690Y+031750
X-035690Y+031750
X-035690Y+032750
X-035690Y+033750
X-035690Y+034750
X-035690Y+035750
X-035690Y+036750
X-035690Y+037750
X-031190Y+030750
X-031190Y+029750
X-031190Y+028750
X-031190Y+027750
X-031190Y+026750
X-031190Y+025750
X-031190Y+024750
X-031190Y+023750
X-028190Y+023750
X-028190Y+024750
X-028190Y+025750
X-028190Y+026750
X-028190Y+027750
X-028190Y+028750
X-028190Y+029750
X-028190Y+030750
X-031190Y+038750
X-031190Y+037750
X-031190Y+036750
X-031190Y+035750
X-031190Y+034750
X-031190Y+033750
X-031190Y+032750
X-028190Y+032750
X-028190Y+033750
X-028190Y+034750
X-028190Y+035750
X-028190Y+036750
X-028190Y+037750
X-028190Y+038750
X-023690Y+037750
X-023690Y+036750
X-023690Y+035750
X-023690Y+034750
X-023690Y+033750
X-023690Y+032750
X-023690Y+031750
X-020690Y+031750
X-020690Y+032750
X-020690Y+033750
X-020690Y+034750
X-020690Y+035750
X-020690Y+036750
X-020690Y+037750
X-017190Y+037750
X-017190Y+036750
X-017190Y+035750
X-017190Y+034750
X-017190Y+033750
X-017190Y+032750
X-017190Y+031750
X-014190Y+031750
X-014190Y+032750
X-014190Y+033750
X-014190Y+034750
X-014190Y+035750
X-014190Y+036750
X-014190Y+037750
X-010690Y+037750
X-010690Y+036750
X-010690Y+035750
X-010690Y+034750
X-010690Y+033750
X-010690Y+032750
X-010690Y+031750
X-007690Y+031750
X-007690Y+032750
X-007690Y+033750
X-007690Y+034750
X-007690Y+035750
X-007690Y+036750
X-007690Y+037750
X-005190Y+037750
X-005190Y+036750
X-005190Y+035750
X-005190Y+034750
X-005190Y+033750
X-005190Y+032750
X-005190Y+031750
X-002190Y+031750
X-002190Y+032750
X-002190Y+033750
X-002190Y+034750
X-002190Y+035750
X-002190Y+036750
X-002190Y+037750
X-005190Y+029750
X-005190Y+028750
X-005190Y+027750
X-005190Y+026750
X-005190Y+025750
X-005190Y+024750
X-005190Y+023750
X-002190Y+023750
X-002190Y+024750
X-002190Y+025750
X-002190Y+026750
X-002190Y+027750
X-002190Y+028750
X-002190Y+029750
X-006190Y+010750
X-006190Y+009750
X-006190Y+008750
X-006190Y+007750
X-006190Y+006750
X-006190Y+005750
X-006190Y+004750
X-006190Y+003750
X-003190Y+003750
X-003190Y+004750
X-003190Y+005750
X-003190Y+006750
X-003190Y+007750
X-003190Y+008750
X-003190Y+009750
X-003190Y+010750
X-006190Y+000000
X-002190Y+000000
X-019440Y+029750
X-019440Y+025750
X-023690Y+029750
X-023690Y+025750
X-006690Y+029750
X-006690Y+025750
X-008190Y-012250
X-008190Y-002250
X-046690Y+031750
X-046690Y+037750
X-046690Y+023750
X-046690Y+029750
X-047190Y+020750
X-047190Y+014750
X-047190Y+011750
X-047190Y+005750
X-047190Y+002750
X-047190Y-003250
X-047190Y-006250
X-047190Y-012250
X-036190Y+020750
X-036190Y+014750
X-036190Y+011750
X-036190Y+005750
X-036190Y+002750
X-036190Y-003250
X-036190Y-006250
X-036190Y-012250
X-045190Y+024750
X-035190Y+024750
X-008690Y+012500
X-008690Y+022500
X-006690Y-010000
X-000690Y-010000
X-012690Y+029750
X-012690Y+025750
X-010690Y+029750
X-010690Y+025750
X-014940Y+029750
X-014940Y+025750
X-008690Y+029750
X-008690Y+025750
X-017190Y+029750
X-017190Y+025750
X-021440Y+029750
X-021440Y+025750
X-006190Y-007000
X-002190Y-007000
X-006190Y-005250
X-002190Y-005250
X-006190Y-003500
X-002190Y-003500
X-006190Y-008750
X-002190Y-008750
X-006190Y-001700
X-002190Y-001700
X-006190Y+001750
X-002190Y+001750
M30
