%FSLAX44Y44*%
%MOMM*%
G71*
G01*
G75*
G04 Layer_Color=16777215*
%ADD10C,0.2540*%
%ADD11O,2.5000X1.3000*%
%ADD12R,2.5000X1.3000*%
%ADD13C,3.0000*%
%ADD14R,1.5000X1.5000*%
%ADD15C,1.5000*%
%ADD16C,1.2700*%
%ADD17C,0.2000*%
%ADD18C,0.2500*%
%ADD19C,0.6000*%
%ADD20C,0.1524*%
D10*
X796200Y229600D02*
Y237140D01*
X301800Y232060D02*
Y248400D01*
X584548Y234600D02*
X796200D01*
X301800D02*
X505323D01*
X780960Y239680D02*
X796200Y234600D01*
X780960Y229520D02*
X796200Y234600D01*
X301800D02*
X317040Y229520D01*
X301800Y234600D02*
X317040Y239680D01*
X827920Y1272560D02*
X834460D01*
X795120Y252160D02*
X834460D01*
X831920Y796639D02*
Y1272560D01*
Y252160D02*
Y719953D01*
X826840Y1257320D02*
X831920Y1272560D01*
X837000Y1257320D01*
X831920Y252160D02*
X837000Y267400D01*
X826840D02*
X831920Y252160D01*
X532812Y382779D02*
Y370083D01*
X535351Y367544D01*
X540430D01*
X542969Y370083D01*
Y382779D01*
X548047Y367544D02*
X553125D01*
X550586D01*
Y382779D01*
X548047Y380240D01*
X611357Y1242496D02*
X608818Y1245035D01*
X603739D01*
X601200Y1242496D01*
Y1232339D01*
X603739Y1229800D01*
X608818D01*
X611357Y1232339D01*
X626592Y1229800D02*
X616435D01*
X626592Y1239957D01*
Y1242496D01*
X624053Y1245035D01*
X618974D01*
X616435Y1242496D01*
X363157Y1260696D02*
X360617Y1263235D01*
X355539D01*
X353000Y1260696D01*
Y1250539D01*
X355539Y1248000D01*
X360617D01*
X363157Y1250539D01*
X368235Y1248000D02*
X373313D01*
X370774D01*
Y1263235D01*
X368235Y1260696D01*
X661800Y422600D02*
X666878D01*
X664339D01*
Y437835D01*
X661800Y435296D01*
X440600Y370000D02*
X445678D01*
X443139D01*
Y385235D01*
X440600Y382696D01*
X649600Y1203696D02*
X652139Y1206235D01*
X657217D01*
X659757Y1203696D01*
Y1201157D01*
X657217Y1198617D01*
X654678D01*
X657217D01*
X659757Y1196078D01*
Y1193539D01*
X657217Y1191000D01*
X652139D01*
X649600Y1193539D01*
X664835Y1191000D02*
X669913D01*
X667374D01*
Y1206235D01*
X664835Y1203696D01*
X435800Y1159696D02*
X438339Y1162235D01*
X443418D01*
X445957Y1159696D01*
Y1157157D01*
X443418Y1154617D01*
X440878D01*
X443418D01*
X445957Y1152078D01*
Y1149539D01*
X443418Y1147000D01*
X438339D01*
X435800Y1149539D01*
X461192Y1147000D02*
X451035D01*
X461192Y1157157D01*
Y1159696D01*
X458653Y1162235D01*
X453574D01*
X451035Y1159696D01*
X702557Y1263496D02*
X700017Y1266035D01*
X694939D01*
X692400Y1263496D01*
Y1260957D01*
X694939Y1258418D01*
X700017D01*
X702557Y1255878D01*
Y1253339D01*
X700017Y1250800D01*
X694939D01*
X692400Y1253339D01*
X707635Y1266035D02*
Y1250800D01*
X717792D01*
X722870Y1258418D02*
X733027D01*
X748262Y1266035D02*
X743184Y1263496D01*
X738105Y1258418D01*
Y1253339D01*
X740644Y1250800D01*
X745723D01*
X748262Y1253339D01*
Y1255878D01*
X745723Y1258418D01*
X738105D01*
X763497Y1250800D02*
X753340D01*
X763497Y1260957D01*
Y1263496D01*
X760958Y1266035D01*
X755880D01*
X753340Y1263496D01*
X768575Y1250800D02*
Y1266035D01*
X776193D01*
X778732Y1263496D01*
Y1258418D01*
X776193Y1255878D01*
X768575D01*
X773654D02*
X778732Y1250800D01*
X422757Y1259896D02*
X420218Y1262435D01*
X415139D01*
X412600Y1259896D01*
Y1257357D01*
X415139Y1254818D01*
X420218D01*
X422757Y1252278D01*
Y1249739D01*
X420218Y1247200D01*
X415139D01*
X412600Y1249739D01*
X427835Y1247200D02*
Y1262435D01*
X437992Y1247200D01*
Y1262435D01*
X443070Y1247200D02*
Y1262435D01*
X450688D01*
X453227Y1259896D01*
Y1254818D01*
X450688Y1252278D01*
X443070D01*
X468462Y1262435D02*
X458305D01*
Y1254818D01*
X463384Y1257357D01*
X465923D01*
X468462Y1254818D01*
Y1249739D01*
X465923Y1247200D01*
X460844D01*
X458305Y1249739D01*
X473540D02*
X476079Y1247200D01*
X481158D01*
X483697Y1249739D01*
Y1259896D01*
X481158Y1262435D01*
X476079D01*
X473540Y1259896D01*
Y1257357D01*
X476079Y1254818D01*
X483697D01*
X401400Y357635D02*
Y342400D01*
X409017D01*
X411557Y344939D01*
Y347478D01*
X409017Y350018D01*
X401400D01*
X409017D01*
X411557Y352557D01*
Y355096D01*
X409017Y357635D01*
X401400D01*
X351200Y342400D02*
Y352557D01*
X356278Y357635D01*
X361357Y352557D01*
Y342400D01*
Y350018D01*
X351200D01*
X689400Y408000D02*
Y418157D01*
X694478Y423235D01*
X699557Y418157D01*
Y408000D01*
Y415617D01*
X689400D01*
X740200Y422635D02*
Y407400D01*
X747818D01*
X750357Y409939D01*
Y412478D01*
X747818Y415018D01*
X740200D01*
X747818D01*
X750357Y417557D01*
Y420096D01*
X747818Y422635D01*
X740200D01*
D17*
X733200Y319750D02*
G03*
X733200Y307050I0J-6350D01*
G01*
X641200Y396200D02*
X876200D01*
X641200D02*
Y1247200D01*
X876200D01*
Y396200D02*
Y1247200D01*
X302000Y291400D02*
X479000D01*
Y1237400D01*
X302000D02*
X479000D01*
X302000Y291400D02*
Y1237400D01*
X531200Y339900D02*
X733200D01*
X531200Y286900D02*
X733200D01*
Y319750D02*
Y339900D01*
Y286900D02*
Y307050D01*
X531200Y286900D02*
Y339900D01*
D18*
X722650Y351500D02*
G03*
X722650Y351500I-1250J0D01*
G01*
D19*
X726200Y329900D02*
G03*
X726200Y329900I-3000J0D01*
G01*
D20*
X517005Y222919D02*
Y238154D01*
X509388Y230537D01*
X519544D01*
X524623Y225459D02*
X527162Y222919D01*
X532240D01*
X534779Y225459D01*
Y235615D01*
X532240Y238154D01*
X527162D01*
X524623Y235615D01*
Y233076D01*
X527162Y230537D01*
X534779D01*
X542397Y220380D02*
X544936Y222919D01*
Y225459D01*
X542397D01*
Y222919D01*
X544936D01*
X542397Y220380D01*
X539858Y217841D01*
X562710Y222919D02*
Y238154D01*
X555093Y230537D01*
X565249D01*
X577945Y222919D02*
Y238154D01*
X570328Y230537D01*
X580485D01*
X843601Y724017D02*
Y729095D01*
Y726556D01*
X828366D01*
X830905Y724017D01*
Y736713D02*
X828366Y739252D01*
Y744331D01*
X830905Y746870D01*
X841061D01*
X843601Y744331D01*
Y739252D01*
X841061Y736713D01*
X830905D01*
X843601Y762105D02*
Y751948D01*
X833444Y762105D01*
X830905D01*
X828366Y759566D01*
Y754487D01*
X830905Y751948D01*
X846140Y769722D02*
X843601Y772261D01*
X841061D01*
Y769722D01*
X843601D01*
Y772261D01*
X846140Y769722D01*
X848679Y767183D01*
X830905Y782418D02*
X828366Y784957D01*
Y790036D01*
X830905Y792575D01*
X841061D01*
X843601Y790036D01*
Y784957D01*
X841061Y782418D01*
X830905D01*
M02*
