M48
;Layer_Color=9474304
;FILE_FORMAT=4:4
METRIC,LZ
;TYPE=PLATED
T1F00S00C0.7112
T2F00S00C0.9000
T3F00S00C1.0000
T4F00S00C2.8000
%
T01
X005778Y003094
X005784Y00419
X006082Y005704
X006138Y00724
X006266Y007372
X006302Y007684
X006514Y007212
X004699Y00739648
X004532Y007898
X00442976Y00630682
X00444642Y00501866
X003308Y005016
X003222Y005568
X003276Y006412
X00384156Y0099155
X00507028Y00978284
X005372Y00992
X00493268Y00945896
X004736Y009098
X00450088Y00871474
X00573786Y01132586
T02
X00556Y002753
X005814
X006068
X006322
X006576
X00683
X007084
Y003515
X00683
X006576
X006322
X006068
X005814
X00556
T03
X00356Y003774
X00406
Y004024
Y004274
Y004524
Y004774
Y005024
Y005274
Y005524
Y005774
Y006024
Y006274
Y006524
Y006774
Y007024
Y007274
Y007524
Y007774
X006952Y007898
Y007644
Y00739
Y007136
Y006882
Y006628
Y006374
Y00612
Y005866
Y005612
Y005358
Y005104
Y00485
Y004596
Y004342
X007452
Y004596
Y00485
Y005104
Y005358
Y005612
Y005866
Y00612
Y006374
Y006628
Y006882
Y007136
Y00739
Y007644
Y007898
X00356Y007774
Y007524
Y007274
Y007024
Y006774
Y006524
Y006274
Y006024
Y005774
Y005524
Y005274
Y005024
Y004774
Y004524
Y004274
Y004024
Y008024
Y008274
Y008524
Y008774
Y009024
Y009274
Y009524
Y009774
Y010024
Y010274
Y010524
Y010774
Y011024
Y011274
Y011524
X00406
Y011274
Y011024
Y010774
Y010524
Y010274
Y010024
Y009774
Y009524
Y009274
Y009024
Y008774
Y008524
Y008274
Y008024
X006952Y008152
Y008406
Y00866
Y008914
Y009168
Y009422
Y009676
Y00993
Y010184
Y010438
Y010692
Y010946
Y0112
Y011454
Y011708
X007452
Y011454
Y0112
Y010946
Y010692
Y010438
Y010184
Y00993
Y009676
Y009422
Y009168
Y008914
Y00866
Y008406
Y008152
Y011962
X006952
T04
X00331Y003274
Y012024
M30
