M48
;Layer_Color=9474304
;FILE_FORMAT=4:4
METRIC,LZ
;TYPE=PLATED
T1F00S00C0.7112
T2F00S00C0.9000
T3F00S00C1.0000
T4F00S00C2.8000
%
T01
X004372Y00623
X00552958Y0053975
X006602Y005642
X00684784Y00721614
X00707644Y00706628
X007476Y006994
X00742442Y00787654
X006294Y007794
X00633476Y00745998
X0052578Y00757174
X00329438Y00992886
X00354838Y01170692
X005324Y011756
X00557022Y01136038
X00545084Y01120394
X00495808Y01103884
X005254Y01009
X005876Y00973
X006134Y009918
X006056Y009084
X006378Y008704
X00574Y008688
X00696214Y00862076
X007206Y00825
X00755Y008528
X006612Y00939
X006444Y011428
X00581787Y01159659
X004362Y009692
X004516Y009182
X004484Y007954
X004894Y007958
X00603718Y01206968
X00533252Y01364
X00476504Y01349756
X004232Y013892
X004218Y012754
X00463042Y01525778
X0050038Y01488883
X00562864Y01505712
X00550704Y014402
X00382Y012846
X00337Y012476
X00585216Y01603248
X00624233Y01628648
T02
X00556Y002773
X005814
X006068
X006322
X006576
X00683
X007084
Y003535
X00683
X006576
X006322
X006068
X005814
X00556
T03
X00356Y003774
X00406
Y004024
Y004274
Y004524
Y004774
Y005024
Y005274
Y005524
Y005774
Y006024
Y006274
Y006524
Y006774
Y007024
Y007274
Y007524
Y007774
X00356
Y007524
Y007274
Y007024
Y006774
Y006524
Y006274
Y006024
Y005774
Y005524
Y005274
Y005024
Y004774
Y004524
Y004274
Y004024
Y008024
Y008274
Y008524
Y008774
Y009024
Y009274
Y009524
Y009774
Y010024
Y010274
Y010524
Y010774
Y011024
Y011274
Y011524
X00406
Y011274
Y011024
Y010774
Y010524
Y010274
Y010024
Y009774
Y009524
Y009274
Y009024
Y008774
Y008524
Y008274
Y008024
X006952Y008814
Y009068
Y009322
Y009576
Y00983
Y010084
Y010338
Y010592
Y010846
Y0111
Y011354
Y011608
Y011862
X00746
Y011608
Y011354
Y0111
Y010846
Y010592
Y010338
Y010084
Y00983
Y009576
Y009322
Y009068
Y008814
Y012116
Y01237
Y012624
Y012878
Y013132
Y013386
Y01364
Y013894
Y014148
Y014402
Y014656
Y01491
Y015164
Y015418
Y015672
X006952
Y015418
Y015164
Y01491
Y014656
Y014402
Y014148
Y013894
Y01364
Y013386
Y013132
Y012878
Y012624
Y01237
Y012116
Y015926
Y01618
Y016434
X00746
Y01618
Y015926
T04
X00331Y003274
Y012024
M30
