%FSLAX44Y44*%
%MOMM*%
G71*
G01*
G75*
G04 Layer_Physical_Order=2*
G04 Layer_Color=14840927*
%ADD10C,0.2540*%
%ADD11C,1.5000*%
%ADD12R,1.5000X1.5000*%
%ADD13C,3.0000*%
%ADD14O,2.5000X1.3000*%
%ADD15R,2.5000X1.3000*%
%ADD16C,1.2700*%
D10*
X723600Y911560D02*
X731440Y919400D01*
X723600Y902000D02*
Y911560D01*
X703000Y881400D02*
X723600Y902000D01*
X797000Y254400D02*
Y1173800D01*
Y1721200D01*
X301800Y252800D02*
X797200D01*
X301800D02*
Y1721200D01*
X797000D01*
X533700Y477400D02*
X657600Y353500D01*
X406000Y477400D02*
X533700D01*
X356000Y502400D02*
X375920D01*
X391160Y539750D02*
X552958D01*
X739902Y1237000D02*
X746000D01*
X603718Y1206968D02*
X608798D01*
X552704Y1440200D02*
X695200D01*
X723626Y1160800D02*
X746000D01*
X378714Y751840D02*
X391160Y764286D01*
X378714Y709361D02*
Y751840D01*
X371753Y702400D02*
X378714Y709361D01*
X356000Y702400D02*
X371753D01*
X406000Y827400D02*
X690699D01*
X727529Y864230D01*
Y875591D01*
X733338Y881400D01*
X746000D01*
X370332Y827400D02*
X382656Y839724D01*
X356000Y827400D02*
X370332D01*
X603416Y602400D02*
X707644Y706628D01*
X406000Y602400D02*
X603416D01*
X545084Y1120394D02*
X598404D01*
X638810Y1160800D01*
X695200D01*
X722142Y932200D02*
X746000D01*
X406000Y902400D02*
X549848D01*
X685800Y862076D02*
X696214D01*
X356000Y577400D02*
X377698D01*
X500380Y1488883D02*
X502497Y1491000D01*
X695200D01*
X720598Y1452880D02*
X733318Y1465600D01*
X746000D01*
X734568Y1592600D02*
X746000D01*
X723920Y1603248D02*
X734568Y1592600D01*
X585216Y1603248D02*
X723920D01*
X760024Y944880D02*
X762310Y942594D01*
X406000Y1002400D02*
X498994D01*
X393400Y927400D02*
X406000D01*
X381000Y939800D02*
X393400Y927400D01*
X746000Y1440200D02*
X759948D01*
X746000Y1541800D02*
X759948D01*
X777550Y803966D02*
Y967938D01*
X762488Y983000D02*
X777550Y967938D01*
X746000Y983000D02*
X762488D01*
X406000Y752400D02*
X468428D01*
X406000Y727400D02*
X473964D01*
X731520Y1084600D02*
X746000D01*
X406000Y702400D02*
X471006D01*
X525780Y757174D01*
Y1004316D02*
X559562Y1038098D01*
X573786D01*
X681482Y1145794D01*
X729488D01*
X739882Y1135400D01*
X746000D01*
X564878Y677400D02*
X633476Y745998D01*
X406000Y677400D02*
X564878D01*
X535452Y1364000D02*
X695200D01*
Y1135400D02*
X711200D01*
X495808Y1103884D02*
Y1116800D01*
X654342Y1275334D01*
X356000Y1002400D02*
X377074D01*
X390616Y988858D01*
X615366Y989000D02*
X616458Y990092D01*
X386080Y889762D02*
X545108D01*
X373718Y877400D02*
X386080Y889762D01*
X356000Y877400D02*
X373718D01*
X739882Y1618000D02*
X746000D01*
X604467Y814324D02*
X604848Y814705D01*
X381000Y814324D02*
X604467D01*
X369076Y802400D02*
X381000Y814324D01*
X356000Y802400D02*
X369076D01*
X746000Y1008400D02*
X759460D01*
X377444Y789686D02*
X439674D01*
X365158Y777400D02*
X377444Y789686D01*
X356000Y777400D02*
X365158D01*
X342900Y752400D02*
X356000D01*
X385572Y701040D02*
Y736600D01*
X342900Y727400D02*
X356000D01*
Y652400D02*
X361950D01*
X389636Y683768D01*
X342900Y602400D02*
X356000D01*
X314198Y1033780D02*
X345440Y1065022D01*
X489966D01*
X593251Y1195070D02*
X639318D01*
X734060Y1211600D02*
X746000D01*
X356000Y427400D02*
X370840D01*
X377190Y433750D01*
Y477520D01*
X731600Y1364000D02*
X746000D01*
X420182Y1275400D02*
X421800D01*
X372872Y1414472D02*
X411280Y1452880D01*
X720598D01*
X397400Y1269128D02*
Y1408000D01*
X404200Y1414800D01*
X695200D01*
X420700Y1383500D02*
Y1387500D01*
X435534Y1402334D01*
X717600Y982422D02*
Y1070680D01*
X731520Y1084600D01*
X766506Y996000D02*
X783844Y978662D01*
X727600Y999400D02*
X731000Y996000D01*
X766506D01*
X727600Y999400D02*
Y1016000D01*
X733442Y1021842D01*
X756920D01*
X711200Y1135400D02*
X722800Y1123800D01*
Y1101600D02*
Y1123800D01*
Y1101600D02*
X726800Y1097600D01*
X759460Y1008400D02*
X774800Y1023740D01*
X756920Y1021842D02*
X766800Y1031722D01*
X726800Y1097600D02*
X760200D01*
X766800Y1091000D01*
Y1031722D02*
Y1091000D01*
X372872Y1294928D02*
Y1414472D01*
Y1294928D02*
X383400Y1284400D01*
X391072Y1262800D02*
X397400Y1269128D01*
X337000Y1243200D02*
Y1247600D01*
X335600Y1245600D02*
X530082D01*
X362400Y1175454D02*
Y1221600D01*
X354838Y1167892D02*
X362400Y1175454D01*
X323200Y1238000D02*
Y1255400D01*
X330600Y1262800D01*
X391072D01*
X323200Y1238000D02*
X328600Y1232600D01*
X351400D01*
X362400Y1221600D01*
X476952Y1115000D02*
X535178Y1173226D01*
X356000Y1303400D02*
Y1450800D01*
X334000Y718500D02*
X342900Y727400D01*
X334000Y698800D02*
Y718500D01*
X333600Y677400D02*
X356000D01*
X334000Y698800D02*
X343000Y689800D01*
X374332D01*
X385572Y701040D01*
Y736600D02*
X388972Y740000D01*
X389636Y683768D02*
X395868Y690000D01*
X334400Y610900D02*
X342900Y602400D01*
X334400Y610900D02*
Y637000D01*
X356000Y627400D02*
X371000D01*
X383600Y640000D01*
X603170D01*
X684784Y721614D01*
X391160Y764286D02*
X456286D01*
X489400Y797400D01*
Y800100D01*
X525400Y1004696D02*
X525780Y1004316D01*
X525400Y1004696D02*
Y1009000D01*
X498994Y1002400D02*
X504794Y996600D01*
X534574D01*
X416560Y914908D02*
X440252Y938600D01*
X375920Y502400D02*
X380800Y507280D01*
Y529390D01*
X391160Y539750D01*
X377190Y477520D02*
X389270Y489600D01*
X585866D01*
X377698Y577400D02*
X390298Y564800D01*
X434400Y620600D02*
X436800Y623000D01*
X437200D01*
X333200Y452400D02*
X356000D01*
X330200Y455400D02*
X333200Y452400D01*
X330200Y455400D02*
Y598400D01*
X406000Y577400D02*
X600600D01*
X783844Y760644D01*
Y978662D01*
X722800Y749216D02*
X777550Y803966D01*
X435338Y621538D02*
X604338D01*
X722800Y740000D01*
Y749216D01*
X541004Y726404D02*
X541200Y726600D01*
X742600Y906800D02*
X746000D01*
X719400Y883600D02*
X742600Y906800D01*
X695200Y881400D02*
X703000D01*
X731440Y919400D02*
X759200D01*
X762310Y922510D01*
Y942594D01*
X447800Y919600D02*
X709542D01*
X722142Y932200D01*
X685800D02*
X695200D01*
X588600Y989000D02*
X615366D01*
X590200Y971400D02*
Y988000D01*
X591058Y988858D01*
X390616D02*
X591058D01*
X534574Y996600D02*
X568774Y1030800D01*
X611400D01*
X390298Y564800D02*
X609600D01*
X734156Y689356D01*
X734556D01*
X406000Y552400D02*
X614400D01*
X650600Y588600D01*
X675600D01*
X708400Y555800D01*
Y353500D02*
Y555800D01*
X607400Y908200D02*
X608800Y906800D01*
X695200D01*
X656476Y891400D02*
X685800Y862076D01*
X572070Y864870D02*
X576000Y868800D01*
X545108Y889762D02*
X545146Y889800D01*
X549848Y902400D02*
X549848Y902400D01*
X545146Y889800D02*
X577600D01*
X597704Y869696D01*
X639400D01*
X549848Y902400D02*
X578200D01*
X589200Y891400D01*
X656476D01*
X660200Y564200D02*
X660466D01*
X585866Y489600D02*
X660466Y564200D01*
X328200Y682800D02*
X333600Y677400D01*
X321600Y607000D02*
X330200Y598400D01*
X314198Y938402D02*
Y1033780D01*
Y938402D02*
X321600Y931000D01*
Y607000D02*
Y931000D01*
X329438Y949562D02*
Y992886D01*
Y949562D02*
X339200Y939800D01*
X381000D01*
X319278Y946522D02*
X328200Y937600D01*
Y682800D02*
Y937600D01*
X319278Y946522D02*
Y1008678D01*
X325584Y1014984D01*
X336200Y1077400D02*
X356000D01*
X309800Y1185400D02*
X326000Y1169200D01*
Y1087600D02*
Y1169200D01*
Y1087600D02*
X336200Y1077400D01*
X334400Y637000D02*
X337000Y639600D01*
X366296D01*
X431444Y971956D02*
X445058Y958342D01*
X645160D01*
X489966Y1065022D02*
X529200Y1104256D01*
Y1131019D01*
X593251Y1195070D01*
X614750Y991800D02*
X616458Y990092D01*
X613400Y991800D02*
X614750D01*
X751840Y830440D02*
Y859028D01*
X772470Y839470D02*
Y959556D01*
X717804Y828294D02*
X720600Y825498D01*
Y825000D02*
Y825498D01*
X751840Y859028D02*
X755468Y855400D01*
X755600D01*
X759450Y867400D02*
X767390Y875340D01*
X382656Y839724D02*
X691924D01*
X719400Y867200D01*
Y883600D01*
X755000Y854800D02*
X755600Y855400D01*
X755000Y852800D02*
Y854800D01*
X677000Y941000D02*
X685800Y932200D01*
X440252Y938600D02*
X657000D01*
X645160Y958342D02*
X649502Y954000D01*
X670000D01*
X677000Y941000D02*
Y946800D01*
X669900Y953900D02*
X677000Y946800D01*
X669900Y953900D02*
X670000Y954000D01*
X611400Y1030800D02*
X671600Y970600D01*
X717600Y982422D02*
X729222Y970800D01*
X761226D01*
X772470Y959556D01*
X746000Y957600D02*
X764000D01*
X767390Y954210D01*
Y875340D02*
Y954210D01*
X671600Y970600D02*
X708600D01*
X734320Y944880D01*
X760024D01*
X734556Y689356D02*
X744000Y698800D01*
X541200Y726600D02*
X577000D01*
X632590Y782190D01*
X723400Y802000D02*
X751840Y830440D01*
X468428Y752400D02*
X524028Y808000D01*
X697510D01*
X717804Y828294D01*
X604848Y814705D02*
X688905D01*
X741600Y867400D01*
X759450D01*
X644400Y1142800D02*
X646122D01*
X647922Y1144600D01*
X711026Y1173400D02*
X723626Y1160800D01*
X581787Y1157859D02*
X582023Y1157623D01*
X612358Y1187958D01*
X643558D01*
X654400Y1198800D01*
X768800D01*
X774800Y1192800D01*
Y1023740D02*
Y1192800D01*
X639318Y1195070D02*
X668848Y1224600D01*
X721400D01*
X735500Y1210500D01*
X608798Y1206968D02*
X651430Y1249600D01*
X727302D01*
X739902Y1237000D01*
X654342Y1275334D02*
X715734D01*
X728200Y1287800D01*
X746000D01*
X530082Y1245600D02*
X584882Y1300400D01*
X717200D01*
X730000Y1313200D01*
X746000D01*
X420182Y1275400D02*
X470982Y1326200D01*
X715800D01*
X728200Y1338600D01*
X746000D01*
X476504Y1349756D02*
X478548Y1351800D01*
X719400D01*
X731600Y1364000D01*
X759948Y1440200D02*
X768800Y1431348D01*
X435534Y1402334D02*
X764734D01*
X768800Y1406400D01*
Y1431348D01*
X562864Y1505712D02*
X563976Y1504600D01*
X759948Y1541800D02*
X768200Y1533548D01*
X563976Y1504600D02*
X762800D01*
X768200Y1510000D01*
Y1533548D01*
X463042Y1525778D02*
X466464Y1529200D01*
X718400D01*
X731200Y1516400D01*
X746000D01*
X624233Y1628648D02*
X626585Y1631000D01*
X726882D01*
X739882Y1618000D01*
X336000Y759300D02*
X342900Y752400D01*
X336000Y759300D02*
Y883600D01*
X342200Y889800D01*
X370000D01*
X395108Y914908D01*
X416560D01*
X356000Y852400D02*
X372000D01*
X384470Y864870D01*
X572070D01*
X356000Y1127400D02*
X373400D01*
X385800Y1115000D01*
X476952D01*
X309800Y1185400D02*
Y1222200D01*
X315400Y1227800D01*
Y1262800D01*
X356000Y1303400D01*
X445388Y795400D02*
X448400D01*
X439674Y789686D02*
X445388Y795400D01*
X366296Y639600D02*
X391096Y664400D01*
X607127D01*
X395868Y690000D02*
X499600D01*
X536004Y726404D01*
X541004D01*
X388972Y740000D02*
X472800D01*
X534800Y802000D01*
X723400D01*
X473964Y727400D02*
X539764Y793200D01*
X726200D01*
X772470Y839470D01*
X607127Y664400D02*
X686127Y743400D01*
X698188D01*
X742442Y787654D01*
X557022Y1136038D02*
X596038D01*
X633400Y1173400D01*
X711026D01*
X643400Y1144600D02*
X647922D01*
X596000Y1097200D02*
X643400Y1144600D01*
X570400Y1097200D02*
X596000D01*
X488184Y1014984D02*
X570400Y1097200D01*
X325584Y1014984D02*
X488184D01*
X532804Y1175600D02*
X535178Y1173226D01*
X532400Y1175600D02*
X532804D01*
X663200Y1592600D02*
X695200D01*
X645400Y1574800D02*
X663200Y1592600D01*
X480000Y1574800D02*
X645400D01*
X356000Y1450800D02*
X480000Y1574800D01*
D11*
X556000Y277300D02*
D03*
X581400D02*
D03*
X606800D02*
D03*
X632200D02*
D03*
X657600D02*
D03*
X683000D02*
D03*
X708400D02*
D03*
X556000Y353500D02*
D03*
X581400D02*
D03*
X606800D02*
D03*
X632200D02*
D03*
X657600D02*
D03*
X683000D02*
D03*
D12*
X708400D02*
D03*
D13*
X331000Y327400D02*
D03*
Y1202400D02*
D03*
D14*
X356000Y1152400D02*
D03*
Y1127400D02*
D03*
Y1102400D02*
D03*
Y1077400D02*
D03*
Y1052400D02*
D03*
Y1027400D02*
D03*
Y1002400D02*
D03*
Y977400D02*
D03*
Y952400D02*
D03*
Y927400D02*
D03*
Y902400D02*
D03*
Y877400D02*
D03*
Y852400D02*
D03*
Y827400D02*
D03*
Y802400D02*
D03*
Y777400D02*
D03*
Y752400D02*
D03*
Y727400D02*
D03*
Y702400D02*
D03*
Y677400D02*
D03*
Y652400D02*
D03*
Y627400D02*
D03*
Y602400D02*
D03*
Y577400D02*
D03*
Y552400D02*
D03*
Y527400D02*
D03*
Y502400D02*
D03*
Y477400D02*
D03*
Y452400D02*
D03*
Y427400D02*
D03*
Y402400D02*
D03*
X406000Y1152400D02*
D03*
Y1127400D02*
D03*
Y1102400D02*
D03*
Y1077400D02*
D03*
Y1052400D02*
D03*
Y1027400D02*
D03*
Y1002400D02*
D03*
Y977400D02*
D03*
Y952400D02*
D03*
Y927400D02*
D03*
Y902400D02*
D03*
Y877400D02*
D03*
Y852400D02*
D03*
Y827400D02*
D03*
Y802400D02*
D03*
Y777400D02*
D03*
Y752400D02*
D03*
Y727400D02*
D03*
Y702400D02*
D03*
Y677400D02*
D03*
Y652400D02*
D03*
Y627400D02*
D03*
Y602400D02*
D03*
Y577400D02*
D03*
Y552400D02*
D03*
Y527400D02*
D03*
Y502400D02*
D03*
Y477400D02*
D03*
Y452400D02*
D03*
Y427400D02*
D03*
Y402400D02*
D03*
Y377400D02*
D03*
X746000Y881400D02*
D03*
Y906800D02*
D03*
Y932200D02*
D03*
Y957600D02*
D03*
Y983000D02*
D03*
Y1008400D02*
D03*
Y1033800D02*
D03*
Y1059200D02*
D03*
Y1084600D02*
D03*
Y1110000D02*
D03*
Y1135400D02*
D03*
Y1160800D02*
D03*
Y1186200D02*
D03*
Y1211600D02*
D03*
Y1237000D02*
D03*
Y1262400D02*
D03*
Y1287800D02*
D03*
Y1313200D02*
D03*
Y1338600D02*
D03*
Y1364000D02*
D03*
Y1389400D02*
D03*
Y1414800D02*
D03*
Y1440200D02*
D03*
Y1465600D02*
D03*
Y1491000D02*
D03*
Y1516400D02*
D03*
Y1541800D02*
D03*
Y1567200D02*
D03*
Y1592600D02*
D03*
Y1618000D02*
D03*
X695200Y881400D02*
D03*
Y906800D02*
D03*
Y932200D02*
D03*
Y957600D02*
D03*
Y983000D02*
D03*
Y1008400D02*
D03*
Y1033800D02*
D03*
Y1059200D02*
D03*
Y1084600D02*
D03*
Y1110000D02*
D03*
Y1135400D02*
D03*
Y1160800D02*
D03*
Y1186200D02*
D03*
Y1211600D02*
D03*
Y1237000D02*
D03*
Y1262400D02*
D03*
Y1287800D02*
D03*
Y1313200D02*
D03*
Y1338600D02*
D03*
Y1364000D02*
D03*
Y1389400D02*
D03*
Y1414800D02*
D03*
Y1440200D02*
D03*
Y1465600D02*
D03*
Y1491000D02*
D03*
Y1516400D02*
D03*
Y1541800D02*
D03*
Y1567200D02*
D03*
Y1592600D02*
D03*
Y1618000D02*
D03*
Y1643400D02*
D03*
D15*
X356000Y377400D02*
D03*
X746000Y1643400D02*
D03*
D16*
X552958Y539750D02*
D03*
X603718Y1206968D02*
D03*
X550704Y1440200D02*
D03*
X557022Y1136038D02*
D03*
X707644Y706628D02*
D03*
X545084Y1120394D02*
D03*
X696214Y862076D02*
D03*
X500380Y1488883D02*
D03*
X585216Y1603248D02*
D03*
X329438Y992886D02*
D03*
X562864Y1505712D02*
D03*
X525780Y757174D02*
D03*
X633476Y745998D02*
D03*
X533252Y1364000D02*
D03*
X495808Y1103884D02*
D03*
X354838Y1170692D02*
D03*
X463042Y1525778D02*
D03*
X624233Y1628648D02*
D03*
X581787Y1159659D02*
D03*
X684784Y721614D02*
D03*
X742442Y787654D02*
D03*
X476504Y1349756D02*
D03*
X421800Y1275400D02*
D03*
X423200Y1389200D02*
D03*
X382000Y1284600D02*
D03*
X337000Y1247600D02*
D03*
X489400Y795800D02*
D03*
X525400Y1009000D02*
D03*
X437200Y623000D02*
D03*
X587600Y973000D02*
D03*
X605600Y908400D02*
D03*
X574000Y868800D02*
D03*
X660200Y564200D02*
D03*
X451600Y918200D02*
D03*
X436200Y969200D02*
D03*
X637800Y870400D02*
D03*
X613400Y991800D02*
D03*
X720600Y825000D02*
D03*
X755000Y852800D02*
D03*
X661200Y939000D02*
D03*
X747600Y699400D02*
D03*
X629400Y779400D02*
D03*
X644400Y1142800D02*
D03*
X448400Y795400D02*
D03*
X532400Y1175600D02*
D03*
M02*
