%FSLAX44Y44*%
%MOMM*%
G71*
G01*
G75*
G04 Layer_Physical_Order=1*
G04 Layer_Color=255*
%ADD10C,0.2540*%
%ADD11C,1.5000*%
%ADD12R,1.5000X1.5000*%
%ADD13C,3.0000*%
%ADD14O,2.5000X1.3000*%
%ADD15R,2.5000X1.3000*%
%ADD16C,1.2700*%
D10*
X797000Y254200D02*
Y1721000D01*
X302000Y252600D02*
X797000D01*
X302000D02*
Y1721000D01*
X797000D01*
X695200Y1592600D02*
X708660D01*
X552958Y539750D02*
X579628Y566420D01*
X560324Y703580D02*
Y1100074D01*
X474218Y617474D02*
X560324Y703580D01*
X397600Y427400D02*
X406000D01*
X552704Y1315212D02*
Y1440200D01*
X535178Y1297686D02*
X552704Y1315212D01*
X535178Y1173226D02*
Y1297686D01*
X695200Y1059200D02*
X709148D01*
X716590Y1051758D01*
Y854344D02*
Y1051758D01*
X707644Y845398D02*
X716590Y854344D01*
X707644Y706628D02*
Y845398D01*
X406000Y502400D02*
X437376D01*
X406000Y802400D02*
X420638D01*
X379530Y389030D02*
X391160Y377400D01*
X406000D01*
X696214Y690880D02*
Y862076D01*
X746000Y1491000D02*
X768350D01*
X746000Y1414800D02*
X762000D01*
X342900Y402400D02*
X356000D01*
Y927400D02*
X361950D01*
X372310Y1261364D02*
X372872D01*
X406000Y1077400D02*
X411988D01*
X545846Y1317498D02*
Y1376172D01*
X406000Y852400D02*
X418816D01*
X618236Y367464D02*
X632200Y353500D01*
X618236Y367464D02*
Y843026D01*
X629313Y1182131D02*
Y1596077D01*
X651236Y1618000D01*
X695200D01*
X681482Y957600D02*
X695200D01*
X395986Y877400D02*
X406000D01*
X562864Y1244092D02*
Y1505712D01*
X732250Y1033800D02*
X746000D01*
X679978Y1313200D02*
X695200D01*
X672338Y1305560D02*
X679978Y1313200D01*
X672338Y1198626D02*
Y1305560D01*
X633476Y745998D02*
X639161Y751684D01*
X392556Y652400D02*
X406000D01*
X384610Y660346D02*
X392556Y652400D01*
X739902Y1186200D02*
X746000D01*
X674529Y1126711D02*
Y1192181D01*
X508000Y352298D02*
Y411760D01*
X467360Y452400D02*
X508000Y411760D01*
X406000Y452400D02*
X467360D01*
X389636Y402400D02*
X406000D01*
X384610Y407426D02*
X389636Y402400D01*
X695200Y1643400D02*
X712958D01*
X528320Y619252D02*
X568706Y659638D01*
X528320Y381180D02*
Y619252D01*
Y381180D02*
X556000Y353500D01*
X673354Y1325880D02*
X757428D01*
X609243Y1230122D02*
X615699Y1223666D01*
X671322Y1085596D02*
X683006Y1097280D01*
X671322Y965200D02*
Y1085596D01*
X746000Y1110000D02*
X759948D01*
X669818Y1338600D02*
X695200D01*
X650748Y1319530D02*
X669818Y1338600D01*
X695200Y1033800D02*
X708951D01*
X711510Y1031240D01*
X695200Y1084600D02*
X715264D01*
X721784Y1078080D01*
X746000Y1262400D02*
X759948D01*
X356000Y377400D02*
X370840D01*
X374396Y380956D01*
X377952Y1251204D02*
X476504Y1349756D01*
X418816Y852400D02*
Y854668D01*
X420182Y1275400D02*
X421800D01*
X384556Y1239774D02*
X420182Y1275400D01*
X350012Y1317812D02*
X418326Y1386126D01*
Y1391400D01*
X757428Y1325880D02*
X763800Y1332252D01*
X759948Y1262400D02*
X763800Y1258548D01*
Y1126800D02*
Y1258548D01*
X759800Y1122800D02*
X763800Y1126800D01*
X463042Y1401042D02*
Y1525778D01*
X356800Y1294800D02*
X463042Y1401042D01*
X397178Y1321378D02*
Y1321778D01*
X412118Y1336718D01*
X412518D01*
X500380Y1424580D01*
Y1488883D01*
X372872Y1261364D02*
X382000Y1270492D01*
Y1284600D01*
X337000Y1243200D02*
Y1247600D01*
X356000Y1152400D02*
X365800D01*
Y1178054D01*
X366000Y1178254D01*
Y1290200D01*
X397178Y1321378D01*
X356800Y1189200D02*
Y1294800D01*
X350012Y1192212D02*
Y1317812D01*
X346692Y1167892D02*
X354838D01*
X332800Y1246400D02*
X333800D01*
X337000Y1243200D01*
X310800Y1224400D02*
X332800Y1246400D01*
X324200Y998124D02*
X329438Y992886D01*
X324200Y998124D02*
Y1166400D01*
X350012Y1192212D01*
X329800Y1046899D02*
Y1162200D01*
X356800Y1189200D01*
X389690Y459890D02*
X394000Y464200D01*
X458200D01*
X474218Y480218D01*
Y617474D01*
X389690Y435310D02*
Y459890D01*
Y435310D02*
X397600Y427400D01*
X483200Y1058510D02*
X545084Y1120394D01*
X466000Y929042D02*
Y1074076D01*
X495808Y1103884D01*
X487400Y799600D02*
X493400D01*
X499200Y805400D01*
Y1052412D01*
X483200Y812200D02*
Y1058510D01*
X416800Y776800D02*
Y777400D01*
X406000D02*
X416800D01*
Y776800D02*
X420800D01*
X525400Y1009000D02*
X525780Y1008620D01*
Y757174D02*
Y1008620D01*
X683890Y944800D02*
X708200D01*
X711510Y948110D01*
Y1031240D01*
X508000Y352298D02*
X528898Y331400D01*
X643200D01*
X645198Y333398D01*
X437376Y502400D02*
X464200Y529224D01*
Y793200D01*
X483200Y812200D01*
X427370Y515000D02*
X455400Y543030D01*
Y759800D01*
X434400Y626800D02*
X435400Y627800D01*
Y762200D01*
X420800Y776800D02*
X435400Y762200D01*
X434400Y620600D02*
Y626800D01*
Y620600D02*
X436800Y623000D01*
X437200D01*
X328200Y417100D02*
X342900Y402400D01*
X328200Y417100D02*
Y918419D01*
X717804Y780396D02*
Y828294D01*
Y780396D02*
X724008Y774192D01*
X746760D01*
X573600Y868800D02*
Y1088712D01*
X616458Y990092D02*
Y1153658D01*
X634393Y1171593D01*
X630682Y1156282D02*
X639473Y1165073D01*
X601200Y943800D02*
Y1154018D01*
X629313Y1182131D01*
X581787Y1157859D02*
X583400Y1159472D01*
X573600Y1088712D02*
X594400Y1109512D01*
X560324Y1100074D02*
X569000Y1108750D01*
Y1172250D01*
X603718Y1206968D01*
X594400Y1109512D02*
Y1160600D01*
X606200Y906600D02*
X607800Y908200D01*
X607400D02*
X607800D01*
X618236Y843026D02*
X618800Y843590D01*
Y912678D01*
X601200Y943800D02*
X618600Y926400D01*
Y911400D02*
Y926400D01*
X579628Y566420D02*
Y828228D01*
X606200Y854800D01*
Y906600D01*
X568706Y659638D02*
Y836106D01*
X589280Y856680D01*
Y970320D01*
X660200Y564200D02*
X660466D01*
X328200Y918419D02*
X328400Y918619D01*
X336800Y909600D02*
X344000Y902400D01*
X356000D01*
X336800Y909600D02*
Y981400D01*
X339689Y984289D01*
X328400Y918619D02*
Y968800D01*
X316600Y980600D02*
X328400Y968800D01*
X310800Y1186000D02*
Y1224400D01*
Y1186000D02*
X316600Y1180200D01*
Y980600D02*
Y1180200D01*
X329800Y1046899D02*
X330400Y1046299D01*
Y1013400D02*
Y1046299D01*
Y1013400D02*
X339689Y1004111D01*
Y984289D02*
Y1004111D01*
X337200Y1035000D02*
Y1158400D01*
X346692Y1167892D01*
X344800Y1027400D02*
X356000D01*
X337200Y1035000D02*
X344800Y1027400D01*
X389690Y842264D02*
X392154Y839800D01*
X465400Y928442D02*
X466000Y929042D01*
X418816Y854668D02*
X430200Y866052D01*
X379530Y389030D02*
Y924130D01*
X384556Y929156D01*
Y1239774D01*
X384610Y660346D02*
Y917210D01*
X389636Y922236D01*
X389690Y842264D02*
Y870490D01*
X395986Y876786D01*
Y877400D01*
X438000Y938126D02*
X457400Y957526D01*
Y1080462D01*
X449000Y1220652D02*
X545846Y1317498D01*
X430200Y866052D02*
Y941800D01*
X449000Y960600D01*
Y1220652D01*
X435000Y975512D02*
Y1054388D01*
X411988Y1077400D02*
X435000Y1054388D01*
X435800Y968800D02*
X436200Y969200D01*
X389636Y922236D02*
Y1181636D01*
X535452Y1327452D01*
Y1364000D01*
X583400Y1159472D02*
Y1163200D01*
X615699Y1195499D01*
Y1223666D01*
X598922Y1230122D02*
X609243D01*
X559000Y1170886D02*
Y1190200D01*
X598922Y1230122D01*
X457400Y1080462D02*
X550400Y1173462D01*
Y1231628D01*
X562864Y1244092D01*
X473600Y1061610D02*
X523200Y1111210D01*
Y1135086D01*
X559000Y1170886D01*
X499200Y1052412D02*
X558000Y1111212D01*
Y1135060D01*
X557022Y1136038D02*
X558000Y1135060D01*
X536400Y1385618D02*
X545846Y1376172D01*
X536400Y1385618D02*
Y1554432D01*
X585216Y1603248D01*
X638000Y871998D02*
X642600D01*
X660466Y564200D02*
X665800Y569534D01*
X672200Y364300D02*
Y948318D01*
X681482Y957600D01*
X677400Y938310D02*
X683890Y944800D01*
X625800Y804844D02*
Y1024200D01*
X630682Y1029082D01*
Y1156282D01*
X614750Y991800D02*
X616458Y990092D01*
X613400Y991800D02*
X614750D01*
X650200Y964398D02*
X661162Y975360D01*
X717804Y828294D02*
X720600Y825498D01*
Y825000D02*
Y825498D01*
X755468Y855400D02*
X755600D01*
X755468D02*
X755634Y855234D01*
X721784Y847016D02*
Y1078080D01*
Y847016D02*
X742442Y826358D01*
Y787654D02*
Y826358D01*
X672200Y364300D02*
X683000Y353500D01*
X677400Y827200D02*
Y938310D01*
Y827200D02*
X684784Y819816D01*
Y721614D02*
Y819816D01*
X746760Y774192D02*
X757800Y785232D01*
Y823400D01*
X755000Y854800D02*
X755600Y855400D01*
X755000Y852800D02*
Y854800D01*
X632600Y886600D02*
Y987438D01*
Y886600D02*
X638000Y881200D01*
Y871998D02*
Y881200D01*
X638600Y897200D02*
Y983278D01*
Y897200D02*
X649800Y886000D01*
X645000Y904400D02*
Y979518D01*
Y904400D02*
X659600Y889800D01*
X650200Y911800D02*
Y964398D01*
Y911800D02*
X665800Y896200D01*
Y569534D02*
Y896200D01*
X661162Y955040D02*
X671322Y965200D01*
X661162Y955040D02*
X661200Y955002D01*
Y942200D02*
Y955002D01*
X727600Y853600D02*
X757800Y823400D01*
X727600Y853600D02*
Y1029150D01*
X732250Y1033800D01*
X696214Y690880D02*
X714694Y672400D01*
X746400D01*
X708400Y277300D02*
X744000Y312900D01*
Y651800D01*
X645198Y333398D02*
Y723998D01*
X659600Y738400D01*
Y889800D01*
X649800Y762600D02*
Y886000D01*
X634000Y746800D02*
X649800Y762600D01*
X627400Y786384D02*
Y803244D01*
X625800Y804844D02*
X627400Y803244D01*
X734800Y1059200D02*
X746000D01*
X728200Y1065800D02*
X734800Y1059200D01*
X683006Y1097280D02*
X715920D01*
X728200Y1085000D01*
Y1065800D02*
Y1085000D01*
X661162Y975360D02*
Y1102162D01*
X681800Y1122800D01*
X759800D01*
X644400Y1142800D02*
X646122D01*
X648722Y1145400D01*
X594400Y1160600D02*
X622600Y1188800D01*
Y1627015D01*
X624233Y1628648D01*
X659200Y1311726D02*
X673354Y1325880D01*
X665800Y1192088D02*
X672338Y1198626D01*
X659200Y1134200D02*
Y1311726D01*
X632600Y987438D02*
X639400Y994238D01*
Y1114400D01*
X659200Y1134200D01*
X638600Y983278D02*
X646800Y991478D01*
X645000Y979518D02*
X653400Y987918D01*
Y1105581D01*
X674529Y1126711D01*
X646800Y991478D02*
Y1110600D01*
X665800Y1129600D01*
Y1192088D01*
X674529Y1192181D02*
X681148Y1198800D01*
X727302D01*
X739902Y1186200D01*
X733832Y1401800D02*
X759200D01*
X763800Y1397200D01*
Y1332252D02*
Y1397200D01*
X729400Y1389400D02*
X746000D01*
X673400Y1654800D02*
X678236Y1659636D01*
X759460D01*
X673400Y1635000D02*
Y1654800D01*
Y1635000D02*
X677400Y1631000D01*
X708660Y1592600D02*
X715000Y1598940D01*
X677400Y1631000D02*
X710400D01*
X715000Y1626400D01*
Y1598940D02*
Y1626400D01*
X639473Y1165073D02*
Y1356673D01*
X672200Y1389400D01*
X695200D01*
X634393Y1171593D02*
Y1368593D01*
X668200Y1402400D01*
X720598D01*
X374396Y380956D02*
Y928796D01*
X377952Y932352D01*
Y1251204D01*
X361950Y927400D02*
Y927550D01*
X372310Y937910D01*
Y1261364D01*
X445400Y796600D02*
X473600Y824800D01*
Y1061610D01*
X445400Y792000D02*
Y796600D01*
X445388Y795400D02*
X448400D01*
X442800Y792812D02*
X445388Y795400D01*
X434800Y780400D02*
X455400Y759800D01*
X420638Y802400D02*
X428000Y809762D01*
X434800Y780400D02*
Y803200D01*
X465400Y833800D01*
Y928442D01*
X428000Y809762D02*
Y810000D01*
X449600Y831600D01*
Y916800D01*
X392154Y839800D02*
X430800D01*
X438000Y847000D01*
Y938126D01*
X384610Y407426D02*
Y508810D01*
X390800Y515000D01*
X427370D01*
X650748Y1148348D02*
Y1319530D01*
X648722Y1146322D02*
X650748Y1148348D01*
X648722Y1145400D02*
Y1146322D01*
X532804Y1175600D02*
X535178Y1173226D01*
X532400Y1175600D02*
X532804D01*
X727200Y1408432D02*
X733832Y1401800D01*
X727200Y1408432D02*
Y1567200D01*
X746000D01*
X712958Y1643400D02*
X720598Y1635760D01*
Y1398202D02*
X729400Y1389400D01*
X720598Y1398202D02*
Y1635760D01*
X744000Y651800D02*
X782200Y690000D01*
Y1636896D01*
X759460Y1659636D02*
X782200Y1636896D01*
X746400Y672400D02*
X775800Y701800D01*
Y1483550D01*
X768350Y1491000D02*
X775800Y1483550D01*
X747192Y699592D02*
X770000Y722400D01*
Y1406800D01*
X762000Y1414800D02*
X770000Y1406800D01*
X755634Y855234D02*
X764000Y863600D01*
Y1105948D01*
X759948Y1110000D02*
X764000Y1105948D01*
D11*
X556000Y277300D02*
D03*
X581400D02*
D03*
X606800D02*
D03*
X632200D02*
D03*
X657600D02*
D03*
X683000D02*
D03*
X708400D02*
D03*
X556000Y353500D02*
D03*
X581400D02*
D03*
X606800D02*
D03*
X632200D02*
D03*
X657600D02*
D03*
X683000D02*
D03*
D12*
X708400D02*
D03*
D13*
X331000Y327400D02*
D03*
Y1202400D02*
D03*
D14*
X356000Y1152400D02*
D03*
Y1127400D02*
D03*
Y1102400D02*
D03*
Y1077400D02*
D03*
Y1052400D02*
D03*
Y1027400D02*
D03*
Y1002400D02*
D03*
Y977400D02*
D03*
Y952400D02*
D03*
Y927400D02*
D03*
Y902400D02*
D03*
Y877400D02*
D03*
Y852400D02*
D03*
Y827400D02*
D03*
Y802400D02*
D03*
Y777400D02*
D03*
Y752400D02*
D03*
Y727400D02*
D03*
Y702400D02*
D03*
Y677400D02*
D03*
Y652400D02*
D03*
Y627400D02*
D03*
Y602400D02*
D03*
Y577400D02*
D03*
Y552400D02*
D03*
Y527400D02*
D03*
Y502400D02*
D03*
Y477400D02*
D03*
Y452400D02*
D03*
Y427400D02*
D03*
Y402400D02*
D03*
X406000Y1152400D02*
D03*
Y1127400D02*
D03*
Y1102400D02*
D03*
Y1077400D02*
D03*
Y1052400D02*
D03*
Y1027400D02*
D03*
Y1002400D02*
D03*
Y977400D02*
D03*
Y952400D02*
D03*
Y927400D02*
D03*
Y902400D02*
D03*
Y877400D02*
D03*
Y852400D02*
D03*
Y827400D02*
D03*
Y802400D02*
D03*
Y777400D02*
D03*
Y752400D02*
D03*
Y727400D02*
D03*
Y702400D02*
D03*
Y677400D02*
D03*
Y652400D02*
D03*
Y627400D02*
D03*
Y602400D02*
D03*
Y577400D02*
D03*
Y552400D02*
D03*
Y527400D02*
D03*
Y502400D02*
D03*
Y477400D02*
D03*
Y452400D02*
D03*
Y427400D02*
D03*
Y402400D02*
D03*
Y377400D02*
D03*
X746000Y881400D02*
D03*
Y906800D02*
D03*
Y932200D02*
D03*
Y957600D02*
D03*
Y983000D02*
D03*
Y1008400D02*
D03*
Y1033800D02*
D03*
Y1059200D02*
D03*
Y1084600D02*
D03*
Y1110000D02*
D03*
Y1135400D02*
D03*
Y1160800D02*
D03*
Y1186200D02*
D03*
Y1211600D02*
D03*
Y1237000D02*
D03*
Y1262400D02*
D03*
Y1287800D02*
D03*
Y1313200D02*
D03*
Y1338600D02*
D03*
Y1364000D02*
D03*
Y1389400D02*
D03*
Y1414800D02*
D03*
Y1440200D02*
D03*
Y1465600D02*
D03*
Y1491000D02*
D03*
Y1516400D02*
D03*
Y1541800D02*
D03*
Y1567200D02*
D03*
Y1592600D02*
D03*
Y1618000D02*
D03*
X695200Y881400D02*
D03*
Y906800D02*
D03*
Y932200D02*
D03*
Y957600D02*
D03*
Y983000D02*
D03*
Y1008400D02*
D03*
Y1033800D02*
D03*
Y1059200D02*
D03*
Y1084600D02*
D03*
Y1110000D02*
D03*
Y1135400D02*
D03*
Y1160800D02*
D03*
Y1186200D02*
D03*
Y1211600D02*
D03*
Y1237000D02*
D03*
Y1262400D02*
D03*
Y1287800D02*
D03*
Y1313200D02*
D03*
Y1338600D02*
D03*
Y1364000D02*
D03*
Y1389400D02*
D03*
Y1414800D02*
D03*
Y1440200D02*
D03*
Y1465600D02*
D03*
Y1491000D02*
D03*
Y1516400D02*
D03*
Y1541800D02*
D03*
Y1567200D02*
D03*
Y1592600D02*
D03*
Y1618000D02*
D03*
Y1643400D02*
D03*
D15*
X356000Y377400D02*
D03*
X746000Y1643400D02*
D03*
D16*
X552958Y539750D02*
D03*
X603718Y1206968D02*
D03*
X550704Y1440200D02*
D03*
X557022Y1136038D02*
D03*
X707644Y706628D02*
D03*
X545084Y1120394D02*
D03*
X696214Y862076D02*
D03*
X500380Y1488883D02*
D03*
X585216Y1603248D02*
D03*
X329438Y992886D02*
D03*
X562864Y1505712D02*
D03*
X525780Y757174D02*
D03*
X633476Y745998D02*
D03*
X533252Y1364000D02*
D03*
X495808Y1103884D02*
D03*
X354838Y1170692D02*
D03*
X463042Y1525778D02*
D03*
X624233Y1628648D02*
D03*
X581787Y1159659D02*
D03*
X684784Y721614D02*
D03*
X742442Y787654D02*
D03*
X476504Y1349756D02*
D03*
X421800Y1275400D02*
D03*
X423200Y1389200D02*
D03*
X382000Y1284600D02*
D03*
X337000Y1247600D02*
D03*
X489400Y795800D02*
D03*
X525400Y1009000D02*
D03*
X437200Y623000D02*
D03*
X587600Y973000D02*
D03*
X605600Y908400D02*
D03*
X574000Y868800D02*
D03*
X660200Y564200D02*
D03*
X451600Y918200D02*
D03*
X436200Y969200D02*
D03*
X637800Y870400D02*
D03*
X613400Y991800D02*
D03*
X720600Y825000D02*
D03*
X755000Y852800D02*
D03*
X661200Y939000D02*
D03*
X747600Y699400D02*
D03*
X629400Y779400D02*
D03*
X644400Y1142800D02*
D03*
X448400Y795400D02*
D03*
X532400Y1175600D02*
D03*
M02*
