%FSLAX44Y44*%
%MOMM*%
G71*
G01*
G75*
G04 Layer_Color=16777215*
%ADD10C,0.2540*%
%ADD11C,1.5000*%
%ADD12R,1.5000X1.5000*%
%ADD13C,3.0000*%
%ADD14O,2.5000X1.3000*%
%ADD15R,2.5000X1.3000*%
%ADD16C,1.2700*%
%ADD17C,0.6000*%
%ADD18C,0.2500*%
%ADD19C,0.2000*%
%ADD20C,0.1524*%
D10*
X794000Y1723200D02*
X853140D01*
X795120Y252160D02*
X853140D01*
X850600Y1019420D02*
Y1723200D01*
Y252160D02*
Y947812D01*
X845520Y1707960D02*
X850600Y1723200D01*
X855680Y1707960D01*
X850600Y252160D02*
X855680Y267400D01*
X845520D02*
X850600Y252160D01*
X796200Y229600D02*
Y237140D01*
X301800Y232060D02*
Y248400D01*
X584548Y234600D02*
X796200D01*
X301800D02*
X505323D01*
X780960Y239680D02*
X796200Y234600D01*
X780960Y229520D02*
X796200Y234600D01*
X301800D02*
X317040Y229520D01*
X301800Y234600D02*
X317040Y239680D01*
X363157Y1260896D02*
X360617Y1263435D01*
X355539D01*
X353000Y1260896D01*
Y1250739D01*
X355539Y1248200D01*
X360617D01*
X363157Y1250739D01*
X368235Y1248200D02*
X373313D01*
X370774D01*
Y1263435D01*
X368235Y1260896D01*
X711757Y1711096D02*
X709218Y1713635D01*
X704139D01*
X701600Y1711096D01*
Y1700939D01*
X704139Y1698400D01*
X709218D01*
X711757Y1700939D01*
X726992Y1698400D02*
X716835D01*
X726992Y1708557D01*
Y1711096D01*
X724453Y1713635D01*
X719374D01*
X716835Y1711096D01*
X532812Y384779D02*
Y372083D01*
X535351Y369544D01*
X540430D01*
X542969Y372083D01*
Y384779D01*
X548047Y369544D02*
X553125D01*
X550586D01*
Y384779D01*
X548047Y382240D01*
X689400Y1679235D02*
Y1664000D01*
X697018D01*
X699557Y1666539D01*
Y1669078D01*
X697018Y1671617D01*
X689400D01*
X697018D01*
X699557Y1674157D01*
Y1676696D01*
X697018Y1679235D01*
X689400D01*
X736200Y1663000D02*
Y1673157D01*
X741278Y1678235D01*
X746357Y1673157D01*
Y1663000D01*
Y1670618D01*
X736200D01*
X351200Y342400D02*
Y352557D01*
X356278Y357635D01*
X361357Y352557D01*
Y342400D01*
Y350018D01*
X351200D01*
X401400Y357635D02*
Y342400D01*
X409017D01*
X411557Y344939D01*
Y347478D01*
X409017Y350018D01*
X401400D01*
X409017D01*
X411557Y352557D01*
Y355096D01*
X409017Y357635D01*
X401400D01*
X422757Y1259896D02*
X420218Y1262435D01*
X415139D01*
X412600Y1259896D01*
Y1257357D01*
X415139Y1254818D01*
X420218D01*
X422757Y1252278D01*
Y1249739D01*
X420218Y1247200D01*
X415139D01*
X412600Y1249739D01*
X427835Y1247200D02*
Y1262435D01*
X437992Y1247200D01*
Y1262435D01*
X443070Y1247200D02*
Y1262435D01*
X450688D01*
X453227Y1259896D01*
Y1254818D01*
X450688Y1252278D01*
X443070D01*
X468462Y1262435D02*
X458305D01*
Y1254818D01*
X463384Y1257357D01*
X465923D01*
X468462Y1254818D01*
Y1249739D01*
X465923Y1247200D01*
X460844D01*
X458305Y1249739D01*
X473540D02*
X476079Y1247200D01*
X481158D01*
X483697Y1249739D01*
Y1259896D01*
X481158Y1262435D01*
X476079D01*
X473540Y1259896D01*
Y1257357D01*
X476079Y1254818D01*
X483697D01*
X588157Y1685296D02*
X585617Y1687835D01*
X580539D01*
X578000Y1685296D01*
Y1682757D01*
X580539Y1680217D01*
X585617D01*
X588157Y1677678D01*
Y1675139D01*
X585617Y1672600D01*
X580539D01*
X578000Y1675139D01*
X593235Y1687835D02*
Y1672600D01*
X603392D01*
X608470Y1680217D02*
X618627D01*
X633862Y1687835D02*
X628784Y1685296D01*
X623705Y1680217D01*
Y1675139D01*
X626244Y1672600D01*
X631323D01*
X633862Y1675139D01*
Y1677678D01*
X631323Y1680217D01*
X623705D01*
X649097Y1672600D02*
X638940D01*
X649097Y1682757D01*
Y1685296D01*
X646558Y1687835D01*
X641479D01*
X638940Y1685296D01*
X654175Y1672600D02*
Y1687835D01*
X661793D01*
X664332Y1685296D01*
Y1680217D01*
X661793Y1677678D01*
X654175D01*
X659254D02*
X664332Y1672600D01*
X435800Y1159696D02*
X438339Y1162235D01*
X443418D01*
X445957Y1159696D01*
Y1157157D01*
X443418Y1154617D01*
X440878D01*
X443418D01*
X445957Y1152078D01*
Y1149539D01*
X443418Y1147000D01*
X438339D01*
X435800Y1149539D01*
X461192Y1147000D02*
X451035D01*
X461192Y1157157D01*
Y1159696D01*
X458653Y1162235D01*
X453574D01*
X451035Y1159696D01*
X640800Y888696D02*
X643339Y891235D01*
X648418D01*
X650957Y888696D01*
Y886157D01*
X648418Y883617D01*
X645878D01*
X648418D01*
X650957Y881078D01*
Y878539D01*
X648418Y876000D01*
X643339D01*
X640800Y878539D01*
X656035Y876000D02*
X661113D01*
X658574D01*
Y891235D01*
X656035Y888696D01*
X440600Y370000D02*
X445678D01*
X443139D01*
Y385235D01*
X440600Y382696D01*
X659800Y1641600D02*
X664878D01*
X662339D01*
Y1656835D01*
X659800Y1654296D01*
X737200Y838000D02*
Y848157D01*
X742278Y853235D01*
X747357Y848157D01*
Y838000D01*
Y845618D01*
X737200D01*
X690400Y854235D02*
Y839000D01*
X698018D01*
X700557Y841539D01*
Y844078D01*
X698018Y846618D01*
X690400D01*
X698018D01*
X700557Y849157D01*
Y851696D01*
X698018Y854235D01*
X690400D01*
D17*
X726200Y331900D02*
G03*
X726200Y331900I-3000J0D01*
G01*
D18*
X722650Y353500D02*
G03*
X722650Y353500I-1250J0D01*
G01*
D19*
X733200Y321750D02*
G03*
X733200Y309050I0J-6350D01*
G01*
X531200Y288900D02*
Y341900D01*
X733200Y288900D02*
Y309050D01*
Y321750D02*
Y341900D01*
X531200Y288900D02*
X733200D01*
X531200Y341900D02*
X733200D01*
X302000Y291400D02*
Y1237400D01*
X479000D01*
Y291400D02*
Y1237400D01*
X302000Y291400D02*
X479000D01*
X752400Y837600D02*
Y1688000D01*
X902000Y837400D02*
Y1688400D01*
X672000D02*
X902000D01*
X672000Y837400D02*
Y1688400D01*
Y837400D02*
X902000D01*
X796800Y838000D02*
Y1687200D01*
D20*
X862281Y951876D02*
Y956955D01*
Y954416D01*
X847046D01*
X849585Y951876D01*
X862281Y972190D02*
X847046D01*
X854663Y964572D01*
Y974729D01*
X847046Y979807D02*
Y989964D01*
X849585D01*
X859742Y979807D01*
X862281D01*
X864820Y997581D02*
X862281Y1000121D01*
X859742D01*
Y997581D01*
X862281D01*
Y1000121D01*
X864820Y997581D01*
X867359Y995042D01*
X862281Y1010277D02*
Y1015356D01*
Y1012817D01*
X847046D01*
X849585Y1010277D01*
X517005Y222919D02*
Y238154D01*
X509388Y230537D01*
X519544D01*
X524623Y225459D02*
X527162Y222919D01*
X532240D01*
X534779Y225459D01*
Y235615D01*
X532240Y238154D01*
X527162D01*
X524623Y235615D01*
Y233076D01*
X527162Y230537D01*
X534779D01*
X542397Y220380D02*
X544936Y222919D01*
Y225459D01*
X542397D01*
Y222919D01*
X544936D01*
X542397Y220380D01*
X539858Y217841D01*
X562710Y222919D02*
Y238154D01*
X555093Y230537D01*
X565249D01*
X577945Y222919D02*
Y238154D01*
X570328Y230537D01*
X580485D01*
M02*
